<svg xmlns="http://www.w3.org/2000/svg" viewBox="0 0 17.96 13.65"><defs><style>.cls-1{fill:none;stroke:#fff;stroke-miterlimit:10;stroke-width:0.75px;}</style></defs><title>Asset 2</title><g id="Layer_2" data-name="Layer 2"><g id="Слой_1" data-name="Слой 1"><path class="cls-1" d="M9,13.2h-.1a9,9,0,0,1-6.05-2.46A8.91,8.91,0,0,1,.38,4.58V4.26H.71A9.08,9.08,0,0,1,6.46,6.34l-.09.86A8.18,8.18,0,0,0,1.08,5a8.28,8.28,0,0,0,2.25,5.29A8.19,8.19,0,0,0,8.62,12.5"/><path class="cls-1" d="M9.34,12.5a8.19,8.19,0,0,0,5.29-2.25A8.25,8.25,0,0,0,16.88,5a8.18,8.18,0,0,0-5.29,2.25l-.22-.76a9,9,0,0,1,5.87-2.2h.32v.32a8.9,8.9,0,0,1-2.46,6.15A9,9,0,0,1,9.07,13.2H8.65"/><path class="cls-1" d="M9,13.14l-.24-.22A8.9,8.9,0,0,1,6.14,6.82,8.9,8.9,0,0,1,8.74.73L9,.51l.24.22a8.9,8.9,0,0,1,2.61,6.09,8.9,8.9,0,0,1-2.61,6.09Z"/></g></g></svg>