<svg height="14" viewBox="0 0 18 14" width="18" xmlns="http://www.w3.org/2000/svg"><g fill="none" fill-rule="evenodd" stroke="#fff" stroke-width=".75"><path d="m9 13.2h-.1c-2.25354769-.0335481-4.41249026-.9113992-6.05-2.46-1.58854016-1.65692298-2.4737632-3.86460473-2.47-6.16l-.00001195-.32h.33001195c2.10067574.00103705 4.13481383.7368644 5.75 2.08l-.09.87c-1.43898922-1.35070843-3.31780057-2.13561827-5.29-2.21.09416701 1.9754554.89230338 3.85196268 2.25 5.29 1.44244287 1.3453669 3.31917321 2.1294073 5.29 2.21"/><path d="m9.34 12.5c1.9773709-.0942578 3.8549239-.8963883 5.29-2.26 1.3505112-1.42270556 2.1484455-3.28100578 2.25-5.24-1.9796248.08438457-3.8604999.88793424-5.29 2.26l-.22-.76c1.6347017-1.41145683 3.7202795-2.19177505 5.88-2.2h.3200352l-.0000352.32c.0064536 2.29400406-.8751112 4.50149958-2.46 6.16-1.6248402 1.5370686-3.7638037 2.4140437-6 2.46h-.46"/><path d="m9 1.49c-1.33582244 1.46102814-2.10544851 3.3514-2.17 5.33.06042306 1.98244812.83044783 3.8773478 2.17 5.34 1.3299964-1.4669941 2.0924414-3.3606948 2.15-5.34-.0590464-1.97601621-.8214515-3.86607188-2.15-5.33zm0 11.65-.24-.22c-1.61143632-1.6283216-2.54127526-3.80986686-2.6-6.1.04985265-2.28517551.973097-4.46446158 2.58-6.09l.26-.22.24.22c1.618766 1.62019469 2.553146 3.80041446 2.61 6.09-.055328 2.29284857-.989745 4.476735-2.61 6.1z"/></g></svg>