<svg height="35" viewBox="0 0 49 35" width="49" xmlns="http://www.w3.org/2000/svg"><g fill="#555" fill-rule="evenodd" transform="translate(-1 -1)"><path d="m25.5 35.8285714h-.2833333c-6.3850518-.0910592-12.5020558-2.4737977-17.1416667-6.6771428-4.50086379-4.4973624-7.00899574-10.4896414-6.99833333-16.72l-.00003386-.8685715h.93503386c5.95191458.0028149 11.71530583 2.0000605 16.29166663 5.6457143l-.255 2.3614286c-4.0771361-3.6662086-9.40043491-5.7966782-14.9883333-5.9985714.26680653 5.3619503 2.5281929 10.4553272 6.375 14.3585714 4.0869215 3.6517101 9.4043241 5.7798199 14.9883333 5.9985714"/><path d="m26.4633333 33.9285714c5.6025509-.2558427 10.9222846-2.4330538 14.9883334-6.1342857 3.8264484-3.8616294 6.0872622-8.9055871 6.375-14.2228571-5.6089369.2290438-10.9380831 2.4101072-14.9883334 6.1342857l-.6233333-2.0628572c4.6316549-3.8310971 10.540792-5.9491037 16.66-5.9714285h.9067664l-.0000997.8685714c.0182852 6.2265825-2.4794817 12.218356-6.97 16.72-4.603714 4.1720434-10.6641106 6.5524042-17 6.6771429h-1.3033334"/><path d="m25.5 4.04428571c-3.7848303 3.96564782-5.9654374 9.09665719-6.1483333 14.46714289.1711986 5.3809306 2.3529355 10.5242297 6.1483333 14.4942857 3.768323-3.9818412 5.928584-9.1218859 6.0916667-14.4942857-.167298-5.3634726-2.3274461-10.4936237-6.0916667-14.46714289zm0 31.62142859-.68-.5971429c-4.5657362-4.4197302-7.2002799-10.3410672-7.3666667-16.5571428.1412492-6.2026193 2.7571082-12.11782432 7.31-16.53000003l.7366667-.59714286.68.59714286c4.5865038 4.39767129 7.2339135 10.31541063 7.395 16.53000003-.1567627 6.2234461-2.8042774 12.1511377-7.395 16.5571428z"/></g></svg>