<svg id="_1" data-name="1" xmlns="http://www.w3.org/2000/svg" viewBox="0 0 400 31.81"><defs><style>.cls-1{fill:#9d9d9c}.cls-2{fill:none;isolation:isolate}.cls-3{fill:#7b7b7b}</style></defs><title>graphic-3</title><path class="cls-1" d="M235 28.1h165v1H235z" transform="translate(0 -.1)"/><path id="Rectangle_22_copy" data-name="Rectangle 22 copy" class="cls-1" d="M0 28.1h165v1H0z" transform="translate(0 -.1)"/><path class="cls-3" d="M186 25.89h-.43v.43a5.23 5.23 0 0 0 1.7 3.87 5.37 5.37 0 0 0 3.64 1.71h.67v-.43a5.23 5.23 0 0 0-1.7-3.87 5.23 5.23 0 0 0-3.88-1.71zm1.94 3.63a4.65 4.65 0 0 1-1.4-2.62 5.11 5.11 0 0 1 4 4 4.66 4.66 0 0 1-2.61-1.38zm26.49-4.64H214a5.24 5.24 0 0 0-3.88 1.7 5.23 5.23 0 0 0-1.7 3.88v.43h.67a5.37 5.37 0 0 0 3.64-1.71 5.23 5.23 0 0 0 1.7-3.87zm-2.37 3.6a4.67 4.67 0 0 1-2.62 1.4 5.06 5.06 0 0 1 4-4 4.66 4.66 0 0 1-1.4 2.61zM199.23.1l-.33.29c-2.87 2.5-4.65 7.11-4.66 12s1.78 9.55 4.66 12l.33.29.33-.29c2.87-2.5 4.66-7.12 4.66-12s-1.78-9.55-4.66-12zm-.5 22.81a16 16 0 0 1-3.48-10.48 16.06 16.06 0 0 1 3.48-10.48zm1-21a12.26 12.26 0 0 1 2 3.18l-2 2zm0 6.6l2.41-2.41a17.52 17.52 0 0 1 .8 3.06l-3.21 3.21zm0 5.27l3.38-3.38a19.4 19.4 0 0 1 .1 2 12.76 12.76 0 0 1-.09 1.86l-3.4 3.39zm0 5.27l3.17-3.17a14.5 14.5 0 0 1-3.17 7z" transform="translate(0 -.1)"/></svg>