<svg id="_1" data-name="1" xmlns="http://www.w3.org/2000/svg" viewBox="0 0 400 31.81"><defs><style>.cls-1{fill:#9d9d9c}.cls-2{fill:none;isolation:isolate}.cls-3{fill:#7b7b7b}</style></defs><title>graphic-4</title><path class="cls-1" d="M165 3.9H0v-1h165z" transform="translate(0 -.1)"/><path id="Rectangle_22_copy" data-name="Rectangle 22 copy" class="cls-1" d="M400 3.9H235v-1h165z" transform="translate(0 -.1)"/><path class="cls-3" d="M214 6.11h.43v-.43a5.23 5.23 0 0 0-1.7-3.87A5.37 5.37 0 0 0 209.09.1h-.67v.42a5.23 5.23 0 0 0 1.7 3.87A5.23 5.23 0 0 0 214 6.11zm-1.94-3.63a4.65 4.65 0 0 1 1.4 2.62 4.66 4.66 0 0 1-2.62-1.4 4.65 4.65 0 0 1-1.4-2.62 4.66 4.66 0 0 1 2.63 1.4zm-26.49 4.64h.43a5.24 5.24 0 0 0 3.88-1.7 5.23 5.23 0 0 0 1.7-3.88v-.43h-.67a5.37 5.37 0 0 0-3.64 1.71 5.23 5.23 0 0 0-1.7 3.87zm2.37-3.6a4.67 4.67 0 0 1 2.62-1.4 4.66 4.66 0 0 1-1.39 2.62 4.67 4.67 0 0 1-2.62 1.39 4.66 4.66 0 0 1 1.4-2.61zm12.83 28.38l.33-.29c2.87-2.5 4.65-7.11 4.66-12S204 10 201.1 7.52l-.33-.29-.33.29c-2.87 2.5-4.66 7.12-4.66 12s1.78 9.55 4.66 12zm.5-22.81a16 16 0 0 1 3.48 10.48 16.06 16.06 0 0 1-3.48 10.48zm-1 21a12.26 12.26 0 0 1-2-3.18l2-2zm0-6.6l-2.41 2.41a17.52 17.52 0 0 1-.8-3.06l3.21-3.21zm0-5.27l-3.38 3.38a19.4 19.4 0 0 1-.1-2 12.76 12.76 0 0 1 .09-1.86l3.4-3.39zm0-5.27l-3.17 3.17a14.5 14.5 0 0 1 3.17-7z" transform="translate(0 -.1)"/></svg>