<svg id="Слой_1" data-name="Слой 1" xmlns="http://www.w3.org/2000/svg" viewBox="0 0 354.48 314.26"><defs><style>.cls-1,.cls-3{fill:none;stroke-miterlimit:10;stroke-width:.75px}.cls-1{stroke:#e08e79}.cls-2{fill:#e08e79}.cls-3{stroke:#c5e0dc}.cls-4{fill:#c5e0dc}</style></defs><title>illustration-3</title><path class="cls-1" d="M131.27 106.44l135 226.62 135-226.62z" transform="translate(-47.45 -19.53)"/><path class="cls-2" d="M286.67 193.49c0 11.41-9.62 20.66-21.46 20.66s-21.5-9.26-21.5-20.66 9.62-20.66 21.5-20.66 21.46 9.24 21.46 20.66" transform="translate(-47.45 -19.53)"/><path class="cls-1" d="M217.74 172.51v-85.6"/><path class="cls-3" d="M213.11 158.75L130.62 20.26 48.11 158.75z" transform="translate(-47.45 -19.53)"/><path class="cls-4" d="M118.15 105.56a13.14 13.14 0 1 1 13.11 12.63 12.88 12.88 0 0 1-13.11-12.63" transform="translate(-47.45 -19.53)"/><path class="cls-3" d="M83.82 86.91v52.31"/></svg>