<!-- Generated by IcoMoon.io -->
<svg version="1.1" xmlns="http://www.w3.org/2000/svg" width="32" height="32" viewBox="0 0 32 32">
<title>flute</title>
<path d="M28.337 0.755l0.412-0.41c0.463-0.46 1.21-0.457 1.67 0.005l1.386 1.395c0.46 0.463 0.457 1.21-0.005 1.67l-0.412 0.41c-0.463 0.46-1.21 0.457-1.67-0.005l-1.386-1.395c-0.46-0.463-0.457-1.21 0.005-1.67zM27.468 2.807c-0.153-0.154-0.365-0.249-0.6-0.249s-0.446 0.095-0.6 0.249l-0 0-0.402 0.396c-0.154 0.153-0.249 0.366-0.249 0.6 0 0.066 0.007 0.129 0.022 0.191l-0.001-0.006-1.236 1.236-0.476 2.974 2.98-0.457 1.236-1.236c0.057 0.014 0.123 0.022 0.19 0.022 0.232 0 0.442-0.093 0.595-0.244l0.402-0.396c0.154-0.153 0.249-0.365 0.249-0.6s-0.095-0.446-0.249-0.6l-0-0zM23.573 6.034l-1.583 1.57c-1.758 0.308-3.126 1.67-3.44 3.399l-0.004 0.026-13.824 13.756c-0.841 0.835-0.816 1.669-1.546 2.411-0.283 0.335-0.704 0.546-1.173 0.546-0.101 0-0.2-0.010-0.295-0.028l0.010 0.002c-0.129-0.050-0.279-0.079-0.435-0.079-0.683 0-1.236 0.554-1.236 1.236 0 0.319 0.12 0.609 0.318 0.828l-0.001-0.001 0.198 0.198 1.725 1.737c0.214 0.181 0.492 0.291 0.797 0.291 0.683 0 1.236-0.554 1.236-1.236 0-0.144-0.025-0.282-0.070-0.411l0.003 0.009c-0.016-0.083-0.025-0.179-0.025-0.277 0-0.475 0.216-0.899 0.554-1.18l0.003-0.002c0.748-0.723 1.583-0.699 2.417-1.533l13.842-13.743c1.758-0.308 3.126-1.67 3.44-3.399l0.004-0.026 1.583-1.57-2.98 0.457zM7.178 25.818c-0.124 0.122-0.294 0.198-0.482 0.198-0.379 0-0.686-0.307-0.686-0.686s0.307-0.686 0.686-0.686c0.188 0 0.358 0.076 0.482 0.198l-0-0c0.126 0.125 0.204 0.297 0.204 0.488s-0.078 0.364-0.204 0.488l-0 0zM9.082 23.92c-0.124 0.122-0.294 0.198-0.482 0.198-0.379 0-0.686-0.307-0.686-0.686s0.307-0.686 0.686-0.686c0.188 0 0.358 0.076 0.482 0.198l-0-0c0.124 0.124 0.201 0.296 0.201 0.485s-0.077 0.361-0.201 0.485v0zM10.992 22.022c-0.125 0.126-0.299 0.204-0.491 0.204-0.382 0-0.692-0.31-0.692-0.692s0.31-0.692 0.692-0.692c0.192 0 0.365 0.078 0.491 0.204l0 0c0.125 0.125 0.202 0.298 0.202 0.488s-0.077 0.363-0.202 0.488l0-0zM12.909 20.124c-0.124 0.122-0.294 0.198-0.482 0.198-0.379 0-0.686-0.307-0.686-0.686s0.307-0.686 0.686-0.686c0.188 0 0.358 0.076 0.482 0.198l-0-0c0.126 0.125 0.204 0.297 0.204 0.488s-0.078 0.364-0.204 0.488l-0 0zM14.813 18.226c-0.124 0.124-0.296 0.201-0.485 0.201-0.379 0-0.686-0.307-0.686-0.686s0.307-0.686 0.686-0.686c0.189 0 0.361 0.077 0.485 0.201v0c0.122 0.124 0.198 0.294 0.198 0.482 0 0.191-0.078 0.364-0.204 0.488l-0 0zM16.723 16.328c-0.124 0.122-0.294 0.198-0.482 0.198-0.379 0-0.686-0.307-0.686-0.686s0.307-0.686 0.686-0.686c0.188 0 0.358 0.076 0.482 0.198l-0-0c0.124 0.124 0.201 0.296 0.201 0.485 0 0.196-0.082 0.372-0.213 0.497l-0 0zM18.628 14.43c-0.124 0.122-0.294 0.198-0.482 0.198-0.379 0-0.686-0.307-0.686-0.686s0.307-0.686 0.686-0.686c0.188 0 0.358 0.076 0.482 0.198l-0-0c0.125 0.125 0.202 0.298 0.202 0.488 0 0.194-0.080 0.369-0.208 0.494l-0 0z"></path>
</svg>
