<svg height="32" viewBox="0 0 35 32" width="35" xmlns="http://www.w3.org/2000/svg"><path d="m34.896 3.257-.454-1.913c-.058-.209-.211-.374-.408-.446l-.005-.001c-.044-.012-.094-.018-.145-.018s-.102.007-.149.019l.004-.001-.779-.204-.483.465c.001-.008.001-.017.001-.026s0-.018-.001-.027v.001c-.06-.084-.146-.146-.247-.174l-.003-.001c.025-.068.039-.146.039-.227 0-.155-.052-.299-.139-.414l.001.002c-.129-.185-.34-.304-.579-.304-.389 0-.704.315-.704.704 0 .177.065.338.173.462l-.001-.001c.128.149.316.244.527.244.029 0 .059-.002.087-.005h-.003c.008.151.098.279.224.342l.002.001-.983.942c-.06-.084-.146-.146-.247-.174l-.003-.001c.025-.068.039-.146.039-.227 0-.155-.052-.299-.139-.414l.001.002c-.13-.149-.32-.243-.532-.243-.389 0-.704.315-.704.704 0 .149.047.288.126.402l-.002-.002c.128.161.323.263.543.263.034 0 .068-.002.101-.007h-.004c.007.076.032.146.071.205l-.001-.002c.033.049.074.089.121.121l.002.001-1.053.995c-.058-.074-.138-.13-.229-.156l-.003-.001c.025-.068.039-.146.039-.227 0-.155-.052-.299-.139-.414l.001.002c-.129-.185-.34-.304-.579-.304-.389 0-.704.315-.704.704 0 .177.065.338.173.462l-.001-.001c.128.16.323.262.542.262.032 0 .064-.002.095-.006h-.004c.004.125.067.234.162.302l.001.001-1.204 1.163c-.054-.059-.122-.104-.2-.127l-.003-.001c.023-.066.037-.143.037-.222 0-.158-.053-.303-.143-.419l.001.002c-.129-.185-.34-.304-.579-.304-.389 0-.704.315-.704.704 0 .177.065.338.173.462l-.001-.001c.128.16.323.262.542.262.032 0 .064-.002.095-.006h-.004c.007.076.032.146.071.205l-.001-.002c.021.024.044.045.069.063l.001.001-.797.768c-.049-.047-.11-.083-.177-.104l-.003-.001c.023-.066.037-.143.037-.222 0-.158-.053-.303-.143-.419l.001.002c-.13-.149-.32-.243-.532-.243-.389 0-.704.315-.704.704 0 .149.047.288.126.402l-.002-.002c.128.16.323.262.542.262.032 0 .064-.002.095-.006h-.004c.007.076.032.146.071.205l-.001-.002c.014.017.03.032.046.046h.001l-11.684 11.295-.145.116c-.638.362-1.402.577-2.215.582h-.001c-1.029-.093-7.043-4.542-10.399.064-1.745 2.431-.314 5.31.768 6.52l1.512 1.809s-2.646-3.687.983-6.729c1.018-.849 2.341-1.365 3.784-1.365.077 0 .153.001.229.004h-.011c1.46-.029 3.013.616 4.217.361-.44.139-.945.22-1.47.22-.338 0-.668-.033-.988-.097l.032.005c-.489-.071-1.054-.112-1.629-.112s-1.139.041-1.692.119l.063-.007c-1.446.333-2.651 1.194-3.424 2.364l-.013.021c-.4.636-.637 1.41-.637 2.238 0 .468.076.918.215 1.339l-.009-.03c.38 1.124.951 2.093 1.683 2.917l-.008-.009c1.035 1.239 2.966 3.554 5.781 1.309 1.972-1.57 2.385-3.373 2.716-4.822.117-.881.438-1.671.912-2.343l-.011.016c1.059-1.233 12.51-12.365 18.03-17.716.102.063.225.1.357.1.379 0 .686-.307.686-.686 0-.124-.033-.241-.091-.342l.002.003.692-.669c.078.032.168.051.263.051.385 0 .698-.312.698-.698 0-.072-.011-.142-.031-.207l.001.005.361-.349zm-21.519 20.304c-.514.717-.87 1.581-.997 2.518l-.003.029c-.332 1.437-.704 3.065-2.518 4.507-1.995 1.588-3.344.75-5.002-1.233-.679-.763-1.214-1.669-1.554-2.667l-.016-.055c-.118-.344-.187-.741-.187-1.154 0-.717.206-1.385.562-1.949l-.009.015c.704-1.055 1.771-1.821 3.019-2.122l.034-.007c.467-.068 1.007-.106 1.556-.106s1.088.039 1.617.113l-.061-.007c1.111.105 2.065.192 2.908-.268.663-.361 4.356-3.897 10.358-9.672 4.374-4.211 8.893-8.567 10.545-9.945.157-.134.227-.128.227-.134.018.017.032.039.04.063v.001l.378 1.599-.268.256c-.071-.027-.153-.042-.238-.042-.382 0-.692.31-.692.692 0 .078.013.152.036.222l-.001-.005-.768.744c-.055-.016-.118-.025-.183-.025-.373 0-.675.302-.675.675 0 .059.007.115.021.17l-.001-.005c-5.502 5.328-17.035 16.523-18.111 17.797zm10.536-15.287c.122.128.118.33-.01.452s-.33.118-.452-.01-.118-.33.01-.452.33-.118.452.01zm-.855.816c.122.128.118.33-.01.452s-.33.118-.452-.01-.118-.33.01-.452.33-.118.452.01zm-.941.832c.122.127.118.329-.01.451s-.329.118-.451-.01c-.122-.127-.118-.329.01-.451s.329-.118.451.01zm-.754.797c.122.128.118.33-.01.452s-.33.118-.452-.01-.118-.33.01-.452.33-.118.452.01zm-1.499 1.435c.122.128.118.33-.01.452s-.33.118-.452-.01-.118-.33.01-.452.33-.118.452.01zm-.793.761c.122.128.118.33-.01.452s-.33.118-.452-.01-.118-.33.01-.452.33-.118.452.01zm-.792.756c.122.128.118.33-.01.452s-.33.118-.452-.01-.118-.33.01-.452.33-.118.452.01zm-.788.756c.122.128.118.33-.01.452s-.33.118-.452-.01-.118-.33.01-.452.33-.118.452.01zm-.792.755c.122.128.118.33-.01.452s-.33.118-.452-.01-.118-.33.01-.452.33-.118.452.01zm-.787.751c.122.127.118.33-.009.452s-.33.118-.452-.009-.118-.33.009-.452.33-.118.452.009zm-.789.763c.122.128.118.33-.01.452s-.33.118-.452-.01-.118-.33.01-.452.33-.118.452.01zm-8.062 9.122c-.063-.09-.166-.148-.282-.148-.073 0-.14.023-.196.061l.001-.001-.634.477c-.075.063-.122.157-.122.262 0 .082.028.156.076.215v-.001l1.623 2.164c.063.088.165.145.28.145.071 0 .137-.022.192-.059l-.001.001.657-.465c.075-.063.122-.157.122-.262 0-.082-.028-.156-.076-.215l.001.001zm.959.918c.034.048.089.078.152.078.039 0 .075-.012.105-.032h-.001l.343-.256c.033-.034.054-.08.054-.131s-.021-.097-.054-.131l-.884-1.163c-.034-.048-.089-.078-.152-.078-.039 0-.075.012-.105.032h.001l-.343.256c-.033.034-.054.08-.054.131s.021.097.054.131z"/></svg>