<svg height="32" viewBox="0 0 49 32" width="49" xmlns="http://www.w3.org/2000/svg"><path d="m48.805 22.347c-.095-1.343-.566-2.559-1.307-3.565l.013.019c0-.128 0-.257.051-.394.146-2.492-3.203-10.621-4.154-12.848.186-.343.296-.751.296-1.184 0-.187-.02-.37-.059-.545l.003.017c-.037-.155-.084-.289-.143-.417l.006.014c-.003-.156-.022-.307-.054-.452l.003.015c-.351-1.567-2.295-2.57-5.071-2.57-1.031.004-2.032.125-2.993.352l.089-.018c-3.983.908-6.732 3.289-6.244 5.422.04.143.086.265.143.382l-.006-.013c0 .167.019.33.054.486l-.003-.015c.16.626.534 1.147 1.036 1.493l.009.006c.085 3.737.372 7.314.851 10.83l-.055-.492c-.899 1.165-1.44 2.645-1.44 4.253 0 .131.004.261.011.391l-.001-.018c.257 4.111 4.283 7.323 9.251 7.323h.72c2.525-.125 4.795-1.124 6.536-2.698l-.009.008c1.52-1.338 2.474-3.288 2.474-5.461 0-.113-.003-.225-.008-.337zm-17.918 1.105c0-.069 0-.128 0-.188l1.345-1.122c.06.094.128.188.197.274l-1.516 1.268c0-.077-.017-.154-.026-.231zm2.261-.274c.086.077.188.137.283.206l-2.15 1.799c-.043-.111-.086-.223-.128-.334zm-1.371 2.998 2.621-2.193.334.163-2.767 2.313zm2.75-.489-.051 2.981-.325-.188.043-2.518zm1.062-.856.3-.257h.043l-.086 4.728-.343-.128zm1.387 0 .36.051v1.936l-.086 2.784-.36-.069zm1.319 4.805.274.24h-.274zm0-1.379v-.514l2.304 2.03-.522.06zm0-1.893v-.514l3.974 3.512-.437.128zm.566-1.422h.557l4.325 3.82-.377.188zm2.013-.231.565-.248-.043.608-.505-.454h.086zm3.229 2.946-.411-.36.317-4.034.463-.308zm-1.396-1.233-.42-.368.146-1.876.463-.214zm2.475.908.283.214-.317.274zm.094-1.242.051-.702 1.233.934c-.111.163-.24.308-.368.463zm.146-1.944.051-.702 1.961 1.319q-.103.283-.24.557zm.111-1.97q.223-.206.42-.42l1.756 1.328c-.01.251-.034.487-.073.718l.005-.033zm1.079-1.242c.145-.207.288-.446.413-.694l.015-.034c.233.424.422.916.541 1.435l.007.039zm-10.886-19.118c.802-.192 1.723-.305 2.67-.308h.003c2.184 0 3.812.694 4.043 1.713.308 1.345-1.816 3.34-5.456 4.171-.802.193-1.723.305-2.67.308h-.002c-2.184 0-3.812-.694-4.043-1.713-.308-1.353 1.816-3.349 5.456-4.171zm-1.225 7.777c1.031-.003 2.032-.125 2.993-.352l-.089.018c1.784-.377 3.352-1.121 4.686-2.152l-.026.02c.227-.187.431-.381.621-.587l.004-.004c1.43 3.426 3.931 9.901 3.82 11.812-.137 2.355-3.152 4.608-5.91 5.276s-6.467-.137-7.606-2.21c-.916-1.67-1.328-8.565-1.456-12.308.839.31 1.809.489 2.82.489.05 0 .101 0 .151-.001h-.008zm-2.732 11.563-.711.591c.128-.508.301-.953.521-1.369l-.016.033c.077.274.137.522.214.745zm.856 6.073.497-.411v.857q-.248-.214-.488-.445zm6.945-23.58c.204.9-1.088 1.96-2.887 2.369s-3.423.011-3.627-.889 1.088-1.96 2.887-2.369 3.423-.011 3.627.889zm-14.062 2.715c.069-1.636-1.071-3.186-3.221-4.385-2.24-1.175-4.883-1.893-7.687-1.961h-.022-.976c-5.824 0-10.321 2.313-10.458 5.379v.12c-.625 1.045-4.197 7.358-2.861 11.76.412 1.311 1.013 2.45 1.784 3.452l-.019-.026c-.511.898-.813 1.973-.813 3.118 0 .108.003.216.008.323l-.001-.015c.274 4.48 5.396 7.863 11.906 7.863h1.148c6.904-.428 12.274-4.634 11.991-9.379-.044-.627-.176-1.21-.382-1.755l.014.042c.537-.704 1.012-1.504 1.392-2.356l.03-.076c1.987-4.403-1.439-11.289-1.842-12.069 0-.009 0-.017.009-.034zm-11.898-5.319h.925c2.643.075 5.111.751 7.296 1.894l-.092-.044c1.782.994 2.741 2.21 2.681 3.426-.111 2.45-4.283 4.377-9.422 4.377h-.925c-5.49-.24-10.03-2.647-9.919-5.251.154-2.484 4.291-4.403 9.456-4.403zm-8.702 22.381-2.381 1.782c-.111-.334-.19-.721-.222-1.122l-.001-.017c-.004-.079-.007-.172-.007-.265 0-.809.183-1.575.509-2.259l-.014.032c.63.684 1.323 1.292 2.075 1.823l.041.027zm17.353.625.163 2.63-2.227-1.593c.806-.329 1.485-.674 2.132-1.066l-.067.038zm.189 3.94c-.982.77-2.116 1.41-3.339 1.865l-.087.028.463-4.009zm-4.394 1.345-2.415-3.118c1.066-.114 2.031-.307 2.963-.578l-.119.03zm-5.14.497-2.236-3.914c.807.19 1.757.327 2.729.383l.046.002h.471zm-.599 1.088c-1.559-.086-3.02-.393-4.389-.89l.106.034 1.645-3.829zm-4.711-2.476-1.285-4.137c.723.4 1.572.776 2.455 1.079l.115.034zm-4.668-2.269 2.338-1.713 1.593 5.139c-1.662-.719-3.009-1.904-3.91-3.389zm11.298 4.702h-.591l1.242-3.974 2.698 3.478c-.981.27-2.126.459-3.303.529l-.046.002zm9.259-3.846-.206-3.289 1.833.266c-.277 1.184-.847 2.208-1.63 3.026l.002-.002zm1.713-4.385v.317l-1.199-.171c.383-.323.729-.65 1.057-.996l.006-.006c.076.248.137.542.169.843l.002.022zm1.147-4.608c-2.355 5.208-8.171 7.375-12.848 7.212-4.899-.266-10.57-2.938-12.206-8.308-.925-3.041.857-7.323 2.021-9.559.968 2.707 5.285 4.831 10.707 5.088h.976c5.062 0 9.122-1.713 10.184-4.214.976 2.287 2.544 6.784 1.191 9.782zm-11.829-15.724c3.11.138 5.575 1.51 5.506 3.065s-2.646 2.703-5.755 2.565c-3.11-.138-5.575-1.51-5.506-3.065s2.646-2.703 5.755-2.565zm-4.496 27.552c.308-.022.549-.278.549-.59 0-.013 0-.025-.001-.037v.002c-.019-.311-.276-.557-.59-.557h-.001c-.326 0-.591.265-.591.591s.265.591.591.591zm5.388-.848c-.308.022-.549.278-.549.59 0 .013 0 .025.001.037v-.002c.019.311.276.557.59.557h.001c.294-.037.52-.285.52-.587s-.226-.55-.517-.586h-.003zm-10.81-2.843c-.294.037-.52.285-.52.587s.226.55.517.586h.003c.294-.037.52-.285.52-.587s-.226-.55-.517-.586zm15.752 2.338c.294-.037.52-.285.52-.587s-.226-.55-.517-.586h-.003c-.308.022-.549.278-.549.59 0 .013 0 .025.001.037v-.002c.021.294.254.527.546.548zm3.82-4.394c-.294.037-.52.285-.52.587s.226.55.517.586h.003c.161-.011.302-.085.402-.196v-.001c.091-.102.147-.238.147-.387 0-.015-.001-.029-.002-.043v.002c-.021-.294-.254-.527-.546-.548h-.002z"/></svg>