<svg height="32" viewBox="0 0 24 32" width="24" xmlns="http://www.w3.org/2000/svg"><path d="m23.557 25.595c-1.475-3.028-4.248-3.656-6.843-3.638.722-1.053 1.354-2.259 1.839-3.537l.039-.118c1.357-4.177 1.232-8.964 1.185-10.143 0-.089 0-.178 0-.278 0-.004 0-.009 0-.014 0-4.329-3.509-7.839-7.839-7.839-.884 0-1.733.146-2.526.416l.055-.016-.071-.059s0 .053 0 .077c-3.125 1.081-5.33 3.998-5.332 7.429v14.427c-1.756.471-3.166 1.673-3.907 3.252l-.015.037-.142.29 11.85 6.12 11.85-6.12zm-5.925-14.462c-.468 3.353-1.185 8.413-5.492 8.455-1.896 0-3.318-.948-4.355-2.856-.802-1.63-1.364-3.525-1.581-5.523l-.007-.076c-.027-.178-.042-.383-.042-.592s.015-.414.045-.615l-.003.023c1.665-.19 3.822-1.641 5.558-3.922 1.849 2.429 4.177 3.928 5.877 3.946.03.194.048.417.048.644 0 .18-.011.358-.032.532l.002-.021zm-5.516 14.385-4.147-1.997c.318-.229.594-.451.858-.685l-.011.01c.675-.592.782-1.896.77-2.82 0-.154 0-.302 0-.433.721.405 1.583.644 2.5.646h.095c.742-.005 1.444-.171 2.075-.463l-.031.013v.201c0 .924.089 2.263.77 2.856.273.227.576.453.891.663l.039.025zm-.266 5.741-10.961-5.664c1.493-2.725 4.242-3.093 6.808-2.962-.427.302-.8.527-.806.533l-.521.32h.03v.231l-.184.261c-.231.332-.995 1.457-.995 2.032 0 .7.568 1.268 1.268 1.268s1.268-.568 1.268-1.268c0-.592-.764-1.706-.995-2.032l-.107-.148 5.202 2.5c-.249.355-.978 1.44-.978 2.009 0 .7.568 1.268 1.268 1.268s1.268-.568 1.268-1.268c0-.592-.747-1.677-.989-2.02l4.805-2.447-.119.166c-.231.332-.995 1.457-.995 2.032 0 .7.568 1.268 1.268 1.268s1.268-.568 1.268-1.268c0-.592-.764-1.706-.995-2.032l-.19-.273v-.225h.036l-.504-.308s-.35-.213-.764-.504l.036-.041c2.494-.095 5.113.332 6.559 2.962zm2.98-19.018c-.294-.04-.55-.182-.734-.39l-.001-.001-.261.207.261-.201-.539.403c.293.346.707.581 1.176.639l.009.001h.166c.546-.023 1.037-.245 1.405-.593l-.001.001-.415-.521c-.268.281-.646.456-1.064.456-.001 0-.002 0-.002 0zm-5.789 0c-.003 0-.007 0-.011 0-.418 0-.794-.175-1.061-.456l-.001-.001-.433.504c.367.348.858.57 1.4.592h.004.166c.478-.059.892-.294 1.183-.637l.002-.003-.521-.409c-.181.214-.434.363-.722.408l-.007.001zm3.377 4.123c-.21.022-.388.141-.49.311l-.002.003c-.102-.172-.278-.292-.483-.314h-.003c-.399.035-.735.276-.904.616l-.003.006c.271.505.795.842 1.398.842s1.127-.337 1.394-.834l.004-.008c-.172-.347-.511-.589-.908-.622h-.004zm-8.304 8.666c.014.206-.142.384-.347.397s-.384-.142-.397-.347c-.014-.206.142-.384.347-.397s.384.142.397.347zm16.378.001c.014.206-.141.384-.347.398s-.384-.141-.398-.347.141-.384.347-.398.384.141.398.347zm-4.934 2.806c.014.206-.141.385-.347.399s-.385-.141-.399-.347.141-.385.347-.399.385.141.399.347zm-6.023 0c.014.206-.141.384-.347.398s-.384-.141-.398-.347.141-.384.347-.398.384.141.398.347z"/></svg>