<!-- Generated by IcoMoon.io -->
<svg version="1.1" xmlns="http://www.w3.org/2000/svg" width="24" height="32" viewBox="0 0 24 32">
<title>voice</title>
<path d="M23.557 25.595c-1.475-3.028-4.248-3.656-6.843-3.638 0.722-1.053 1.354-2.259 1.839-3.537l0.039-0.118c1.357-4.177 1.232-8.964 1.185-10.143 0-0.089 0-0.178 0-0.278 0-0.004 0-0.009 0-0.014 0-4.329-3.509-7.839-7.839-7.839-0.884 0-1.733 0.146-2.526 0.416l0.055-0.016-0.071-0.059s0 0.053 0 0.077c-3.125 1.081-5.33 3.998-5.332 7.429v14.427c-1.756 0.471-3.166 1.673-3.907 3.252l-0.015 0.037-0.142 0.29 11.85 6.12 11.85-6.12zM17.632 11.133c-0.468 3.353-1.185 8.413-5.492 8.455-1.896 0-3.318-0.948-4.355-2.856-0.802-1.63-1.364-3.525-1.581-5.523l-0.007-0.076c-0.027-0.178-0.042-0.383-0.042-0.592s0.015-0.414 0.045-0.615l-0.003 0.023c1.665-0.19 3.822-1.641 5.558-3.922 1.849 2.429 4.177 3.928 5.877 3.946 0.030 0.194 0.048 0.417 0.048 0.644 0 0.18-0.011 0.358-0.032 0.532l0.002-0.021zM12.116 25.518l-4.147-1.997c0.318-0.229 0.594-0.451 0.858-0.685l-0.011 0.010c0.675-0.592 0.782-1.896 0.77-2.82 0-0.154 0-0.302 0-0.433 0.721 0.405 1.583 0.644 2.5 0.646h0.095c0.742-0.005 1.444-0.171 2.075-0.463l-0.031 0.013c0 0.065 0 0.13 0 0.201 0 0.924 0.089 2.263 0.77 2.856 0.273 0.227 0.576 0.453 0.891 0.663l0.039 0.025zM11.85 31.259l-10.961-5.664c1.493-2.725 4.242-3.093 6.808-2.962-0.427 0.302-0.8 0.527-0.806 0.533l-0.521 0.32h0.030v0.231l-0.184 0.261c-0.231 0.332-0.995 1.457-0.995 2.032 0 0.7 0.568 1.268 1.268 1.268s1.268-0.568 1.268-1.268v0c0-0.592-0.764-1.706-0.995-2.032l-0.107-0.148 5.202 2.5c-0.249 0.355-0.978 1.44-0.978 2.009 0 0.7 0.568 1.268 1.268 1.268s1.268-0.568 1.268-1.268v0c0-0.592-0.747-1.677-0.989-2.020l4.805-2.447-0.119 0.166c-0.231 0.332-0.995 1.457-0.995 2.032 0 0.7 0.568 1.268 1.268 1.268s1.268-0.568 1.268-1.268v0c0-0.592-0.764-1.706-0.995-2.032l-0.19-0.273v-0.225h0.036l-0.504-0.308s-0.35-0.213-0.764-0.504l0.036-0.041c2.494-0.095 5.113 0.332 6.559 2.962zM14.83 12.241c-0.294-0.040-0.55-0.182-0.734-0.39l-0.001-0.001-0.261 0.207 0.261-0.201-0.539 0.403c0.293 0.346 0.707 0.581 1.176 0.639l0.009 0.001h0.166c0.546-0.023 1.037-0.245 1.405-0.593l-0.001 0.001-0.415-0.521c-0.268 0.281-0.646 0.456-1.064 0.456-0.001 0-0.002 0-0.002 0h0zM9.041 12.241c-0.003 0-0.007 0-0.011 0-0.418 0-0.794-0.175-1.061-0.456l-0.001-0.001-0.433 0.504c0.367 0.348 0.858 0.57 1.4 0.592l0.004 0h0.166c0.478-0.059 0.892-0.294 1.183-0.637l0.002-0.003-0.521-0.409c-0.181 0.214-0.434 0.363-0.722 0.408l-0.007 0.001zM12.418 16.364c-0.21 0.022-0.388 0.141-0.49 0.311l-0.002 0.003c-0.102-0.172-0.278-0.292-0.483-0.314l-0.003-0c-0.399 0.035-0.735 0.276-0.904 0.616l-0.003 0.006c0.271 0.505 0.795 0.842 1.398 0.842s1.127-0.337 1.394-0.834l0.004-0.008c-0.172-0.347-0.511-0.589-0.908-0.622l-0.004-0zM4.114 25.030c0.014 0.206-0.142 0.384-0.347 0.397s-0.384-0.142-0.397-0.347c-0.014-0.206 0.142-0.384 0.347-0.397s0.384 0.142 0.397 0.347zM20.492 25.031c0.014 0.206-0.141 0.384-0.347 0.398s-0.384-0.141-0.398-0.347c-0.014-0.206 0.141-0.384 0.347-0.398s0.384 0.141 0.398 0.347zM15.558 27.837c0.014 0.206-0.141 0.385-0.347 0.399s-0.385-0.141-0.399-0.347c-0.014-0.206 0.141-0.385 0.347-0.399s0.385 0.141 0.399 0.347zM9.535 27.837c0.014 0.206-0.141 0.384-0.347 0.398s-0.384-0.141-0.398-0.347c-0.014-0.206 0.141-0.384 0.347-0.398s0.384 0.141 0.398 0.347z"></path>
</svg>
