<svg id="Слой_1" data-name="Слой 1" xmlns="http://www.w3.org/2000/svg" viewBox="0 0 64 42.42"><defs><style>.cls-1{fill:#fff}</style></defs><title>logo-we-meditade</title><path class="cls-1" d="M24.95 6.67v-.68h-.6A9.67 9.67 0 0 0 19 7.54a9.48 9.48 0 0 0-2.64-5L15.85 2l-.5.46a9.66 9.66 0 0 0-2.64 5A9.73 9.73 0 0 0 7.46 6h-.68v.68a9.41 9.41 0 0 0 2.61 6.51 9.48 9.48 0 0 0 6.4 2.61h.18a9.48 9.48 0 0 0 6.4-2.61 9.4 9.4 0 0 0 2.58-6.52zm-9.1-2.53A7.84 7.84 0 0 1 17.65 9a7.85 7.85 0 0 1-1.8 4.82A7.81 7.81 0 0 1 14.06 9a7.82 7.82 0 0 1 1.79-4.86zM8.26 7.47a7.91 7.91 0 0 1 4.34 1.84 9.18 9.18 0 0 0 1.71 4.86 7.54 7.54 0 0 1-3.91-2 7.84 7.84 0 0 1-2.14-4.7zm13 4.68a7.54 7.54 0 0 1-3.92 2 9.21 9.21 0 0 0 1.76-4.84 7.91 7.91 0 0 1 4.34-1.84 7.85 7.85 0 0 1-2.14 4.68zm-10.67 8.99l2 5.42.16.42.15.42q.05.23.12.43t.12.42l.13-.38q.06-.19.11-.4a.12.12 0 0 0 0-.05v-.07l.14-.45q.07-.22.16-.45l2.16-5.71 2.25 5.83q.17.42.32.84t.27.87l.14-.52.14-.5q.05-.17.11-.34t.11-.34l2-5.44H23l-4.14 11.11-2.44-6.09-.14-.37-.14-.37q-.05-.19-.12-.37t-.12-.37l-.24.75q-.12.37-.28.77L13 32.25 8.87 21.14zm18.99 5.18A5.39 5.39 0 0 1 30 28.5v.14h-5.53a3 3 0 0 0 .41 1.28 1.66 1.66 0 0 0 1.13.73h.49a2 2 0 0 0 1.21-.41 3.63 3.63 0 0 0 .9-1l1.32.74a4.55 4.55 0 0 1-1.42 1.52 3.59 3.59 0 0 1-2 .52h-.35A3.39 3.39 0 0 1 23.73 31a3.66 3.66 0 0 1-.9-2.47v-.5a.15.15 0 0 0 0-.07v-.07a.73.73 0 0 0 0-.1.67.67 0 0 0 0-.1 3.4 3.4 0 0 1 1.25-2.2 3.6 3.6 0 0 1 2.3-.81 4.13 4.13 0 0 1 .53 0 4.82 4.82 0 0 1 .55.1l.18.06.18.06a2.66 2.66 0 0 1 1.76 1.42zm-1.81.07A2 2 0 0 0 26.5 26a1.82 1.82 0 0 0-1.25.4 2.3 2.3 0 0 0-.66 1.11h3.76a1.75 1.75 0 0 0-.58-1.12zM11 44.2v-6.84h1.5v1.11l.09-.11.08-.11a3.55 3.55 0 0 1 .95-.84 2.59 2.59 0 0 1 1.26-.31h.17a2.19 2.19 0 0 1 1.24.33 2.44 2.44 0 0 1 .83 1 4.13 4.13 0 0 1 1.13-1 2.69 2.69 0 0 1 1.39-.36h.72a1.61 1.61 0 0 1 1.31.92A4.35 4.35 0 0 1 22 39.6v4.6h-1.61v-4.12a1.7 1.7 0 0 0 0-.24 3.7 3.7 0 0 0-.12-.61 1.11 1.11 0 0 0-.28-.49.64.64 0 0 0-.27-.18l-.34-.09h-.78a1.26 1.26 0 0 0-1 .8 4.35 4.35 0 0 0-.23 1.33v3.6h-1.6v-3.88a3.76 3.76 0 0 0-.33-1.32 1.07 1.07 0 0 0-1.11-.59h-.1a1.3 1.3 0 0 0-1.23.69 3.47 3.47 0 0 0-.34 1.36 2.79 2.79 0 0 0 0 .31v3.43zm19.18-5.46a5.3 5.3 0 0 1 .43 2.15V41h-5.52a2.92 2.92 0 0 0 .41 1.27 1.65 1.65 0 0 0 1.13.72h.48a2 2 0 0 0 1.21-.4 3.59 3.59 0 0 0 .9-1l1.31.74a4.5 4.5 0 0 1-1.41 1.51 3.6 3.6 0 0 1-2 .51h-.34a3.38 3.38 0 0 1-2.45-1.14 3.6 3.6 0 0 1-.9-2.44v-.5a.16.16 0 0 0 0-.07v-.07a.62.62 0 0 0 0-.21 3.35 3.35 0 0 1 1.24-2.17 3.6 3.6 0 0 1 2.29-.8 4.14 4.14 0 0 1 .53 0 4.84 4.84 0 0 1 .54.1l.18.06.18.06a2.64 2.64 0 0 1 1.79 1.57zm-1.8.07a2 2 0 0 0-1.27-.37 1.82 1.82 0 0 0-1.24.39 2.27 2.27 0 0 0-.66 1.09H29a1.73 1.73 0 0 0-.63-1.11zM39 33v11.2h-1.54v-.89a2.88 2.88 0 0 1-1 .85 2.85 2.85 0 0 1-1.3.28h-.09a2.71 2.71 0 0 1-2.17-1 3.89 3.89 0 0 1-.84-2.27v-.32a3.71 3.71 0 0 1 .85-2.63 3.13 3.13 0 0 1 1.89-1.05h.38a2.75 2.75 0 0 1 1.34.35 2.19 2.19 0 0 1 .95 1V33zm-3.46 5.52a1.67 1.67 0 0 0-1.28.51 2.2 2.2 0 0 0-.57 1.32.94.94 0 0 1 0 .12 1.06 1.06 0 0 0 0 .14v.15a.93.93 0 0 0 0 .12 2.24 2.24 0 0 0 .57 1.65 1.81 1.81 0 0 0 1.26.59h.19a2 2 0 0 0 1.24-.68 2.42 2.42 0 0 0 .57-1.72 3 3 0 0 0-.36-1.45 1.5 1.5 0 0 0-1.22-.76zm6.98-3.35a.84.84 0 0 1-.7.29.82.82 0 0 1-.69-.29 1 1 0 0 1-.22-.65v-.09a1.12 1.12 0 0 1 .26-.6.8.8 0 0 1 .66-.27.82.82 0 0 1 .66.27 1.09 1.09 0 0 1 .27.6v.09a1 1 0 0 1-.24.65zM41 37.36h1.57v6.84H41zm4.44 1.35H44.2v-1.35h1.24v-2.62H47v2.62h1.2v1.35H47v5.49h-1.56zm11.29-1.35v6.84h-1.6v-.89a2.88 2.88 0 0 1-1 .85 2.85 2.85 0 0 1-1.3.28h-.07a2.73 2.73 0 0 1-2.19-1 3.89 3.89 0 0 1-.84-2.27v-.32a3.71 3.71 0 0 1 .85-2.63 3.13 3.13 0 0 1 1.89-1.05h.38a2.75 2.75 0 0 1 1.34.35 2.18 2.18 0 0 1 .95 1v-1.16zm-1.9 1.92a1.52 1.52 0 0 0-1.23-.76h-.33A1.67 1.67 0 0 0 52 39a2.2 2.2 0 0 0-.57 1.32.94.94 0 0 1 0 .12v.28a.76.76 0 0 0 0 .11 2.18 2.18 0 0 0 .56 1.62 1.8 1.8 0 0 0 1.23.56h.24a2 2 0 0 0 1.24-.66 2.33 2.33 0 0 0 .57-1.68 2.9 2.9 0 0 0-.45-1.38zm4.77-.57h-1.24v-1.35h1.24v-2.62h1.55v2.62h1.21v1.35h-1.21v5.49H59.6zm10.72.03a5.3 5.3 0 0 1 .43 2.15V41h-5.51a2.92 2.92 0 0 0 .4 1.27 1.65 1.65 0 0 0 1.13.72L67 43h.22a2 2 0 0 0 1.21-.4 3.59 3.59 0 0 0 .9-1l1.31.74a4.51 4.51 0 0 1-1.41 1.51 3.6 3.6 0 0 1-2 .51h-.34a3.38 3.38 0 0 1-2.45-1.14 3.6 3.6 0 0 1-.9-2.44v-.5a.16.16 0 0 0 0-.07v-.07a.71.71 0 0 0 0-.1.6.6 0 0 0 0-.1 3.35 3.35 0 0 1 1.24-2.17 3.6 3.6 0 0 1 2.29-.8 4.14 4.14 0 0 1 .53 0 4.85 4.85 0 0 1 .54.1l.18.06.18.06a2.64 2.64 0 0 1 1.82 1.55zm-1.8.07a2 2 0 0 0-1.27-.37 1.82 1.82 0 0 0-1.24.39 2.27 2.27 0 0 0-.65 1.09h3.74a1.72 1.72 0 0 0-.58-1.11z" transform="translate(-6.75 -2.04)"/></svg>