<svg id="появление_текста" data-name="появление текста" xmlns="http://www.w3.org/2000/svg" viewBox="0 0 67.6 49.68"><defs><style>.logo-cls-1{fill:#555;}</style></defs><title>lotos</title><path class="logo-cls-1" d="M33.93,49.42,33.54,49l-.78-.75a33.19,33.19,0,0,1-9.7-23.59c0-.3,0-.6,0-.9A33.08,33.08,0,0,1,33.54.37l.4-.37.4.37a33.15,33.15,0,0,1,10.45,23.2c0,.37,0,.75,0,1.14a33.19,33.19,0,0,1-10,23.86l-.18.17-.33.32Zm0-47.82a31.93,31.93,0,0,0-9.71,22.23c0,.3,0,.59,0,.88a32,32,0,0,0,9.37,22.77l.35.35.09-.09a32,32,0,0,0,9.62-23c0-.37,0-.73,0-1.09A32,32,0,0,0,33.94,1.6Z"/><path class="logo-cls-1" d="M33.81,49.68h-.64l0-1.16H34.4A32,32,0,0,0,57,39.05a32.33,32.33,0,0,0,9.47-23.21A32.09,32.09,0,0,0,44.6,24l-.77-.87A33.22,33.22,0,0,1,67,14.7l.55,0,0,.54a33.47,33.47,0,0,1-9.79,24.61,33.16,33.16,0,0,1-23.37,9.8Z"/><path class="logo-cls-1" d="M33.81,49.68h-.64a33.14,33.14,0,0,1-23.35-9.8A33.51,33.51,0,0,1,0,15.26l0-.55.55,0A33.26,33.26,0,0,1,24,23.39l-.78.86A32,32,0,0,0,1.61,15.84H1.16a32.36,32.36,0,0,0,9.47,23.21,32,32,0,0,0,22.56,9.46h1.2l0,1.16Z"/></svg>