<!-- Generated by IcoMoon.io -->
<svg version="1.1" xmlns="http://www.w3.org/2000/svg" width="35" height="32" viewBox="0 0 35 32">
<title>sitar</title>
<path d="M34.896 3.257l-0.454-1.913c-0.058-0.209-0.211-0.374-0.408-0.446l-0.005-0.001c-0.044-0.012-0.094-0.018-0.145-0.018s-0.102 0.007-0.149 0.019l0.004-0.001-0.779-0.204-0.483 0.465c0.001-0.008 0.001-0.017 0.001-0.026s-0-0.018-0.001-0.027l0 0.001c-0.060-0.084-0.146-0.146-0.247-0.174l-0.003-0.001c0.025-0.068 0.039-0.146 0.039-0.227 0-0.155-0.052-0.299-0.139-0.414l0.001 0.002c-0.129-0.185-0.34-0.304-0.579-0.304-0.389 0-0.704 0.315-0.704 0.704 0 0.177 0.065 0.338 0.173 0.462l-0.001-0.001c0.128 0.149 0.316 0.244 0.527 0.244 0.029 0 0.059-0.002 0.087-0.005l-0.003 0c0.008 0.151 0.098 0.279 0.224 0.342l0.002 0.001-0.983 0.942c-0.060-0.084-0.146-0.146-0.247-0.174l-0.003-0.001c0.025-0.068 0.039-0.146 0.039-0.227 0-0.155-0.052-0.299-0.139-0.414l0.001 0.002c-0.13-0.149-0.32-0.243-0.532-0.243-0.389 0-0.704 0.315-0.704 0.704 0 0.149 0.047 0.288 0.126 0.402l-0.002-0.002c0.128 0.161 0.323 0.263 0.543 0.263 0.034 0 0.068-0.002 0.101-0.007l-0.004 0c0.007 0.076 0.032 0.146 0.071 0.205l-0.001-0.002c0.033 0.049 0.074 0.089 0.121 0.121l0.002 0.001-1.053 0.995c-0.058-0.074-0.138-0.13-0.229-0.156l-0.003-0.001c0.025-0.068 0.039-0.146 0.039-0.227 0-0.155-0.052-0.299-0.139-0.414l0.001 0.002c-0.129-0.185-0.34-0.304-0.579-0.304-0.389 0-0.704 0.315-0.704 0.704 0 0.177 0.065 0.338 0.173 0.462l-0.001-0.001c0.128 0.16 0.323 0.262 0.542 0.262 0.032 0 0.064-0.002 0.095-0.006l-0.004 0c0.004 0.125 0.067 0.234 0.162 0.302l0.001 0.001-1.204 1.163c-0.054-0.059-0.122-0.104-0.2-0.127l-0.003-0.001c0.023-0.066 0.037-0.143 0.037-0.222 0-0.158-0.053-0.303-0.143-0.419l0.001 0.002c-0.129-0.185-0.34-0.304-0.579-0.304-0.389 0-0.704 0.315-0.704 0.704 0 0.177 0.065 0.338 0.173 0.462l-0.001-0.001c0.128 0.16 0.323 0.262 0.542 0.262 0.032 0 0.064-0.002 0.095-0.006l-0.004 0c0.007 0.076 0.032 0.146 0.071 0.205l-0.001-0.002c0.021 0.024 0.044 0.045 0.069 0.063l0.001 0.001-0.797 0.768c-0.049-0.047-0.11-0.083-0.177-0.104l-0.003-0.001c0.023-0.066 0.037-0.143 0.037-0.222 0-0.158-0.053-0.303-0.143-0.419l0.001 0.002c-0.13-0.149-0.32-0.243-0.532-0.243-0.389 0-0.704 0.315-0.704 0.704 0 0.149 0.047 0.288 0.126 0.402l-0.002-0.002c0.128 0.16 0.323 0.262 0.542 0.262 0.032 0 0.064-0.002 0.095-0.006l-0.004 0c0.007 0.076 0.032 0.146 0.071 0.205l-0.001-0.002c0.014 0.017 0.030 0.032 0.046 0.046l0.001 0-11.684 11.295-0.145 0.116c-0.638 0.362-1.402 0.577-2.215 0.582h-0.001c-1.029-0.093-7.043-4.542-10.399 0.064-1.745 2.431-0.314 5.31 0.768 6.52l1.512 1.809s-2.646-3.687 0.983-6.729c1.018-0.849 2.341-1.365 3.784-1.365 0.077 0 0.153 0.001 0.229 0.004l-0.011-0c1.46-0.029 3.013 0.616 4.217 0.361-0.44 0.139-0.945 0.22-1.47 0.22-0.338 0-0.668-0.033-0.988-0.097l0.032 0.005c-0.489-0.071-1.054-0.112-1.629-0.112s-1.139 0.041-1.692 0.119l0.063-0.007c-1.446 0.333-2.651 1.194-3.424 2.364l-0.013 0.021c-0.4 0.636-0.637 1.41-0.637 2.238 0 0.468 0.076 0.918 0.215 1.339l-0.009-0.030c0.38 1.124 0.951 2.093 1.683 2.917l-0.008-0.009c1.035 1.239 2.966 3.554 5.781 1.309 1.972-1.57 2.385-3.373 2.716-4.822 0.117-0.881 0.438-1.671 0.912-2.343l-0.011 0.016c1.059-1.233 12.51-12.365 18.030-17.716 0.102 0.063 0.225 0.1 0.357 0.1 0.379 0 0.686-0.307 0.686-0.686 0-0.124-0.033-0.241-0.091-0.342l0.002 0.003 0.692-0.669c0.078 0.032 0.168 0.051 0.263 0.051 0.385 0 0.698-0.312 0.698-0.698 0-0.072-0.011-0.142-0.031-0.207l0.001 0.005 0.361-0.349zM13.377 23.561c-0.514 0.717-0.87 1.581-0.997 2.518l-0.003 0.029c-0.332 1.437-0.704 3.065-2.518 4.507-1.995 1.588-3.344 0.75-5.002-1.233-0.679-0.763-1.214-1.669-1.554-2.667l-0.016-0.055c-0.118-0.344-0.187-0.741-0.187-1.154 0-0.717 0.206-1.385 0.562-1.949l-0.009 0.015c0.704-1.055 1.771-1.821 3.019-2.122l0.034-0.007c0.467-0.068 1.007-0.106 1.556-0.106s1.088 0.039 1.617 0.113l-0.061-0.007c1.111 0.105 2.065 0.192 2.908-0.268 0.663-0.361 4.356-3.897 10.358-9.672 4.374-4.211 8.893-8.567 10.545-9.945 0.157-0.134 0.227-0.128 0.227-0.134 0.018 0.017 0.032 0.039 0.040 0.063l0 0.001 0.378 1.599-0.268 0.256c-0.071-0.027-0.153-0.042-0.238-0.042-0.382 0-0.692 0.31-0.692 0.692 0 0.078 0.013 0.152 0.036 0.222l-0.001-0.005-0.768 0.744c-0.055-0.016-0.118-0.025-0.183-0.025-0.373 0-0.675 0.302-0.675 0.675 0 0.059 0.007 0.115 0.021 0.17l-0.001-0.005c-5.502 5.328-17.035 16.523-18.111 17.797zM23.913 8.274c0.122 0.128 0.118 0.33-0.010 0.452s-0.33 0.118-0.452-0.010c-0.122-0.128-0.118-0.33 0.010-0.452s0.33-0.118 0.452 0.010zM23.058 9.090c0.122 0.128 0.118 0.33-0.010 0.452s-0.33 0.118-0.452-0.010c-0.122-0.128-0.118-0.33 0.010-0.452s0.33-0.118 0.452 0.010zM22.117 9.922c0.122 0.127 0.118 0.329-0.010 0.451s-0.329 0.118-0.451-0.010c-0.122-0.127-0.118-0.329 0.010-0.451s0.329-0.118 0.451 0.010zM21.363 10.719c0.122 0.128 0.118 0.33-0.010 0.452s-0.33 0.118-0.452-0.010c-0.122-0.128-0.118-0.33 0.010-0.452s0.33-0.118 0.452 0.010zM19.864 12.154c0.122 0.128 0.118 0.33-0.010 0.452s-0.33 0.118-0.452-0.010c-0.122-0.128-0.118-0.33 0.010-0.452s0.33-0.118 0.452 0.010zM19.071 12.915c0.122 0.128 0.118 0.33-0.010 0.452s-0.33 0.118-0.452-0.010c-0.122-0.128-0.118-0.33 0.010-0.452s0.33-0.118 0.452 0.010zM18.279 13.671c0.122 0.128 0.118 0.33-0.010 0.452s-0.33 0.118-0.452-0.010c-0.122-0.128-0.118-0.33 0.010-0.452s0.33-0.118 0.452 0.010zM17.491 14.427c0.122 0.128 0.118 0.33-0.010 0.452s-0.33 0.118-0.452-0.010c-0.122-0.128-0.118-0.33 0.010-0.452s0.33-0.118 0.452 0.010zM16.699 15.182c0.122 0.128 0.118 0.33-0.010 0.452s-0.33 0.118-0.452-0.010c-0.122-0.128-0.118-0.33 0.010-0.452s0.33-0.118 0.452 0.010zM15.912 15.933c0.122 0.127 0.118 0.33-0.009 0.452s-0.33 0.118-0.452-0.009c-0.122-0.127-0.118-0.33 0.009-0.452s0.33-0.118 0.452 0.009zM15.123 16.696c0.122 0.128 0.118 0.33-0.010 0.452s-0.33 0.118-0.452-0.010c-0.122-0.128-0.118-0.33 0.010-0.452s0.33-0.118 0.452 0.010zM7.061 25.818c-0.063-0.090-0.166-0.148-0.282-0.148-0.073 0-0.14 0.023-0.196 0.061l0.001-0.001-0.634 0.477c-0.075 0.063-0.122 0.157-0.122 0.262 0 0.082 0.028 0.156 0.076 0.215l-0-0.001 1.623 2.164c0.063 0.088 0.165 0.145 0.28 0.145 0.071 0 0.137-0.022 0.192-0.059l-0.001 0.001 0.657-0.465c0.075-0.063 0.122-0.157 0.122-0.262 0-0.082-0.028-0.156-0.076-0.215l0.001 0.001zM8.020 26.736c0.034 0.048 0.089 0.078 0.152 0.078 0.039 0 0.075-0.012 0.105-0.032l-0.001 0 0.343-0.256c0.033-0.034 0.054-0.080 0.054-0.131s-0.021-0.097-0.054-0.131l0 0-0.884-1.163c-0.034-0.048-0.089-0.078-0.152-0.078-0.039 0-0.075 0.012-0.105 0.032l0.001-0-0.343 0.256c-0.033 0.034-0.054 0.080-0.054 0.131s0.021 0.097 0.054 0.131l-0-0z"></path>
</svg>
