<!-- Generated by IcoMoon.io -->
<svg version="1.1" xmlns="http://www.w3.org/2000/svg" width="49" height="32" viewBox="0 0 49 32">
<title>tabla</title>
<path d="M48.805 22.347c-0.095-1.343-0.566-2.559-1.307-3.565l0.013 0.019c0-0.128 0-0.257 0.051-0.394 0.146-2.492-3.203-10.621-4.154-12.848 0.186-0.343 0.296-0.751 0.296-1.184 0-0.187-0.020-0.37-0.059-0.545l0.003 0.017c-0.037-0.155-0.084-0.289-0.143-0.417l0.006 0.014c-0.003-0.156-0.022-0.307-0.054-0.452l0.003 0.015c-0.351-1.567-2.295-2.57-5.071-2.57-1.031 0.004-2.032 0.125-2.993 0.352l0.089-0.018c-3.983 0.908-6.732 3.289-6.244 5.422 0.040 0.143 0.086 0.265 0.143 0.382l-0.006-0.013c0 0.167 0.019 0.33 0.054 0.486l-0.003-0.015c0.16 0.626 0.534 1.147 1.036 1.493l0.009 0.006c0.085 3.737 0.372 7.314 0.851 10.83l-0.055-0.492c-0.899 1.165-1.44 2.645-1.44 4.253 0 0.131 0.004 0.261 0.011 0.391l-0.001-0.018c0.257 4.111 4.283 7.323 9.251 7.323h0.72c2.525-0.125 4.795-1.124 6.536-2.698l-0.009 0.008c1.52-1.338 2.474-3.288 2.474-5.461 0-0.113-0.003-0.225-0.008-0.337l0.001 0.016zM30.887 23.452c0-0.069 0-0.128 0-0.188l1.345-1.122c0.060 0.094 0.128 0.188 0.197 0.274l-1.516 1.268c0-0.077-0.017-0.154-0.026-0.231zM33.148 23.178c0.086 0.077 0.188 0.137 0.283 0.206l-2.15 1.799c-0.043-0.111-0.086-0.223-0.128-0.334zM31.777 26.176l2.621-2.193 0.334 0.163-2.767 2.313zM34.527 25.687l-0.051 2.981-0.325-0.188 0.043-2.518zM35.589 24.831l0.3-0.257h0.043l-0.086 4.728-0.343-0.128zM36.976 24.831l0.36 0.051v1.936l-0.086 2.784-0.36-0.069zM38.295 29.636l0.274 0.24h-0.274zM38.295 28.257v-0.514l2.304 2.030-0.522 0.060zM38.295 26.364v-0.514l3.974 3.512-0.437 0.128zM38.861 24.942h0.557l4.325 3.82-0.377 0.188zM40.874 24.711l0.565-0.248-0.043 0.608-0.505-0.454h0.086zM44.103 27.657l-0.411-0.36 0.317-4.034 0.463-0.308zM42.707 26.424l-0.42-0.368 0.146-1.876 0.463-0.214zM45.182 27.332l0.283 0.214-0.317 0.274zM45.276 26.090l0.051-0.702 1.233 0.934c-0.111 0.163-0.24 0.308-0.368 0.463zM45.422 24.146l0.051-0.702 1.961 1.319q-0.103 0.283-0.24 0.557zM45.533 22.176q0.223-0.206 0.42-0.42l1.756 1.328c-0.010 0.251-0.034 0.487-0.073 0.718l0.005-0.033zM46.612 20.934c0.145-0.207 0.288-0.446 0.413-0.694l0.015-0.034c0.233 0.424 0.422 0.916 0.541 1.435l0.007 0.039zM35.726 1.816c0.802-0.192 1.723-0.305 2.67-0.308h0.003c2.184 0 3.812 0.694 4.043 1.713 0.308 1.345-1.816 3.34-5.456 4.171-0.802 0.193-1.723 0.305-2.67 0.308h-0.002c-2.184 0-3.812-0.694-4.043-1.713-0.308-1.353 1.816-3.349 5.456-4.171zM34.501 9.593c1.031-0.003 2.032-0.125 2.993-0.352l-0.089 0.018c1.784-0.377 3.352-1.121 4.686-2.152l-0.026 0.020c0.227-0.187 0.431-0.381 0.621-0.587l0.004-0.004c1.43 3.426 3.931 9.901 3.82 11.812-0.137 2.355-3.152 4.608-5.91 5.276s-6.467-0.137-7.606-2.21c-0.916-1.67-1.328-8.565-1.456-12.308 0.839 0.31 1.809 0.489 2.82 0.489 0.050 0 0.101-0 0.151-0.001l-0.008 0zM31.769 21.156l-0.711 0.591c0.128-0.508 0.301-0.953 0.521-1.369l-0.016 0.033c0.077 0.274 0.137 0.522 0.214 0.745zM32.625 27.229l0.497-0.411v0.857q-0.248-0.214-0.488-0.445zM39.57 3.649c0.204 0.9-1.088 1.96-2.887 2.369s-3.423 0.011-3.627-0.889c-0.204-0.9 1.088-1.96 2.887-2.369s3.423-0.011 3.627 0.889zM25.508 6.364c0.069-1.636-1.071-3.186-3.221-4.385-2.24-1.175-4.883-1.893-7.687-1.961l-0.022-0h-0.976c-5.824 0-10.321 2.313-10.458 5.379 0 0 0 0.077 0 0.12-0.625 1.045-4.197 7.358-2.861 11.76 0.412 1.311 1.013 2.45 1.784 3.452l-0.019-0.026c-0.511 0.898-0.813 1.973-0.813 3.118 0 0.108 0.003 0.216 0.008 0.323l-0.001-0.015c0.274 4.48 5.396 7.863 11.906 7.863 0.377 0 0.762 0 1.148 0 6.904-0.428 12.274-4.634 11.991-9.379-0.044-0.627-0.176-1.21-0.382-1.755l0.014 0.042c0.537-0.704 1.012-1.504 1.392-2.356l0.030-0.076c1.987-4.403-1.439-11.289-1.842-12.069 0-0.009 0-0.017 0.009-0.034zM13.61 1.045h0.925c2.643 0.075 5.111 0.751 7.296 1.894l-0.092-0.044c1.782 0.994 2.741 2.21 2.681 3.426-0.111 2.45-4.283 4.377-9.422 4.377h-0.925c-5.49-0.24-10.030-2.647-9.919-5.251 0.154-2.484 4.291-4.403 9.456-4.403zM4.908 23.426l-2.381 1.782c-0.111-0.334-0.19-0.721-0.222-1.122l-0.001-0.017c-0.004-0.079-0.007-0.172-0.007-0.265 0-0.809 0.183-1.575 0.509-2.259l-0.014 0.032c0.63 0.684 1.323 1.292 2.075 1.823l0.041 0.027zM22.261 24.051l0.163 2.63-2.227-1.593c0.806-0.329 1.485-0.674 2.132-1.066l-0.067 0.038zM22.45 27.991c-0.982 0.77-2.116 1.41-3.339 1.865l-0.087 0.028 0.463-4.009zM18.056 29.336l-2.415-3.118c1.066-0.114 2.031-0.307 2.963-0.578l-0.119 0.030zM12.916 29.833l-2.236-3.914c0.807 0.19 1.757 0.327 2.729 0.383l0.046 0.002h0.471zM12.317 30.921c-1.559-0.086-3.020-0.393-4.389-0.89l0.106 0.034 1.645-3.829zM7.606 28.445l-1.285-4.137c0.723 0.4 1.572 0.776 2.455 1.079l0.115 0.034zM2.938 26.176l2.338-1.713 1.593 5.139c-1.662-0.719-3.009-1.904-3.91-3.389l-0.021-0.037zM14.236 30.878h-0.591l1.242-3.974 2.698 3.478c-0.981 0.27-2.126 0.459-3.303 0.529l-0.046 0.002zM23.495 27.032l-0.206-3.289 1.833 0.266c-0.277 1.184-0.847 2.208-1.63 3.026l0.002-0.002zM25.208 22.647c0 0.111 0 0.214 0 0.317l-1.199-0.171c0.383-0.323 0.729-0.65 1.057-0.996l0.006-0.006c0.076 0.248 0.137 0.542 0.169 0.843l0.002 0.022zM26.355 18.039c-2.355 5.208-8.171 7.375-12.848 7.212-4.899-0.266-10.57-2.938-12.206-8.308-0.925-3.041 0.857-7.323 2.021-9.559 0.968 2.707 5.285 4.831 10.707 5.088h0.976c5.062 0 9.122-1.713 10.184-4.214 0.976 2.287 2.544 6.784 1.191 9.782zM14.526 2.315c3.11 0.138 5.575 1.51 5.506 3.065s-2.646 2.703-5.755 2.565c-3.11-0.138-5.575-1.51-5.506-3.065s2.646-2.703 5.755-2.565zM10.030 29.867v0c0.308-0.022 0.549-0.278 0.549-0.59 0-0.013-0-0.025-0.001-0.037l0 0.002c-0.019-0.311-0.276-0.557-0.59-0.557-0 0-0.001 0-0.001 0h0c-0.326 0-0.591 0.265-0.591 0.591s0.265 0.591 0.591 0.591v0zM15.418 29.019v0c-0.308 0.022-0.549 0.278-0.549 0.59 0 0.013 0 0.025 0.001 0.037l-0-0.002c0.019 0.311 0.276 0.557 0.59 0.557 0 0 0.001 0 0.001 0h-0c0.294-0.037 0.52-0.285 0.52-0.587s-0.226-0.55-0.517-0.586l-0.003-0zM4.608 26.176v0c-0.294 0.037-0.52 0.285-0.52 0.587s0.226 0.55 0.517 0.586l0.003 0c0.294-0.037 0.52-0.285 0.52-0.587s-0.226-0.55-0.517-0.586l-0.003-0zM20.36 28.514v0c0.294-0.037 0.52-0.285 0.52-0.587s-0.226-0.55-0.517-0.586l-0.003-0c-0.308 0.022-0.549 0.278-0.549 0.59 0 0.013 0 0.025 0.001 0.037l-0-0.002c0.021 0.294 0.254 0.527 0.546 0.548l0.002 0zM24.18 24.12v0c-0.294 0.037-0.52 0.285-0.52 0.587s0.226 0.55 0.517 0.586l0.003 0c0.161-0.011 0.302-0.085 0.402-0.196l0-0.001c0.091-0.102 0.147-0.238 0.147-0.387 0-0.015-0.001-0.029-0.002-0.043l0 0.002c-0.021-0.294-0.254-0.527-0.546-0.548l-0.002-0z"></path>
</svg>
