<svg viewBox="0 0 56.4 56.4" xmlns="http://www.w3.org/2000/svg"><g fill="#9d9d9c"><path d="m39.12 2.21a1.1 1.1 0 0 0 -1.12 1.87 1.08 1.08 0 0 0 .29.13 26 26 0 1 1 -10.12-2 1.11 1.11 0 1 0 0-2.21 28.2 28.2 0 1 0 11 2.21z"/><path d="m41.73 39.37a1 1 0 0 0 -1.39.25l-.09.16a5.9 5.9 0 0 1 -5.07 3.3 5.67 5.67 0 0 1 -5-3.26 1 1 0 0 0 -1.3-.55l-.17.09a1.27 1.27 0 0 0 -.42 1.64 7.85 7.85 0 0 0 6.9 4.49 8.06 8.06 0 0 0 6.92-4.49 1.26 1.26 0 0 0 -.38-1.63z"/><path d="m48.39 25.11a6.11 6.11 0 0 1 -5.34 3.11 6.34 6.34 0 0 1 -5.35-3.08 1.07 1.07 0 0 1 .37-1.47 1.09 1.09 0 0 1 1.49.37 4.16 4.16 0 0 0 3.49 2 4 4 0 0 0 3.44-2 1.09 1.09 0 0 1 1.51-.42 1.07 1.07 0 0 1 .46 1.44z"/><path d="m31.14 25.11a6.11 6.11 0 0 1 -5.34 3.11 6.34 6.34 0 0 1 -5.35-3.08 1.07 1.07 0 0 1 .37-1.47 1.09 1.09 0 0 1 1.49.37 4.16 4.16 0 0 0 3.49 2 4 4 0 0 0 3.44-2 1.09 1.09 0 0 1 1.47-.42 1.07 1.07 0 0 1 .46 1.44z"/><path d="m17.8 20.27a1.3 1.3 0 0 0 1.6-.41 5.49 5.49 0 0 1 2.54-1.69 6.22 6.22 0 0 1 3.13-.45 1.23 1.23 0 0 0 1.46-.72 1 1 0 0 0 -.75-1.2h-.08a5.4 5.4 0 0 0 -1.21-.1 10.22 10.22 0 0 0 -3.53.7 7.65 7.65 0 0 0 -3.65 2.6.91.91 0 0 0 .37 1.23z"/><path d="m42.3 17a1.23 1.23 0 0 0 1.46.68 6.26 6.26 0 0 1 3.14.47 5.49 5.49 0 0 1 2.54 1.69 1.31 1.31 0 0 0 1.6.41.92.92 0 0 0 .59-1.15.76.76 0 0 0 -.09-.18 7.56 7.56 0 0 0 -3.65-2.56 10.37 10.37 0 0 0 -3.53-.7 5.53 5.53 0 0 0 -1.21.13 1 1 0 0 0 -.86 1.12s.01.09.01.09z"/><circle cx="35.2" cy="2.35" r="1.57"/></g></svg>