<svg xmlns="http://www.w3.org/2000/svg" viewBox="0 0 57.76 56"><defs><style>.cls-1{fill:#9d9d9c;}</style></defs><title>Asset 2</title><g id="Layer_2" data-name="Layer 2"><g id="Слой_1" data-name="Слой 1"><g id="item-Page"><g id="Mobile-Icons"><g id="Group-Copy-7"><g id="_2" data-name=" 2"><path id="Shape" class="cls-1" d="M56.9,12.7c-5.21-1.12-10.45-2-17.27-.26a19.19,19.19,0,0,1-5.05.77A13.34,13.34,0,0,1,32,12.78h-.15a40.59,40.59,0,0,0-19.44-.41,1.09,1.09,0,0,0-.83,1.23l.45,3a1.1,1.1,0,0,0,1,.86h.13c.15,3.72.9,6.27,2.33,8s3.87,2.77,7.12,2.77h0A11,11,0,0,0,31,24.3a13.63,13.63,0,0,0,3.11-5.84,1,1,0,0,1,.17-.49,1,1,0,0,1,.42,0c.34,0,.35,0,.55.54l.1.27c1.32,3.34,2.47,5.71,4.16,7.23s4,2.1,6.73,2.34a14,14,0,0,0,1.42.07c2.73,0,4.7-.79,6-2.39l.1-.12c.06.71.09,1.43.09,2.14A25.73,25.73,0,1,1,28.07,2.15,25.39,25.39,0,0,1,43.65,7.46,1.09,1.09,0,1,0,45,5.72,27.63,27.63,0,0,0,28.07,0,28,28,0,1,0,55.33,21.91c.11-.51.2-1,.28-1.5a19.52,19.52,0,0,1,.49-2.27,1.75,1.75,0,0,1,.12-.32h.11a1.08,1.08,0,0,0,1.06-1l.37-3A1.09,1.09,0,0,0,56.9,12.7Zm-1.58,3.12A2.44,2.44,0,0,0,54,17.46,20.25,20.25,0,0,0,53.46,20c-.09.54-.19,1.07-.3,1.58v.11c-.62,2.74-1.81,4.8-6.76,4.37-5.13-.45-6.48-1.67-9-8.2l-.07-.19a2.57,2.57,0,0,0-2.56-2h-.1A2.5,2.5,0,0,0,31.94,18v0c-.37,2.06-3.36,8-9.26,8h0c-5.05,0-7-2.37-7.28-8.74a2,2,0,0,0-1.35-1.84l-.18-1.19a38.91,38.91,0,0,1,17.47.62h.15a15.27,15.27,0,0,0,3,.49,21.21,21.21,0,0,0,5.65-.83c5.94-1.5,10.67-.88,15.3.07Z"/><path id="Shape-2" class="cls-1" d="M42.46,35.17a1,1,0,0,0-1.18.77.43.43,0,0,0,0,.11,5.91,5.91,0,0,1-3.49,4.58,5.44,5.44,0,0,1-5.54-.89,1,1,0,0,0-1.41.08l-.06.07a1.09,1.09,0,0,0,.14,1.5,7.49,7.49,0,0,0,4.83,1.77,7.41,7.41,0,0,0,2.79-.54,8,8,0,0,0,4.78-6.21A1.08,1.08,0,0,0,42.46,35.17Z"/><circle id="Oval" class="cls-1" cx="47.36" cy="8.76" r="1.6"/></g></g></g></g></g></g></svg>