<svg viewBox="0 0 56 56" xmlns="http://www.w3.org/2000/svg"><g fill="#9d9d9c"><path d="m51.2 12.33a28 28 0 0 0 -12.42-10.14 1.09 1.09 0 0 0 -.84 2 25.82 25.82 0 1 1 -9.91-2 1.1 1.1 0 1 0 -.03-2.19 28 28 0 1 0 23.2 12.33z"/><path d="m23.31 15a4.75 4.75 0 0 0 -4.78 4.72 1.1 1.1 0 1 0 2.19 0 2.56 2.56 0 1 1 5.12 0 1.1 1.1 0 1 0 2.19 0 4.75 4.75 0 0 0 -4.72-4.72z"/><path d="m41.8 15a4.75 4.75 0 0 0 -4.75 4.75 1.1 1.1 0 1 0 2.19 0 2.56 2.56 0 0 1 5.12 0 1.1 1.1 0 1 0 2.19 0 4.75 4.75 0 0 0 -4.75-4.75z"/><path d="m46 32.55h-28.14a1.09 1.09 0 0 0 -1.09 1.09 15.18 15.18 0 0 0 30.35.78q0-.39 0-.78a1.09 1.09 0 0 0 -1.12-1.09zm-1.14 2.19a13 13 0 0 1 -25.89 0z"/><circle cx="34.55" cy="1.96" r="1.56"/></g></svg>