<svg id="hover-map" xmlns="http://www.w3.org/2000/svg" viewBox="0 0 290.99 290.99"><defs><style>.cls-1{fill:none;stroke:#7b7b7b;stroke-miterlimit:10;stroke-width:.75px}</style></defs><title>graphic-button</title><path class="cls-1" d="M298.72 145.92a3.88 3.88 0 0 0-1.1-2.89 4.32 4.32 0 0 0 0 5.78 3.87 3.87 0 0 0 1.1-2.89z" transform="translate(-152.26 -110.01)"/><path class="cls-1" d="M148.99 11.75l-3.52 3.51m3.42-7.7l-3.42 3.41m2.43-6.71l-2.43 2.43M145.5.5v18.98"/><path class="cls-1" d="M301.4 120c0-4.05-1.47-7.59-3.65-9.49-2.18 1.9-3.65 5.44-3.65 9.49s1.47 7.59 3.65 9.49c2.18-1.9 3.65-5.43 3.65-9.49zm-80.46 57.33a3.88 3.88 0 0 0-2.82-1.26 4.32 4.32 0 0 0 4.08 4.08 3.87 3.87 0 0 0-1.26-2.82z" transform="translate(-152.26 -110.01)"/><path class="cls-1" d="M53.39 48.45v4.97m-3.03-7.85v4.82m-3.03-6.46v3.43m-4.36-4.39l13.42 13.42"/><path class="cls-1" d="M204.51 157.11c-2.87-2.87-6.41-4.33-9.29-4.13-.2 2.88 1.27 6.42 4.13 9.29s6.41 4.33 9.29 4.13c.21-2.88-1.26-6.4-4.13-9.29zm-16.35 97.43a3.88 3.88 0 0 0-2.89 1.1 4.32 4.32 0 0 0 5.78 0 3.87 3.87 0 0 0-2.89-1.1z" transform="translate(-152.26 -110.01)"/><path class="cls-1" d="M11.75 142l3.51 3.52m-7.7-3.41l3.41 3.41m-6.71-2.43l2.43 2.43M.5 145.5h18.98"/><path class="cls-1" d="M162.24 251.86c-4.05 0-7.59 1.47-9.49 3.65 1.9 2.18 5.44 3.65 9.49 3.65s7.59-1.47 9.49-3.65c-1.89-2.18-5.43-3.65-9.49-3.65zm57.34 80.46a3.88 3.88 0 0 0-1.26 2.82 4.32 4.32 0 0 0 4.08-4.08 3.87 3.87 0 0 0-2.82 1.26z" transform="translate(-152.26 -110.01)"/><path class="cls-1" d="M48.45 237.6h4.97m-7.85 3.03l4.82.01m-6.46 3.02l3.43.01m-4.39 4.36l13.42-13.42"/><path class="cls-1" d="M199.36 348.75c-2.87 2.87-4.33 6.41-4.13 9.29 2.88.2 6.42-1.27 9.29-4.13s4.33-6.41 4.13-9.29c-2.89-.2-6.42 1.26-9.29 4.13zm97.43 16.35a3.88 3.88 0 0 0 1.1 2.89 4.32 4.32 0 0 0 0-5.78 3.87 3.87 0 0 0-1.1 2.89z" transform="translate(-152.26 -110.01)"/><path class="cls-1" d="M142 279.24l3.52-3.51m-3.41 7.7l3.41-3.41m-2.43 6.71l2.43-2.42m-.02 6.19v-18.98"/><path class="cls-1" d="M294.11 391c0 4.05 1.47 7.59 3.65 9.49 2.18-1.9 3.65-5.44 3.65-9.49s-1.47-7.59-3.65-9.49c-2.19 1.91-3.65 5.49-3.65 9.49zm80.45-57.31a3.88 3.88 0 0 0 2.82 1.26 4.32 4.32 0 0 0-4.08-4.08 3.87 3.87 0 0 0 1.26 2.82z" transform="translate(-152.26 -110.01)"/><path class="cls-1" d="M237.6 242.54v-4.97m3.03 7.86l.01-4.83m3.02 6.46l.01-3.43m4.36 4.4l-13.42-13.43"/><path class="cls-1" d="M391 353.91c2.87 2.87 6.41 4.33 9.29 4.13.2-2.88-1.27-6.42-4.13-9.29s-6.41-4.33-9.29-4.13c-.21 2.88 1.26 6.38 4.13 9.29zm16.35-97.43a3.88 3.88 0 0 0 2.89-1.1 4.32 4.32 0 0 0-5.78 0 3.87 3.87 0 0 0 2.89 1.1z" transform="translate(-152.26 -110.01)"/><path class="cls-1" d="M279.24 148.99l-3.51-3.52m7.7 3.42l-3.41-3.42m6.71 2.43l-2.42-2.43m6.19.03h-18.98"/><path class="cls-1" d="M433.26 259.16c4.05 0 7.59-1.47 9.49-3.65-1.9-2.18-5.44-3.65-9.49-3.65s-7.59 1.47-9.49 3.65c1.9 2.18 5.44 3.65 9.49 3.65zm-57.33-80.46a3.88 3.88 0 0 0 1.26-2.82 4.32 4.32 0 0 0-4.08 4.08 3.87 3.87 0 0 0 2.82-1.26z" transform="translate(-152.26 -110.01)"/><path class="cls-1" d="M242.54 53.39h-4.97m7.86-3.03h-4.83m6.46-3.03h-3.43m4.4-4.36L234.6 56.39"/><path class="cls-1" d="M396.15 162.27c2.87-2.87 4.33-6.41 4.13-9.29-2.88-.2-6.42 1.27-9.29 4.13s-4.33 6.41-4.13 9.29c2.89.2 6.42-1.26 9.29-4.13zm-149.44-34.52a1.87 1.87 0 0 0-3.46 1.43c.4 1 3.4 3.32 3.4 3.32s.46-3.79.06-4.75zm3.29 9.47a1.29 1.29 0 0 0-2.38 1 12.52 12.52 0 0 0 2.38 2.28 12.52 12.52 0 0 0 0-3.28zm-78.68 64.04a1.87 1.87 0 1 0-1.43 3.46c1 .4 4.75-.06 4.75-.06s-2.36-3-3.32-3.4zm9.03 4.37a1.29 1.29 0 1 0-1 2.38 12.52 12.52 0 0 0 3.28 0 12.52 12.52 0 0 0-2.28-2.38zM170 306.55a1.87 1.87 0 1 0 1.43 3.46c1-.4 3.32-3.4 3.32-3.4s-3.75-.45-4.75-.06zm9.47-3.29a1.29 1.29 0 1 0 1 2.38 12.52 12.52 0 0 0 2.29-2.34 12.52 12.52 0 0 0-3.29-.04zm64.04 78.68a1.87 1.87 0 1 0 3.46 1.43c.4-1-.06-4.75-.06-4.75s-3 2.38-3.4 3.32zm4.37-9.02a1.29 1.29 0 0 0 2.38 1 12.52 12.52 0 0 0 0-3.28 12.52 12.52 0 0 0-2.38 2.28zm100.92 10.34a1.87 1.87 0 0 0 3.46-1.43c-.4-1-3.4-3.32-3.4-3.32s-.46 3.8-.06 4.75zm-3.29-9.46a1.29 1.29 0 0 0 2.38-1 12.52 12.52 0 0 0-2.34-2.29 12.52 12.52 0 0 0-.04 3.29zm78.67-64.05a1.87 1.87 0 1 0 1.43-3.46c-1-.4-4.75.06-4.75.06s2.37 3.01 3.32 3.4zm-9.02-4.36a1.29 1.29 0 1 0 1-2.38 12.52 12.52 0 0 0-3.28 0 12.52 12.52 0 0 0 2.28 2.38zm10.35-100.92a1.87 1.87 0 1 0-1.43-3.46c-1 .4-3.32 3.4-3.32 3.4s3.8.45 4.75.06zm-9.51 3.29a1.29 1.29 0 1 0-1-2.38 12.52 12.52 0 0 0-2.29 2.34 12.52 12.52 0 0 0 3.29.04zm-64-78.68a1.87 1.87 0 0 0-3.46-1.43c-.4 1 .06 4.75.06 4.75s3-2.4 3.4-3.32zm-4.37 9.02a1.29 1.29 0 0 0-2.38-1 12.52 12.52 0 0 0 0 3.28 12.52 12.52 0 0 0 2.38-2.28z" transform="translate(-152.26 -110.01)"/></svg>