<svg id="hover-map" xmlns="http://www.w3.org/2000/svg" viewBox="0 0 291 291"><style>.st0{fill:none;stroke:#c5e0dc;stroke-width:.75;stroke-miterlimit:10}</style><title>graphic-button</title><path class="st0" d="M146.5 35.9c0-1.1-.3-2.1-1.1-2.9-1.5 1.6-1.5 4.1 0 5.8.7-.8 1.1-1.8 1.1-2.9zm2.5-24.1l-3.5 3.5m3.4-7.7l-3.4 3.4m2.4-6.7l-2.4 2.4m0-6.2v19m3.6-9.5c0-4.1-1.5-7.6-3.6-9.5-2.2 1.9-3.6 5.4-3.6 9.5s1.5 7.6 3.6 9.5c2.2-1.9 3.6-5.5 3.6-9.5zM68.7 67.3c-.7-.8-1.7-1.2-2.8-1.3.1 2.2 1.9 4 4.1 4.1-.1-1-.5-2.1-1.3-2.8zM53.4 48.5v4.9m-3-7.8v4.8m-3.1-6.5v3.5M43 43l13.4 13.4m-4.1-9.3c-2.9-2.9-6.4-4.3-9.3-4.1-.2 2.9 1.3 6.4 4.1 9.3s6.4 4.3 9.3 4.1c.2-2.9-1.3-6.4-4.1-9.3zm-16.4 97.4c-1.1 0-2.1.3-2.9 1.1 1.6 1.5 4.1 1.5 5.8 0-.8-.7-1.8-1.1-2.9-1.1zM11.8 142l3.5 3.5m-7.7-3.4l3.4 3.4m-6.7-2.4l2.4 2.4m-6.2 0h19m-9.5-3.6c-4.1 0-7.6 1.5-9.5 3.6 1.9 2.2 5.4 3.6 9.5 3.6s7.6-1.5 9.5-3.6c-1.9-2.2-5.5-3.6-9.5-3.6zm57.3 80.4c-.8.7-1.2 1.7-1.3 2.8 2.2-.1 4-1.9 4.1-4.1-1 .1-2.1.5-2.8 1.3zm-18.8 15.3h4.9m-7.8 3h4.8m-6.5 3.1h3.5M43 248l13.4-13.4m-9.3 4.1c-2.9 2.9-4.3 6.4-4.1 9.3 2.9.2 6.4-1.3 9.3-4.1s4.3-6.4 4.1-9.3c-2.9-.2-6.4 1.3-9.3 4.1zm97.4 16.4c0 1.1.3 2.1 1.1 2.9 1.5-1.6 1.5-4.1 0-5.8-.7.8-1.1 1.8-1.1 2.9zm-2.5 24.1l3.5-3.5m-3.4 7.7l3.4-3.4m-2.4 6.7l2.4-2.4m0 6.2v-19m-3.7 9.5c0 4 1.5 7.6 3.6 9.5 2.2-1.9 3.6-5.4 3.6-9.5s-1.5-7.6-3.6-9.5c-2.1 1.9-3.6 5.5-3.6 9.5zm80.5-57.3c.7.8 1.7 1.2 2.8 1.3-.1-2.2-1.9-4-4.1-4.1.1 1 .5 2.1 1.3 2.8zm15.3 18.8v-4.9m3 7.8v-4.8m3.1 6.5v-3.5m4.3 4.4l-13.4-13.4m4.1 9.3c2.9 2.9 6.4 4.3 9.3 4.1.2-2.9-1.3-6.4-4.1-9.3s-6.4-4.3-9.3-4.1c-.2 2.9 1.3 6.4 4.1 9.3zm16.4-97.4c1.1 0 2.1-.3 2.9-1.1-1.6-1.5-4.1-1.5-5.8 0 .8.7 1.8 1.1 2.9 1.1zm24.1 2.5l-3.5-3.5m7.7 3.4l-3.4-3.4m6.7 2.4l-2.4-2.4m6.2 0h-19m9.5 3.6c4 0 7.6-1.5 9.5-3.6-1.9-2.2-5.4-3.6-9.5-3.6s-7.6 1.5-9.5 3.6c1.9 2.2 5.5 3.6 9.5 3.6zm-57.3-80.4c.8-.7 1.2-1.7 1.3-2.8-2.2.1-4 1.9-4.1 4.1 1-.1 2-.5 2.8-1.3zm18.8-15.3h-4.9m7.8-3h-4.8m6.5-3.1h-3.5M248 43l-13.4 13.4m9.3-4.1c2.9-2.9 4.3-6.4 4.1-9.3-2.9-.2-6.4 1.3-9.3 4.1s-4.3 6.4-4.1 9.3c2.9.2 6.4-1.3 9.3-4.1zM94.5 17.7c-.4-1-1.5-1.4-2.4-1-1 .4-1.4 1.5-1 2.4.4 1 3.4 3.3 3.4 3.3s.4-3.7 0-4.7zm3.2 9.5c-.3-.7-1-1-1.7-.7s-1 1-.7 1.7c.7.9 1.5 1.6 2.4 2.3.2-1.1.2-2.2 0-3.3zm-78.6 64c-1-.4-2.1.1-2.4 1-.4 1 .1 2.1 1 2.4 1 .4 4.8-.1 4.8-.1s-2.5-2.8-3.4-3.3zm9 4.4c-.7-.3-1.4 0-1.7.7s0 1.4.7 1.7c1.1.1 2.2.1 3.3 0-.7-.9-1.4-1.7-2.3-2.4zM17.7 196.5c-1 .4-1.4 1.5-1 2.4.4 1 1.5 1.4 2.4 1 1-.4 3.3-3.4 3.3-3.4s-3.7-.4-4.7 0zm9.5-3.2c-.7.3-1 1-.7 1.7s1 1 1.7.7c.9-.7 1.6-1.5 2.3-2.3-1.1-.3-2.2-.3-3.3-.1zm64.1 78.6c-.4 1 .1 2.1 1 2.4 1 .4 2.1-.1 2.4-1 .4-1-.1-4.8-.1-4.8s-2.9 2.5-3.3 3.4zm4.3-9c-.3.7 0 1.4.7 1.7s1.4 0 1.7-.7c.1-1.1.1-2.2 0-3.3-.9.7-1.7 1.4-2.4 2.3zm100.9 10.4c.4 1 1.5 1.4 2.4 1 1-.4 1.4-1.5 1-2.4-.4-1-3.4-3.3-3.4-3.3s-.4 3.7 0 4.7zm-3.2-9.5c.3.7 1 1 1.7.7s1-1 .7-1.7c-.7-.9-1.5-1.6-2.3-2.3-.3 1.1-.3 2.2-.1 3.3zm78.6-64.1c1 .4 2.1-.1 2.4-1 .4-1-.1-2.1-1-2.4-1-.4-4.8.1-4.8.1s2.5 2.9 3.4 3.3zm-9-4.3c.7.3 1.4 0 1.7-.7.3-.7 0-1.4-.7-1.7-1.1-.1-2.2-.1-3.3 0 .7.9 1.4 1.7 2.3 2.4zm10.4-100.9c1-.4 1.4-1.5 1-2.4-.4-1-1.5-1.4-2.4-1-1 .4-3.3 3.4-3.3 3.4s3.7.3 4.7 0zm-9.6 3.2c.7-.3 1-1 .7-1.7-.3-.7-1-1-1.7-.7-.9.7-1.6 1.5-2.3 2.3 1.1.3 2.2.3 3.3.1zm-64-78.6c.4-1-.1-2.1-1-2.4-1-.4-2.1.1-2.4 1-.4 1 .1 4.7.1 4.7s2.9-2.4 3.3-3.3zm-4.3 9c.3-.7 0-1.4-.7-1.7s-1.4 0-1.7.7c-.1 1.1-.1 2.2 0 3.3.9-.7 1.7-1.4 2.4-2.3z"/></svg>