<svg id="hover-map" xmlns="http://www.w3.org/2000/svg" viewBox="0 0 55 83.29"><defs><style>.cls-1{fill:#7b7b7b}</style></defs><title>Vector Smart Object2</title><path class="cls-1" d="M126 164.29l-.41-.61C124.48 162 98.5 123.4 98.5 108.5a27.5 27.5 0 0 1 55 0c0 14.9-26 53.54-27.08 55.18zM126 82a26.53 26.53 0 0 0-26.5 26.5c0 13.59 23.1 48.88 26.5 54 3.4-5.12 26.5-40.41 26.5-54A26.53 26.53 0 0 0 126 82zm0 40.95a14.39 14.39 0 1 1 14.39-14.39A14.4 14.4 0 0 1 126 122.95zm0-27.78a13.39 13.39 0 1 0 13.39 13.39A13.4 13.4 0 0 0 126 95.17z" transform="translate(-98.5 -81)"/></svg>