<svg id="Слой_1" data-name="Слой 1" xmlns="http://www.w3.org/2000/svg" viewBox="0 0 40 54.01"><defs><style>.cls-1{fill:#9d9d9c}</style></defs><title>mus-instrument-2</title><path class="cls-1" d="M62.88 59.31c-2.49-5.11-7.17-6.17-11.55-6.14A29 29 0 0 0 54.5 47c2.29-7.05 2.08-15.13 2-17.12v-.47a13.23 13.23 0 0 0-17.4-12.58l-.12-.1v.13a13.25 13.25 0 0 0-9 12.54v24.35a10.11 10.11 0 0 0-6.62 5.55l-.24.49 20 10.33 20-10.33zm-10-24.41c-.79 5.66-2 14.2-9.27 14.27-3.2 0-5.6-1.6-7.35-4.82a28.81 28.81 0 0 1-2.68-9.45 7.09 7.09 0 0 1 0-2c2.81-.32 6.45-2.77 9.38-6.62 3.12 4.1 7.05 6.63 9.92 6.66a7.35 7.35 0 0 1 .03 1.95zm-9.31 24.28l-7-3.37A18.12 18.12 0 0 0 38 54.67c1.14-1 1.32-3.2 1.3-4.76v-.73a8.77 8.77 0 0 0 4.22 1.09h.16a8.47 8.47 0 0 0 3.45-.76v.34c0 1.56.15 3.82 1.3 4.82A18.17 18.17 0 0 0 50 55.83zm-.45 9.69l-18.5-9.56c2.52-4.6 7.16-5.22 11.49-5-.72.51-1.35.89-1.36.9l-.88.54h.05v.39h-.05.05l-.31.44c-.39.56-1.68 2.46-1.68 3.43a2.14 2.14 0 1 0 4.28 0c0-1-1.29-2.88-1.68-3.43l-.18-.25 8.78 4.22c-.42.6-1.65 2.43-1.65 3.39a2.14 2.14 0 1 0 4.28 0c0-1-1.26-2.83-1.67-3.41l8.11-4.13-.2.28c-.39.56-1.68 2.46-1.68 3.43a2.14 2.14 0 1 0 4.28 0c0-1-1.29-2.88-1.68-3.43l-.32-.46v-.38h.06l-.85-.52s-.59-.36-1.29-.85l.06-.07c4.21-.16 8.63.56 11.07 5z" transform="translate(-23.12 -16.11)"/><path class="cls-1" d="M48.15 36.77a2 2 0 0 1-1.24-.66l-.44.35.44-.34-.91.68a3.1 3.1 0 0 0 2 1.08h.28a3.67 3.67 0 0 0 2.37-1l-.7-.88a2.48 2.48 0 0 1-1.8.77zm-9.77 0a2.47 2.47 0 0 1-1.81-.77l-.73.85a3.66 3.66 0 0 0 2.37 1h.28a3.1 3.1 0 0 0 2-1.08l-.88-.69a2 2 0 0 1-1.23.69zm5.7 6.96a1.09 1.09 0 0 0-.83.53 1.08 1.08 0 0 0-.82-.53 1.88 1.88 0 0 0-1.53 1.05 2.67 2.67 0 0 0 4.72 0 1.88 1.88 0 0 0-1.54-1.05z" transform="translate(-23.12 -16.11)"/><circle class="cls-1" cx="29.43" cy="58.4" r=".63" transform="rotate(-3.84 -222.442 395.109)"/><circle class="cls-1" cx="57.08" cy="58.4" r=".63" transform="rotate(-3.93 -189.25 387.305)"/><circle class="cls-1" cx="48.45" cy="63.14" r=".63" transform="translate(-27.24 -12.72)"/><circle class="cls-1" cx="38.58" cy="63.14" r=".63" transform="rotate(-3.89 -210.212 395.42)"/></svg>