<svg id="hover-map" xmlns="http://www.w3.org/2000/svg" viewBox="0 0 119 619.46"><defs><style>.cls-1{fill:#fff}</style></defs><title>Chakras</title><path class="cls-1" d="M699.5 920.22a59.56 59.56 0 0 0-58.5-59.48v-53.81a8.58 8.58 0 0 0 0-17.05v-70.46a8.59 8.59 0 0 0 0-17.05v-93.2a8.58 8.58 0 0 0 0-17.05v-40.57h.81c5-.39 15.41-2.26 23.68-10.83 11-11.37 10.57-26.57 10.55-27.21v-.93h-.93a37.88 37.88 0 0 0-23.07 8c-1.3-13.79-10.91-22.58-11.33-23l-.67-.6-.67.6c-.43.38-10.05 9.19-11.35 23a37.78 37.78 0 0 0-23.06-7.95h-.93v.93c0 .64-.45 15.83 10.54 27.22 8.29 8.56 18.72 10.43 23.69 10.81h.81v40.57a8.58 8.58 0 0 0 0 17.05v93.2a8.58 8.58 0 0 0 0 17.05v70.46a8.58 8.58 0 0 0 0 17.05v53.81a59.49 59.49 0 0 0 0 119v19.84a8.58 8.58 0 0 0 0 17.05v17.7h-30.98l31.91 55.19 31.91-55.28H641v-17.7a8.58 8.58 0 0 0 0-17.05V979.7a59.56 59.56 0 0 0 58.5-59.48zm-31.05 116.06L640 1085.56l-28.45-49.28H639v10.41a5.75 5.75 0 1 0 2 0v-10.41zM674 514.47c-.1 3.48-1.11 15.61-10 24.78-7.73 8-17.5 9.82-22.25 10.21v-1c2.8-3 10.4-12.16 10.4-25v-.63c8.49-7.33 18.73-8.26 21.85-8.36zm-34-14.88c2.3 2.36 9.74 10.92 10.14 22.89v1c0 11.58-6.61 20.07-9.5 23.22h-1.33c-2.88-3.15-9.51-11.64-9.51-23.22v-1.46c.66-11.71 7.94-20.1 10.2-22.43zm-34 14.89c3.15.1 13.37 1 21.86 8.41v.62c0 12.81 7.6 22 10.4 25v1c-4.75-.39-14.5-2.2-22.25-10.2-8.91-9.22-9.93-21.31-10.01-24.83zm27.44 86.17a6.59 6.59 0 1 1 6.59 6.59 6.6 6.6 0 0 1-6.62-6.6zm0 110.25a6.59 6.59 0 1 1 6.59 6.59 6.6 6.6 0 0 1-6.62-6.6zm0 87.52A6.59 6.59 0 1 1 640 805a6.6 6.6 0 0 1-6.59-6.59zm-50.94 121.8a57.5 57.5 0 1 1 57.5 57.5 57.57 57.57 0 0 1-57.5-57.5zm64.09 87.83a6.59 6.59 0 1 1-6.59-6.59 6.6 6.6 0 0 1 6.59 6.6zm-6.59 91.07a8.59 8.59 0 1 0 8.59 8.59 8.6 8.6 0 0 0-8.59-8.59zm0 15.18a6.59 6.59 0 1 1 6.59-6.59 6.6 6.6 0 0 1-6.59 6.58z" transform="translate(-580.5 -496.84)"/></svg>