<svg version="1" xmlns="http://www.w3.org/2000/svg" width="117" height="605" viewBox="0 0 1170 6050"><path d="M522 6027c-31-33-30-96 1-125 33-31 96-30 125 1 31 33 30 96-1 125-33 31-96 30-125-1zm102-23c50-49-24-124-76-77-36 33-13 93 37 93 13 0 31-7 39-16zm-199-475c-82-143-151-266-153-274-3-13 20-15 147-15h151v-77c-1-77-1-78-33-98-27-17-33-27-35-62-4-51 11-81 43-89 24-6 25-9 25-100v-94h-33c-97 0-260-70-349-150C63 4458 0 4313 0 4135s63-323 188-435c89-80 252-150 349-150h33v-260c0-209-3-260-13-260-27 0-57-45-57-86s30-84 58-84c9 0 12-85 12-340 0-230-3-340-10-340-6 0-22-11-35-25-43-42-30-126 21-145l24-10v-450c0-367-2-450-13-450-27 0-57-45-57-86s30-84 58-84c9 0 12-51 12-194V542l-37-7c-171-32-287-157-301-323l-5-65 60 5c34 3 84 17 113 31 57 27 70 27 70-2 0-27 57-134 85-161 20-19 30-22 43-14 26 16 80 101 94 147 6 23 14 45 17 49 4 4 31-4 60-18 30-15 80-29 114-32l60-5-5 65c-14 165-131 291-301 323l-37 7v194c0 154 3 194 13 194 27 0 57 45 57 86s-30 84-58 84c-9 0-12 110-12 450v450l24 10c51 19 64 103 21 145-13 14-29 25-35 25-7 0-10 110-10 340 0 276 3 340 13 340 27 0 57 45 57 86s-30 84-58 84c-9 0-12 66-12 260v260h33c97 0 260 70 349 150 125 112 188 257 188 435s-63 323-188 435c-89 80-252 150-349 150h-33v94c0 91 1 94 25 100 32 8 47 38 43 89-2 35-8 45-35 62-32 20-32 21-33 98v77h151c127 0 150 2 147 15-6 27-303 534-313 534-5 0-77-117-160-260zm425-254c0-3-56-5-125-5H600v45c0 34 6 50 25 69 14 14 25 34 25 46 0 28-35 60-65 60s-65-32-65-60c0-12 11-32 25-46 19-19 25-35 25-69v-45H444c-72 0-124 4-122 9s61 110 133 233l130 224 132-228c73-125 133-230 133-233zm-228-242c22-20 24-66 3-83-8-7-26-12-40-12-34 0-55 19-55 50 0 53 54 80 92 45zm87-358c105-25 188-72 266-150 114-114 165-234 165-390s-51-277-165-390c-220-220-560-220-780 0-114 113-165 234-165 390s51 276 165 390c138 138 328 193 514 150zm-85-1691c20-20 20-58 0-78-34-34-94-9-94 39 0 30 25 55 55 55 13 0 31-7 39-16zm-6-850c32-22 27-73-9-93-24-13-29-13-53 2-34 22-36 69-4 91 28 20 38 20 66 0zm4-1081c36-33 13-93-37-93-49 0-72 55-38 92 20 22 51 23 75 1zm-98-594c-33-50-64-133-64-174 0-12-8-29-18-38-24-22-98-54-146-63l-39-7 6 48c8 55 47 138 85 178 42 45 150 101 204 106 4 1-9-22-28-50zm192 16c101-45 176-143 191-251l6-47-39 7c-48 9-122 41-146 63-10 9-18 26-18 38 0 41-31 124-64 174l-35 51 27-6c15-3 50-16 78-29zm-68-84c39-80 38-182-3-263-15-32-36-65-46-74-16-14-19-12-47 28-80 116-80 249-1 357 29 41 31 42 50 25 10-9 31-42 47-73z" fill="#fff"/></svg>