<svg version="1" xmlns="http://www.w3.org/2000/svg" width="630" height="600" viewBox="0 0 6300 6000"><path d="M1449 5996c-2-2-87-9-189-15-330-20-423-30-490-52-136-44-247-122-298-207-23-41-27-58-27-129 0-77-1-81-19-71-27 14-161 14-213-1-23-6-57-24-74-39-18-15-41-25-52-24-11 2-35 1-53-3-29-5-34-10-34-34 0-23 16-42 89-105 49-42 114-104 143-138 56-65 103-128 95-128-3 0-35 14-71 31-54 25-74 30-104 24-36-7-62-21-62-34 0-4 27-26 61-50s98-75 142-113c112-97 116-99 208-109 44-5 94-16 111-25 103-53 273-309 513-769 62-119 78-140 180-245 126-129 161-187 195-321 12-46 48-167 80-269 96-299 110-360 120-515 14-211 57-354 155-510 66-107 114-145 253-200 199-79 325-152 526-303 145-110 136-96 136-212v-100l-36-40c-30-33-37-50-46-112-8-52-18-80-34-98-28-31-57-111-74-205-16-94-12-114 30-136l35-19-3-118c-5-140 13-308 40-379C2737 75 2894 0 3150 0s413 75 468 223c27 71 44 237 41 379l-3 118 34 19c42 22 46 42 30 136-17 94-46 174-74 205-16 18-26 46-34 98-9 62-16 79-46 112l-36 40v100c0 116-9 102 136 212 201 151 327 224 526 303 139 55 187 93 253 200 98 156 141 299 155 510 10 155 24 216 120 515 32 102 68 223 80 269 34 134 68 191 199 326 112 116 119 126 195 275 211 412 392 681 494 734 17 9 67 20 111 25 92 10 96 12 208 109 44 38 108 89 142 113s61 46 61 50c0 13-26 27-62 34-30 6-50 1-104-24-36-17-68-31-71-31-8 0 39 63 95 128 29 34 94 96 143 138 73 63 89 82 89 105 0 24-5 29-34 34-18 4-42 5-53 3-11-1-34 9-52 24-17 15-51 33-74 39-52 15-186 15-213 1-18-10-19-6-19 71 0 71-4 88-27 129-51 85-162 163-298 207-64 21-140 30-460 51-300 20-451 23-583 11-183-18-253-31-647-121-473-109-506-114-690-114s-217 5-690 114c-366 84-462 102-630 119-101 11-372 15-381 7zm-335-1079c89-46 205-113 259-150 177-122 358-193 652-257 181-40 218-58 255-123 42-74 55-163 40-290-6-56-16-147-21-202-11-117-50-417-83-630l-23-150-27 90c-46 150-97 298-118 340-11 22-49 81-83 130-82 119-81 116-105 235-26 128-69 239-118 306-20 29-122 131-227 229-104 98-271 253-370 346-164 153-217 209-199 209 4 0 80-37 168-83zm4231 60c-8-13-68-73-133-133-375-347-622-584-654-628-49-67-92-178-118-306-24-119-23-116-105-235-34-49-72-108-83-130-21-42-72-190-118-340l-27-90-23 150c-33 213-72 513-83 630-5 55-15 146-21 203-19 168 18 304 96 352 17 11 108 38 202 60 316 73 470 134 649 257 85 58 404 232 426 233 4 0 1-11-8-23z" fill="#e18c4e"/></svg>