<svg xmlns="http://www.w3.org/2000/svg" viewBox="0 0 56.4 56.4"><defs><style>.cls-1{fill:#9d9d9c;}</style></defs><title>Calm</title><g id="Layer_2" data-name="Layer 2"><g id="Слой_1" data-name="Слой 1"><g id="item-Page"><g id="Mobile-Icons"><g id="Group-Copy-19"><g id="_14" data-name=" 14"><path id="Shape" class="cls-1" d="M39.12,2.21A1.1,1.1,0,0,0,38,4.08a1.08,1.08,0,0,0,.29.13,26,26,0,1,1-10.12-2,1.11,1.11,0,1,0,0-2.21,28.2,28.2,0,1,0,11,2.21Z"/><path id="Shape-2" class="cls-1" d="M41.73,39.37a1,1,0,0,0-1.39.25l-.09.16a5.9,5.9,0,0,1-5.07,3.3,5.67,5.67,0,0,1-5-3.26,1,1,0,0,0-1.3-.55l-.17.09A1.27,1.27,0,0,0,28.29,41a7.85,7.85,0,0,0,6.9,4.49A8.06,8.06,0,0,0,42.11,41,1.26,1.26,0,0,0,41.73,39.37Z"/><path id="Shape-3" class="cls-1" d="M48.39,25.11a6.11,6.11,0,0,1-5.34,3.11,6.34,6.34,0,0,1-5.35-3.08,1.07,1.07,0,0,1,.37-1.47h0a1.09,1.09,0,0,1,1.49.37,4.16,4.16,0,0,0,3.49,2,4,4,0,0,0,3.44-2A1.09,1.09,0,0,1,48,23.62a1.07,1.07,0,0,1,.46,1.44Z"/><path id="Shape-4" class="cls-1" d="M31.14,25.11a6.11,6.11,0,0,1-5.34,3.11,6.34,6.34,0,0,1-5.35-3.08,1.07,1.07,0,0,1,.37-1.47h0a1.09,1.09,0,0,1,1.49.37,4.16,4.16,0,0,0,3.49,2,4,4,0,0,0,3.44-2,1.09,1.09,0,0,1,1.47-.42,1.07,1.07,0,0,1,.46,1.44Z"/><path id="Shape-5" class="cls-1" d="M17.8,20.27a1.3,1.3,0,0,0,1.6-.41,5.49,5.49,0,0,1,2.54-1.69,6.22,6.22,0,0,1,3.13-.45A1.23,1.23,0,0,0,26.53,17a1,1,0,0,0-.75-1.2H25.7a5.4,5.4,0,0,0-1.21-.1,10.22,10.22,0,0,0-3.53.7A7.65,7.65,0,0,0,17.31,19a.91.91,0,0,0,.37,1.23Z"/><path id="Shape-6" class="cls-1" d="M42.3,17a1.23,1.23,0,0,0,1.46.68,6.26,6.26,0,0,1,3.14.47,5.49,5.49,0,0,1,2.54,1.69,1.31,1.31,0,0,0,1.6.41.92.92,0,0,0,.59-1.15.76.76,0,0,0-.09-.18,7.56,7.56,0,0,0-3.65-2.56,10.37,10.37,0,0,0-3.53-.7,5.53,5.53,0,0,0-1.21.13,1,1,0,0,0-.86,1.12S42.3,17,42.3,17Z"/><circle id="Oval" class="cls-1" cx="35.2" cy="2.35" r="1.57"/></g></g></g></g></g></g></svg>