<svg id="hover-map" xmlns="http://www.w3.org/2000/svg" viewBox="0 0 87.29 83"><defs><style>.cls-1{fill:#7b7b7b}</style></defs><title>yoga</title><path class="cls-1" d="M146.9 164.14a19.8 19.8 0 0 1-2.39-.13 87.68 87.68 0 0 1-9.5-1.89c-3.64-.87-6.79-1.62-9-1.5-2.26-.12-5.4.63-9 1.5a87.68 87.68 0 0 1-9.5 1.89 36.45 36.45 0 0 1-7.89-.24c-1.39-.14-2.82-.29-4.17-.34-2.38-.09-6.08-1.75-6.71-4.24a4.24 4.24 0 0 1-.08-1.71 5.93 5.93 0 0 1-3.66-.28 2.18 2.18 0 0 1-.78-.67 2.83 2.83 0 0 1-.61.06 1.65 1.65 0 0 1-1.14-.42l-.15-.19v-.29c.08-.35.45-.68 1.35-1.45a22.23 22.23 0 0 0 1.67-1.52c.25-.26.75-.84 1.13-1.32-.18.09-.4.18-.65.28-.7.26-1.79 0-2-.47l-.2-.42.42-.29a18.93 18.93 0 0 0 2.96-2.22c.38-.34.68-.6.86-.73a3.51 3.51 0 0 1 2.16-.62 2.05 2.05 0 0 0 1.16-.25c2.3-1.47 5.75-8.23 7-10.77.26-.5.45-.89.57-1.1a8.09 8.09 0 0 1 1.72-1.94 8.25 8.25 0 0 0 1.8-2 7.52 7.52 0 0 0 .85-2.3c.08-.36.18-.78.34-1.33s.35-1.12.61-1.9a34.54 34.54 0 0 0 1.71-6.37 14.77 14.77 0 0 1 2.43-8.53 5.21 5.21 0 0 1 3.15-2.35 25.24 25.24 0 0 0 4.55-2.22c1.19-.72 4-2.87 4.48-3.28a8.7 8.7 0 0 0 .13-2.54 3.41 3.41 0 0 0-.41-.46 2.09 2.09 0 0 1-.49-.62 9.74 9.74 0 0 1-.42-2.14l-.18-.13c-.88-.79-1.33-3.92-1.31-4.34 0-.59.61-.9 1.07-1.05a23 23 0 0 1 .25-5.91c.61-3.24 4.12-4.3 7-4.22 2.81-.08 6.32 1 6.92 4.22a22.89 22.89 0 0 1 .25 5.91c.46.15 1.06.46 1.07 1.05 0 .41-.43 3.55-1.31 4.33l-.18.13a9.8 9.8 0 0 1-.42 2.14 2.07 2.07 0 0 1-.49.61 3.36 3.36 0 0 0-.42.46 7.68 7.68 0 0 0 .16 2.57c.44.37 3.22 2.5 4.45 3.25a25.24 25.24 0 0 0 4.54 2.15 5.21 5.21 0 0 1 3.15 2.35 14.75 14.75 0 0 1 2.43 8.52 34.29 34.29 0 0 0 1.71 6.38c.25.77.47 1.44.61 1.9s.26 1 .34 1.33a7.55 7.55 0 0 0 .85 2.3 8.22 8.22 0 0 0 1.8 2 8.08 8.08 0 0 1 1.72 1.94c.12.21.31.59.56 1.09 1.3 2.55 4.75 9.31 7.06 10.78a2 2 0 0 0 1.16.25 3.51 3.51 0 0 1 2.16.62c.18.13.49.39.86.73a18.9 18.9 0 0 0 2.86 2.22l.4.23-.18.48a1.85 1.85 0 0 1-2 .47c-.26-.1-.47-.19-.65-.28.39.49.89 1.07 1.13 1.32a22.15 22.15 0 0 0 1.67 1.52c.9.77 1.27 1.09 1.35 1.45l.05.23-.16.24a1.65 1.65 0 0 1-1.14.42 2.9 2.9 0 0 1-.62-.06 2.17 2.17 0 0 1-.78.67 5.93 5.93 0 0 1-3.59.28 4.24 4.24 0 0 1-.08 1.71c-.63 2.49-4.34 4.15-6.71 4.24-1.34.05-2.78.2-4.17.34a54.92 54.92 0 0 1-5.49.47zm-20.37-4.54a42.9 42.9 0 0 1 8.7 1.54 86.88 86.88 0 0 0 9.39 1.87 35.73 35.73 0 0 0 7.67-.24c1.4-.14 2.86-.29 4.23-.34 2-.08 5.28-1.51 5.78-3.49a3.33 3.33 0 0 0-.2-2.18l-1.1-2.14 1.88 1.52c.95.77 2.77.54 3.7.14a1.82 1.82 0 0 0 .54-.59l.21-.34.38.13a2.29 2.29 0 0 0 .59.11l-.68-.58a22.87 22.87 0 0 1-1.75-1.59c-2.27-2.36-1.95-2.81-1.81-3 .44-.63 1-.34 1.4-.13a8.65 8.65 0 0 0 1 .44c-.75-.55-1.46-1.18-2-1.69-.34-.3-.61-.54-.77-.66a2.52 2.52 0 0 0-1.61-.44 3 3 0 0 1-1.67-.41c-2.54-1.62-6-8.31-7.41-11.17-.25-.48-.43-.85-.55-1.06a7.41 7.41 0 0 0-1.52-1.68 9 9 0 0 1-2-2.32 8.52 8.52 0 0 1-.95-2.55c-.08-.35-.17-.75-.33-1.28s-.35-1.1-.6-1.86c-.74-2.25-1.75-5.33-1.76-6.67a13.66 13.66 0 0 0-2.27-8 4.23 4.23 0 0 0-2.67-2 26.13 26.13 0 0 1-4.71-2.3c-1.27-.77-4.13-3-4.61-3.37s-.56-2.15-.48-3.49v-.08l.06-.1a3.67 3.67 0 0 1 .64-.76 2 2 0 0 0 .27-.3 11.27 11.27 0 0 0 .37-2.18v-.53l.45.07a9.28 9.28 0 0 0 1-3.53 4.82 4.82 0 0 0-.71-.22l-.46-.09.06-.47a22.21 22.21 0 0 0-.19-6c-.64-3.45-5.41-3.42-5.94-3.4s-5.32 0-6 3.4a22.22 22.22 0 0 0-.19 6l.06.47-.46.09a1.72 1.72 0 0 0-.73.29 10 10 0 0 0 1 3.46l.45-.07v.53a11.24 11.24 0 0 0 .37 2.17 1.92 1.92 0 0 0 .28.31 3.71 3.71 0 0 1 .64.76l.06.1v.12c.08 1.34.07 3-.47 3.49s-3.35 2.61-4.61 3.37a26.13 26.13 0 0 1-4.71 2.3 4.23 4.23 0 0 0-2.67 2 13.67 13.67 0 0 0-2.27 8c0 1.35-1 4.43-1.76 6.68-.25.76-.47 1.42-.6 1.86s-.24.93-.32 1.27a8.51 8.51 0 0 1-.95 2.55 9 9 0 0 1-2 2.32 7.41 7.41 0 0 0-1.52 1.68c-.11.21-.3.58-.55 1.07-1.46 2.85-4.87 9.54-7.4 11.16a3 3 0 0 1-1.67.41 2.52 2.52 0 0 0-1.61.44c-.16.11-.43.36-.77.66-.57.51-1.29 1.15-2 1.69a8.6 8.6 0 0 0 1-.45c.4-.21 1-.5 1.4.13.15.21.45.64-1.81 3a23 23 0 0 1-1.9 1.55l-.67.58a2.28 2.28 0 0 0 .58-.11l.38-.13.21.34a1.82 1.82 0 0 0 .54.59c.93.4 2.75.63 3.7-.14l1.93-1.56-1.18 2.19a3.34 3.34 0 0 0-.2 2.17c.49 1.91 3.79 3.41 5.78 3.49 1.37.05 2.83.2 4.23.34a35.73 35.73 0 0 0 7.67.24 86.93 86.93 0 0 0 9.39-1.87c3.72-.89 6.93-1.65 9.27-1.53zm29.79-8.69l-.23-.11c-.15-.07-3.67-1.81-4.78-2.47-.38-.22-.71-.46-1.08-.72a17.25 17.25 0 0 0-3.77-2.1 33.56 33.56 0 0 0-5.76-1.63 10.26 10.26 0 0 1-2-.52c-2.73-1.41-2.2-5.12-1.88-7.33a11.24 11.24 0 0 0 .15-1.31c0-1.6 1.51-11.24 1.57-11.65l.36-2.31.61 2.26c0 .06 1.57 5.75 2.38 7.14a18.45 18.45 0 0 0 1.06 1.57 5.65 5.65 0 0 1 1.19 2.14c.5 3.5 1.58 5.14 2.4 5.91l2.3 2.15c1.65 1.54 3.22 3 3.54 3.33s.8.76 1.48 1.38c.89.83 1.93 1.78 2.41 2.26a1.64 1.64 0 0 1 .64 1.32.79.79 0 0 1-.39.58zm-17.13-25.44c-.54 3.57-1.21 8.26-1.21 9.24a11.64 11.64 0 0 1-.16 1.45c-.3 2.08-.75 5.22 1.35 6.3a13.15 13.15 0 0 0 1.74.43 34.91 34.91 0 0 1 5.94 1.68 18.35 18.35 0 0 1 4 2.21c.34.24.66.47 1 .68.66.39 2.28 1.22 3.44 1.79-.53-.51-1.34-1.26-2.05-1.91s-1.29-1.2-1.51-1.41-1.94-1.84-3.52-3.31l-2.3-2.15c-1.36-1.27-2.27-3.45-2.7-6.46a5.34 5.34 0 0 0-1-1.72 19.42 19.42 0 0 1-1.12-1.65 33.31 33.31 0 0 1-1.91-5.17zm-43.53 25.44l-.23-.12a.79.79 0 0 1-.39-.58 1.64 1.64 0 0 1 .64-1.32c.5-.5 1.54-1.46 2.47-2.32.65-.6 1.22-1.13 1.43-1.33s2.07-2 3.74-3.51l2.11-2c.82-.77 1.9-2.41 2.4-5.88a5.6 5.6 0 0 1 1.19-2.17 18.5 18.5 0 0 0 1.06-1.56 56 56 0 0 0 2.38-7.14l.61-2.26.36 2.31c.06.41 1.57 10.05 1.57 11.65a11.24 11.24 0 0 0 .15 1.31c.32 2.22.86 5.92-1.88 7.34a10.31 10.31 0 0 1-2 .52 33.54 33.54 0 0 0-5.76 1.63 17.23 17.23 0 0 0-3.77 2.1c-.36.26-.7.5-1.08.72-1.11.66-4.63 2.39-4.78 2.47zm17.13-25.44a33.62 33.62 0 0 1-1.85 5.18 19.49 19.49 0 0 1-1.12 1.65 5.49 5.49 0 0 0-1 1.69c-.43 3-1.34 5.21-2.71 6.49l-2.11 2c-1.66 1.55-3.39 3.16-3.71 3.48s-.79.74-1.45 1.36-1.55 1.44-2.11 2c1.16-.58 2.78-1.4 3.44-1.8.35-.21.67-.44 1-.68a18.33 18.33 0 0 1 4-2.2 34.88 34.88 0 0 1 5.94-1.68 12.92 12.92 0 0 0 1.74-.43c2.1-1.09 1.65-4.23 1.35-6.3a11.64 11.64 0 0 1-.16-1.45c-.04-1.05-.7-5.78-1.24-9.31z" transform="translate(-82.35 -81.14)"/></svg>