<svg id="hover-map" xmlns="http://www.w3.org/2000/svg" viewBox="0 0 855.39 853.92"><defs><style>.cls-1{fill:#cc8b53}.cls-2{clip-path:url(#clip-path)}</style><clipPath id="clip-path" transform="translate(-264.83 -341.63)"><path class="cls-1" d="M933.84 1028.83c-1.91-2-14.07-15.67-12.9-17.33 2.21-3.14 3.52 0 13.33 3.75 4.65 1.78 11.35-1.2 9.94-2-11-6.24-23.47-18.92-27.48-21.73-9.73-6.81-16.38-1.39-24.09-6.31-20.8-13.27-51.28-77.86-56.89-88S816.33 880 810 868.06s-5.35-14.56-9-27.25-17-48.89-17.09-61.36-.31-34.42-17.17-60.37C754.91 701 748.32 709 711.61 686.79c-9.17-5.56-29.83-21.41-33.21-24.28S676.21 640 676.21 640c2.12-3.65 5.89-6 6.85-8.16 1.78-4 3-17 3-17 6.29.94 10.72-26.11 10.6-29.66s-8.15-5.07-8.15-5.07 2.85-22.31-1.44-45.25-30.85-28.3-47.09-27.83c-16.24-.47-42.8 4.86-47.09 27.82s-1.44 45.26-1.44 45.26-8 1.52-8.16 5.07 4.32 30.6 10.61 29.66c0 0 1.23 13 3 17 1 2.21 4.72 4.52 6.84 8.16 0 0 1.2 19.59-2.18 22.47s-24 18.72-33.22 24.28C531.67 709 525.08 701 513.32 719.08c-16.86 26-17.05 47.92-17.18 60.37s-13.41 48.69-17.14 61.37-2.62 15.29-9 27.25-20.19 19-25.8 29.15-36.1 74.73-56.9 88c-7.71 4.92-14.35-.5-24.08 6.31-4 2.81-16.45 15.49-27.49 21.73-1.42.8 5.29 3.77 10 2 9.8-3.73 11.11-6.9 13.32-3.75 1.17 1.66-11 15.35-12.89 17.33-8.25 8.67-20.55 17.21-21.15 20-.19.86 2.71 2 5.67 2.08a19.52 19.52 0 0 0 5.94-1s2.72 4.52 5.62 5.76c7.83 3.34 22.53 5.07 30.74-1.54a27.65 27.65 0 0 0-1.81 18.51c4.18 16.42 30.24 27.66 45.63 28.25 28.34 1.09 59.9 7.65 87.52 4.28 51.75-6.34 105.41-26.46 135.69-24.84 30.28-1.62 83.94 18.5 135.71 24.84 27.6 3.37 59.16-3.19 87.5-4.28 15.4-.59 41.45-11.83 45.63-28.25a27.69 27.69 0 0 0-1.81-18.51c8.19 6.61 22.9 4.88 30.73 1.54 2.9-1.24 5.62-5.76 5.62-5.76a19.53 19.53 0 0 0 6 1c2.94-.07 5.85-1.23 5.66-2.08-.67-2.84-12.96-11.34-21.21-20.01zm-388.37-74.16c-5.07 2.62-33.66 6.1-56.37 15.59-20.69 8.64-26.72 15.36-35.9 20.84-8.06 4.78-34.68 17.88-34.68 17.88s-3.51-1.91 2.7-8.13 24.87-23.08 28.43-26.64 28.42-26.64 42.63-40 17.77-39.06 18.65-45.28 9.77-15.1 16-25.75 17.76-53 17.76-53 11.42 73 11.42 84.57 11.68 48.38-10.64 59.92zm316 54.3s-26.62-13.1-34.69-17.88c-9.16-5.48-15.2-12.2-35.89-20.84-22.72-9.48-51.31-13-56.36-15.59-22.33-11.53-10.67-48.36-10.67-59.91s11.44-84.57 11.44-84.57 11.54 42.38 17.76 53 15.09 19.54 16 25.75 4.44 32 18.66 45.28 39.07 36.4 42.63 40 22.21 20.43 28.43 26.64 2.69 8.15 2.69 8.15z"/></clipPath></defs><title>Yoga-man</title><path class="cls-1" d="M933.84 1028.83c-1.91-2-14.07-15.67-12.9-17.33 2.21-3.14 3.52 0 13.33 3.75 4.65 1.78 11.35-1.2 9.94-2-11-6.24-23.47-18.92-27.48-21.73-9.73-6.81-16.38-1.39-24.09-6.31-20.8-13.27-51.28-77.86-56.89-88S816.33 880 810 868.06s-5.35-14.56-9-27.25-17-48.89-17.09-61.36-.31-34.42-17.17-60.37C754.91 701 748.32 709 711.61 686.79c-9.17-5.56-29.83-21.41-33.21-24.28S676.21 640 676.21 640c2.12-3.65 5.89-6 6.85-8.16 1.78-4 3-17 3-17 6.29.94 10.72-26.11 10.6-29.66s-8.15-5.07-8.15-5.07 2.85-22.31-1.44-45.25-30.85-28.3-47.09-27.83c-16.24-.47-42.8 4.86-47.09 27.82s-1.44 45.26-1.44 45.26-8 1.52-8.16 5.07 4.32 30.6 10.61 29.66c0 0 1.23 13 3 17 1 2.21 4.72 4.52 6.84 8.16 0 0 1.2 19.59-2.18 22.47s-24 18.72-33.22 24.28C531.67 709 525.08 701 513.32 719.08c-16.86 26-17.05 47.92-17.18 60.37s-13.41 48.69-17.14 61.37-2.62 15.29-9 27.25-20.19 19-25.8 29.15-36.1 74.73-56.9 88c-7.71 4.92-14.35-.5-24.08 6.31-4 2.81-16.45 15.49-27.49 21.73-1.42.8 5.29 3.77 10 2 9.8-3.73 11.11-6.9 13.32-3.75 1.17 1.66-11 15.35-12.89 17.33-8.25 8.67-20.55 17.21-21.15 20-.19.86 2.71 2 5.67 2.08a19.52 19.52 0 0 0 5.94-1s2.72 4.52 5.62 5.76c7.83 3.34 22.53 5.07 30.74-1.54a27.65 27.65 0 0 0-1.81 18.51c4.18 16.42 30.24 27.66 45.63 28.25 28.34 1.09 59.9 7.65 87.52 4.28 51.75-6.34 105.41-26.46 135.69-24.84 30.28-1.62 83.94 18.5 135.71 24.84 27.6 3.37 59.16-3.19 87.5-4.28 15.4-.59 41.45-11.83 45.63-28.25a27.69 27.69 0 0 0-1.81-18.51c8.19 6.61 22.9 4.88 30.73 1.54 2.9-1.24 5.62-5.76 5.62-5.76a19.53 19.53 0 0 0 6 1c2.94-.07 5.85-1.23 5.66-2.08-.67-2.84-12.96-11.34-21.21-20.01zm-388.37-74.16c-5.07 2.62-33.66 6.1-56.37 15.59-20.69 8.64-26.72 15.36-35.9 20.84-8.06 4.78-34.68 17.88-34.68 17.88s-3.51-1.91 2.7-8.13 24.87-23.08 28.43-26.64 28.42-26.64 42.63-40 17.77-39.06 18.65-45.28 9.77-15.1 16-25.75 17.76-53 17.76-53 11.42 73 11.42 84.57 11.68 48.38-10.64 59.92zm316 54.3s-26.62-13.1-34.69-17.88c-9.16-5.48-15.2-12.2-35.89-20.84-22.72-9.48-51.31-13-56.36-15.59-22.33-11.53-10.67-48.36-10.67-59.91s11.44-84.57 11.44-84.57 11.54 42.38 17.76 53 15.09 19.54 16 25.75 4.44 32 18.66 45.28 39.07 36.4 42.63 40 22.21 20.43 28.43 26.64 2.69 8.15 2.69 8.15z" transform="translate(-264.83 -341.63)"/><g class="cls-2"><path class="cls-1" d="M0 0h855.39v853.92H0z"/></g></svg>