<svg id="Слой_1" data-name="Слой 1" xmlns="http://www.w3.org/2000/svg" viewBox="0 0 57 37.36"><defs><style>.cls-1{fill:#9d9d9c}</style></defs><title>mus-instrument-3</title><path class="cls-1" d="M71.6 50.53a7.94 7.94 0 0 0-1.51-4.14c0-.15 0-.3.06-.46.17-2.91-3.74-12.4-4.85-15a2.94 2.94 0 0 0 .28-2 2.62 2.62 0 0 0-.16-.47 2.61 2.61 0 0 0-.06-.51c-.41-1.83-2.68-3-5.92-3a15.4 15.4 0 0 0-3.39.39c-4.65 1.06-7.86 3.84-7.29 6.33a2.64 2.64 0 0 0 .16.43 2.6 2.6 0 0 0 .06.55 3 3 0 0 0 1.22 1.75 110.71 110.71 0 0 0 .93 12.07 8.17 8.17 0 0 0-1.67 5.4c.3 4.8 5 8.55 10.8 8.55h.84a12.26 12.26 0 0 0 7.62-3.14 8.48 8.48 0 0 0 2.88-6.75zm-20.92 1.29v-.22l1.57-1.31c.07.11.15.22.23.32l-1.77 1.48c0-.09-.02-.18-.03-.27zm2.64-.32c.1.09.22.16.33.24l-2.51 2.1-.15-.39zm-1.6 3.5l3.06-2.56.39.19-3.23 2.7zm3.21-.57l-.06 3.48-.38-.22.05-2.94zm1.24-1l.35-.3h.05l-.1 5.52-.4-.15zm1.62 0l.42.06v2.26l-.1 3.25-.42-.08zm1.54 5.61l.32.28h-.32zm0-1.61v-.6l2.69 2.37-.61.07zm0-2.21v-.6l4.64 4.1-.51.15zm.66-1.66h.65l5.05 4.46-.44.22zm2.35-.27L63 53l-.05.71-.59-.53h.1zm3.77 3.44l-.48-.42.37-4.71.54-.36zm-1.63-1.44l-.49-.43.17-2.19.54-.25zm2.89 1.06l.33.25-.37.32zm.11-1.45l.06-.82 1.44 1.09c-.13.19-.28.36-.43.54zm.17-2.27l.06-.82L70 53.35q-.12.33-.28.65zm.13-2.3q.26-.24.49-.49l2.05 1.55a6.57 6.57 0 0 1-.08.8zm1.26-1.45a6.88 6.88 0 0 0 .5-.85 6.72 6.72 0 0 1 .64 1.72zM56.33 26.56a14.17 14.17 0 0 1 3.12-.36c2.55 0 4.45.81 4.72 2 .36 1.57-2.12 3.9-6.37 4.87a14.11 14.11 0 0 1-3.12.36c-2.55 0-4.45-.81-4.72-2-.36-1.58 2.12-3.91 6.37-4.87zm-1.43 9.08a15.34 15.34 0 0 0 3.39-.39 13.4 13.4 0 0 0 5.44-2.49 7.3 7.3 0 0 0 .73-.69c1.67 4 4.59 11.56 4.46 13.79-.16 2.75-3.68 5.38-6.9 6.16s-7.55-.16-8.88-2.58c-1.07-1.95-1.55-10-1.7-14.37a9.77 9.77 0 0 0 3.46.57zm-3.19 13.5l-.83.69a7.07 7.07 0 0 1 .59-1.56c.09.32.16.61.25.87zm1 7.09l.58-.48v1q-.29-.25-.57-.52z" transform="translate(-14.62 -24.44)"/><ellipse class="cls-1" cx="57.01" cy="29.57" rx="3.9" ry="1.95" transform="rotate(-12.8 -59.265 82.498)"/><path class="cls-1" d="M44.4 31.87c.08-1.91-1.25-3.72-3.76-5.12a20.76 20.76 0 0 0-9-2.29H30.5c-6.8 0-12.05 2.7-12.21 6.28v.14c-.73 1.22-4.9 8.59-3.34 13.73a12.86 12.86 0 0 0 2.06 4 7.46 7.46 0 0 0-.94 4c.32 5.23 6.3 9.18 13.9 9.18h1.34c8.06-.5 14.33-5.41 14-10.95a7.19 7.19 0 0 0-.43-2A14 14 0 0 0 46.54 46c2.32-5.14-1.68-13.18-2.15-14.09 0-.01 0-.02.01-.04zm-13.89-6.21h1.08A19.56 19.56 0 0 1 40 27.82c2.08 1.16 3.2 2.58 3.13 4-.13 2.86-5 5.11-11 5.11h-1.08c-6.41-.28-11.71-3.09-11.58-6.13.18-2.9 5.01-5.14 11.04-5.14zM20.35 51.79l-2.78 2.08a5.77 5.77 0 0 1-.26-1.33 6.14 6.14 0 0 1 .57-2.91 15.1 15.1 0 0 0 2.47 2.16zm20.26.73l.19 3.07-2.6-1.86a17.65 17.65 0 0 0 2.41-1.2zm.22 4.6a14.67 14.67 0 0 1-4 2.21l.54-4.68zm-5.13 1.57l-2.82-3.64a19.67 19.67 0 0 0 3.32-.64zm-6 .58l-2.61-4.57a20 20 0 0 0 3.24.45h.55zm-.7 1.27a17.79 17.79 0 0 1-5-1l1.92-4.47zm-5.5-2.89L22 52.82a19.06 19.06 0 0 0 3 1.3zM18.05 55l2.73-2 1.86 6a9.84 9.84 0 0 1-4.59-4zm13.19 5.49h-.69L32 55.85l3.15 4.06a19.84 19.84 0 0 1-3.91.62zM42.05 56l-.24-3.84 2.14.31a7.54 7.54 0 0 1-1.9 3.53zm2-5.12v.37l-1.4-.2a14.87 14.87 0 0 0 1.24-1.17 5.69 5.69 0 0 1 .2 1.01zm1.34-5.38c-2.75 6.08-9.54 8.61-15 8.42-5.72-.31-12.34-3.43-14.25-9.7-1.08-3.55 1-8.55 2.36-11.16C19.63 36.22 24.67 38.7 31 39h1.14c5.91 0 10.65-2 11.89-4.92C45.17 36.75 47 42 45.42 45.5z" transform="translate(-14.62 -24.44)"/><ellipse class="cls-1" cx="31.43" cy="30.42" rx="3.29" ry="6.58" transform="rotate(-87.46 11.352 25.844)"/><path class="cls-1" d="M26.33 59.31a.69.69 0 0 0 .64-.73.69.69 0 0 0-.69-.65.69.69 0 0 0 0 1.38zm6.29-.99a.69.69 0 0 0-.64.73.69.69 0 0 0 .69.65.69.69 0 0 0 0-1.37zM20 55a.69.69 0 0 0 0 1.37.69.69 0 0 0 0-1.37zm18.39 2.73a.69.69 0 0 0 0-1.37.69.69 0 0 0-.64.73.69.69 0 0 0 .64.64zm4.46-5.13a.69.69 0 0 0 0 1.37.69.69 0 0 0 .47-.23.68.68 0 0 0 .17-.5.69.69 0 0 0-.64-.64z" transform="translate(-14.62 -24.44)"/></svg>