<svg id="появление_текста" data-name="появление текста" xmlns="http://www.w3.org/2000/svg" viewBox="0 0 36.35 45.62"><defs><style>.marker-cls-1{fill:#9d9d9c;}</style></defs><title>location</title><path class="marker-cls-1" d="M18.19,0A18.24,18.24,0,0,0,0,18.23a18.49,18.49,0,0,0,.35,3.62c0,.08,0,.16,0,.28,2,9,16.11,22.52,16.7,23.07a1.51,1.51,0,0,0,1.1.43,1.69,1.69,0,0,0,1.1-.43c.59-.59,14.62-14.07,16.62-22.87,0-.08,0-.16,0-.24A18.31,18.31,0,0,0,18.19,0ZM32.81,21.49v.12c-1.49,6.52-11.28,16.82-14.62,20.16C14.85,38.43,5,28.14,3.54,21.46a.35.35,0,0,0,0-.2,16.23,16.23,0,0,1-.31-3.07,15,15,0,1,1,30,0A15.17,15.17,0,0,1,32.81,21.49Z"/><path class="marker-cls-1" d="M18.19,10.26a6.09,6.09,0,1,0,6.09,6.09A6.1,6.1,0,0,0,18.19,10.26Zm0,9a2.91,2.91,0,1,1,2.91-2.91A2.9,2.9,0,0,1,18.19,19.25Z"/></svg>