<svg viewBox="0 0 36.35 45.62" xmlns="http://www.w3.org/2000/svg"><g fill="#9d9d9c"><path d="m18.19 0a18.24 18.24 0 0 0 -18.19 18.23 18.49 18.49 0 0 0 .35 3.62v.28c2 9 16.11 22.52 16.7 23.07a1.51 1.51 0 0 0 1.1.43 1.69 1.69 0 0 0 1.1-.43c.59-.59 14.62-14.07 16.62-22.87 0-.08 0-.16 0-.24a18.31 18.31 0 0 0 -17.68-22.09zm14.62 21.49v.12c-1.49 6.52-11.28 16.82-14.62 20.16-3.34-3.34-13.19-13.63-14.65-20.31a.35.35 0 0 0 0-.2 16.23 16.23 0 0 1 -.31-3.07 15 15 0 1 1 30 0 15.17 15.17 0 0 1 -.42 3.3z"/><path d="m18.19 10.26a6.09 6.09 0 1 0 6.09 6.09 6.1 6.1 0 0 0 -6.09-6.09zm0 9a2.91 2.91 0 1 1 2.91-2.91 2.9 2.9 0 0 1 -2.91 2.9z"/></g></svg>