<svg viewBox="0 0 52.42 47.62" xmlns="http://www.w3.org/2000/svg"><path d="M43.52 47.62h-.4l-.87-.06-.06-.87A8.72 8.72 0 0 1 45 40.21a8.71 8.71 0 0 1 6.47-2.82l.87.06.06.87a8.73 8.73 0 0 1-2.83 6.47 8.94 8.94 0 0 1-6.05 2.83zm6.84-8.19a8.21 8.21 0 0 0-6.12 6.12 8.23 8.23 0 0 0 6.12-6.12zm-30-6.07c-8.11 0-15.7-2.94-19.81-7.66L0 25l.57-.66c4.11-4.73 11.7-7.66 19.81-7.66s15.7 2.94 19.81 7.66l.57.66-.57.66c-4.1 4.77-11.69 7.71-19.81 7.71zM3.77 26c4 3.32 10.09 5.32 16.61 5.32S33 29.37 37 26zm27.57-2H37a23.54 23.54 0 0 0-10.34-4.69zm-8.61 0h5.78l-5.18-5.18a32.15 32.15 0 0 0-5.79 0zm-8.61 0h5.78L15 19.18a28.51 28.51 0 0 0-4.6 1.19zM3.77 24h7.53l-2.87-2.82A20.13 20.13 0 0 0 3.77 24zm45.61-13.8a8.94 8.94 0 0 1-6.07-2.84A8.73 8.73 0 0 1 40.49.94l.06-.87.87-.07a8.72 8.72 0 0 1 6.47 2.83 8.74 8.74 0 0 1 2.82 6.47l-.06.87-.87.06zm-6.84-8.14A7.59 7.59 0 0 0 44.73 6a7.58 7.58 0 0 0 3.93 2.19 7.6 7.6 0 0 0-2.19-3.94 7.59 7.59 0 0 0-3.93-2.19z" fill="#7b7b7b"/></svg>