<svg height="1024" viewBox="0 0 1390 1024" width="1390" xmlns="http://www.w3.org/2000/svg"><path d="M1389.777 316.308v-13.677H1376.1a657.77 657.77 0 0 0-20.595-.311c-165.673 0-317.533 59.142-435.618 157.466l1.102-.892c-12.688-177.703-91.804-334.805-212.373-448.39l-.342-.32L698.38.872l-9.894 9.312C566.265 124.771 486.532 283.401 474.717 460.619l-.11 2.058C356.985 363.119 203.558 302.594 35.994 302.594c-7.439 0-14.85.119-22.231.356l1.077-.027H1.163V316.6a662.846 662.846 0 0 0-.254 18.702c0 190.325 77.162 362.627 201.909 487.331l.002.002c122.654 123.675 292.31 200.573 479.93 201.656l.207.001h26.189c187.781-1.035 357.427-77.824 480.099-201.328l.038-.038c124.084-124.506 200.803-296.285 200.803-485.982 0-7.256-.112-14.486-.335-21.688l.026 1.053zM501.961 490.903c4.064-177.303 78.343-336.5 196.005-451.499l.124-.121c116.603 114.211 190.518 271.614 195.814 446.274l.024.98v22.406c.004.848.006 1.852.006 2.857 0 182.807-75.054 348.085-196.028 466.7l-.106.104-5.529-5.238C574.138 855.117 501.079 691.819 501.079 511.458c0-1.293.004-2.586.011-3.878l-.001.199c.291-3.783.582-9.603.582-15.714zM29.39 329.694c2.327-.03 5.075-.047 7.827-.047 167.823 0 320.807 63.537 436.207 167.869l-.563-.501v11.64c-.004.834-.006 1.822-.006 2.81 0 187.88 75.93 358.026 198.778 481.425l-.025-.025c-175.721-3.926-333.713-76.705-448.679-192.315l-.03-.03C103.165 680.995 29.094 515.761 29.094 333.227c0-.832.002-1.664.005-2.496v.128zm695.47 662.879c122.649-123.344 198.462-293.372 198.462-481.107 0-.989-.002-1.977-.006-2.964l.001.153V492.65c114.343-101.189 265.592-162.976 431.273-162.976 1.834 0 3.665.008 5.495.023l-.281-.002c.009 1.291.014 2.817.014 4.344 0 182.174-73.844 347.101-193.233 466.481-113.257 114.417-268.449 187.137-440.602 193.187l-1.124.031z"/></svg>