<svg viewBox="0 0 513.98 99.25" xmlns="http://www.w3.org/2000/svg"><path d="M249.52 85.97l7.46 12.52 7.49-12.52zm7.5-15.9h-.1a9.25 9.25 0 0 1-6.1-2.38 8.41 8.41 0 0 1-2.48-6v-.31h.33a9.48 9.48 0 0 1 5.63 1.88" fill="none" stroke="#555" stroke-miterlimit="10" stroke-width=".75"/><path d="M259.67 63.33a9.45 9.45 0 0 1 5.67-1.92h.32v.31a8.42 8.42 0 0 1-2.49 6 9.26 9.26 0 0 1-6.1 2.38h-.43" fill="none" stroke="#555" stroke-miterlimit="10" stroke-width=".75"/><path d="M258.19 90.8a1.19 1.19 0 1 1-1.19-1.14 1.16 1.16 0 0 1 1.19 1.14" fill="#555"/><g fill="none" stroke="#555" stroke-miterlimit="10" stroke-width=".75"><path d="M257.01 69.97l-.23-.21a8 8 0 0 1 0-11.81l.23-.21.24.21a8 8 0 0 1 0 11.81zm-47.36-19.91a3.76 3.76 0 0 0-2.75-1.23 4.2 4.2 0 0 0 4 4 3.78 3.78 0 0 0-1.25-2.77zm-21.29 27.3a3.75 3.75 0 0 0 2.8-1.08 4.18 4.18 0 0 0-5.61 0 3.76 3.76 0 0 0 2.81 1.08zm69.57-42.39a1.61 1.61 0 1 0-1.08 2.81 3.78 3.78 0 0 0 1.08-2.81zm99.08 37.9l-3.43 3.42m7.51-3.32l-3.33 3.32m6.55-2.36l-2.37 2.36m6.04-.02h-18.51m9.26-3.55c4 0 7.41 1.43 9.26 3.55-1.85 2.12-5.3 3.55-9.26 3.55s-7.41-1.43-9.26-3.55c1.85-2.12 5.3-3.55 9.26-3.55zm-35.31-41.2v4.84m2.95-7.65v4.7m7.21-7.24l-13.09 13.08m4.03-9.05c2.8-2.8 6.25-4.22 9.06-4 .19 2.81-1.24 6.25-4 9.05s-6.25 4.22-9.06 4c-.22-2.81 1.21-6.28 4-9.05zm-20.13 19.77a3.78 3.78 0 0 1 2.76-1.23 4.22 4.22 0 0 1-4 4 3.78 3.78 0 0 1 1.24-2.77zm21.34 27.34a3.79 3.79 0 0 1-2.82-1.08 4.22 4.22 0 0 1 5.65 0 3.78 3.78 0 0 1-2.83 1.08zm-168.72-4.44l3.42 3.42m-7.51-3.32l3.33 3.32m-6.55-2.36l2.37 2.36m-6.04-.02h18.51m-9.25-3.55c-4 0-7.41 1.43-9.26 3.55 1.85 2.12 5.3 3.55 9.26 3.55s7.41-1.43 9.26-3.55c-1.85-2.12-5.31-3.55-9.26-3.55zm35.3-41.2v4.84m-2.95-7.65v4.7m-7.21-7.24l13.09 13.08m-4-9.05c-2.8-2.8-6.25-4.22-9.06-4-.2 2.81 1.23 6.25 4 9.05s6.25 4.22 9.06 4c.19-2.81-1.24-6.28-4-9.05zm70.87-18.74l-3.42 3.43m3.32-7.51l-3.32 3.33m2.36-6.54l-2.36 2.36m.02-6.03v18.49m3.53-9.25c0-4-1.43-7.4-3.55-9.25-2.12 1.85-3.55 5.3-3.55 9.25s1.43 7.4 3.55 9.25c2.15-1.85 3.55-5.29 3.55-9.25zm-90 41.46a1.234 1.234 0 0 0-.92 2.29 12 12 0 0 0 3.13-.07 11.94 11.94 0 0 0-2.2-2.22m172.22 0a1.234 1.234 0 0 1 .92 2.29 12 12 0 0 1-3.12-.07 11.92 11.92 0 0 1 2.2-2.22m-118.4-31.08a1.234 1.234 0 1 0-2.2 1.12 11.91 11.91 0 0 0 2.4 2 11.94 11.94 0 0 0-.21-3.12m66.18-1.6a1.234 1.234 0 1 1 2.2 1.12 12 12 0 0 1-2.4 2 12 12 0 0 1 .21-3.12M161.94 46.77a1.73 1.73 0 1 0-1.29 3.2c.88.36 4.38-.09 4.38-.09s-2.2-2.75-3.09-3.11zm189.38 0a1.73 1.73 0 1 1 1.29 3.2c-.88.36-4.38-.09-4.38-.09s2.2-2.75 3.09-3.11zM219.19 9.31a1.73 1.73 0 1 0-3.08 1.57c.44.85 3.37 2.8 3.37 2.8s.14-3.52-.29-4.37zm76.5-1.6a1.73 1.73 0 1 1 3.07 1.57c-.43.85-3.36 2.8-3.36 2.8s-.14-3.52.29-4.37zM100.34 75.79a3.75 3.75 0 0 0 2.8-1.08 4.18 4.18 0 0 0-5.61 0 3.75 3.75 0 0 0 2.8 1.08"/><path d="M100.34 75.79a3.75 3.75 0 0 0 2.8-1.08 4.18 4.18 0 0 0-5.61 0 3.75 3.75 0 0 0 2.81 1.08zM2.13 73.11c1 0 4.12 1.76 4.12 1.76s-3.15 1.75-4.12 1.75a1.755 1.755 0 0 1 0-3.51zm10.96.45a12.88 12.88 0 0 1 3.08 1.31 12.88 12.88 0 0 1-3.08 1.31 1.31 1.31 0 0 1 0-2.62zm468.43-.99a7.37 7.37 0 0 1 5.51 2.11 8.23 8.23 0 0 1-11 0 7.38 7.38 0 0 1 5.49-2.11zm-44.33-1.01l1.27-7.32-6.9 1.18m23.61 9.28l10.11-10.1M428.1 74.72h48.05"/><path d="M433.04 63.64c3.41-3.42 7.63-5.16 11.06-4.92.23 3.43-1.51 7.64-4.92 11.05s-7.66 5.2-11.06 4.92c-.23-3.43 1.51-7.64 4.92-11.05zm25.24 4.07a9.57 9.57 0 0 1 7-3.11 10.68 10.68 0 0 1-10.11 10.11 9.57 9.57 0 0 1 3.11-7zm-26.72 16.3l6.9 1.18-1.27-7.31m28.09 6.96l-10.11-10.11"/><path d="M428.12 74.74c3.43-.24 7.64 1.51 11.06 4.92s5.16 7.63 4.92 11.05c-3.43.24-7.64-1.51-11.06-4.92s-5.15-7.63-4.92-11.05zm27.05-.01a10.68 10.68 0 0 1 10.11 10.11 10.67 10.67 0 0 1-10.11-10.11zM32.52 76.86a7.37 7.37 0 0 1-5.51-2.11 8.23 8.23 0 0 1 11 0 7.38 7.38 0 0 1-5.49 2.11zm44.34 1.02l-1.28 7.31 6.9-1.18m-23.6-9.28L48.77 84.84m37.18-10.12H37.89"/><path d="M81 85.79c-3.42 3.41-7.63 5.16-11.05 4.92-.23-3.43 1.51-7.64 4.92-11.05s7.63-5.16 11.05-4.92c.24 3.42-1.5 7.64-4.92 11.05zm-25.24-4.07a9.56 9.56 0 0 1-7 3.11 10.68 10.68 0 0 1 10.11-10.11 9.56 9.56 0 0 1-3.11 7zm26.72-16.3l-6.9-1.18 1.28 7.32M48.77 64.6l10.11 10.1"/><path d="M85.93 74.69c-3.43.23-7.64-1.51-11.05-4.92s-5.16-7.63-4.92-11.05c3.43-.24 7.64 1.5 11.05 4.92s5.15 7.62 4.92 11.05zm-27.05.01a10.68 10.68 0 0 1-10.11-10.11A10.68 10.68 0 0 1 58.88 74.7zm354.77-1.23a3.75 3.75 0 0 0-2.81 1.08 4.18 4.18 0 0 0 5.61 0 3.75 3.75 0 0 0-2.8-1.08"/><path d="M413.65 73.47a3.75 3.75 0 0 0-2.81 1.08 4.18 4.18 0 0 0 5.61 0 3.75 3.75 0 0 0-2.8-1.08zm98.2 2.67c-1 0-4.12-1.75-4.12-1.75s3.15-1.76 4.12-1.76a1.755 1.755 0 1 1 0 3.51zm-10.95-.44a12.92 12.92 0 0 1-3.08-1.31 12.91 12.91 0 0 1 3.08-1.31 1.31 1.31 0 1 1 0 2.62zM256.95 90.73V69.99"/></g></svg>