<svg height="13" viewBox="0 0 32 13" width="32" xmlns="http://www.w3.org/2000/svg"><path d="m16 0c-6.3670265 0-12.32580962 2.26153846-15.55250245 5.89230769l-.44749755.50769231.44749755.50769231c3.22669283 3.63846149 9.18547595 5.89230769 15.55250245 5.89230769s12.3258096-2.2615385 15.5525025-5.89230769l.4474975-.50769231-.4474975-.50769231c-3.2266929-3.63076923-9.185476-5.89230769-15.5525025-5.89230769zm2.3552502 1.64615385 4.0667321 3.98461538h-4.5377821l-4.0745829-3.99230769c1.4993485-.12925443 3.007499-.12668004 4.5063788.00769231zm-6.5083415.24615384 3.8155054 3.74615385h-4.5377821l-2.88910698-2.83076923c1.16294818-.40099902 2.35772208-.70716867 3.57212958-.91538462zm-5.19725217 1.53846154 2.2531894 2.20769231h-5.91952895c1.10106384-.895983 2.32124854-1.64125865 3.62708538-2.21538462zm9.42100097 7.83846157c-5.1187439 0-9.93130519-1.53846157-13.04023552-4.09230772h26.08047102c-3.1795878 2.54615384-7.9842983 4.08461542-13.110893 4.08461542zm8.6359176-5.63076926-3.6820412-3.60769231c2.9658133.53558437 5.7527963 1.7741741 8.1177625 3.60769231z" fill="#7b7b7b"/></svg>