<svg viewBox="0 0 70.64 15.45" xmlns="http://www.w3.org/2000/svg"><g fill="#c5e0dc"><path d="m-1132-1037a2.5 2.5 0 0 0 -2.5 2.5 2.5 2.5 0 0 0 2.5 2.5 2.5 2.5 0 0 0 2.5-2.5 2.5 2.5 0 0 0 -2.5-2.5zm0 4a1.5 1.5 0 0 1 -1.5-1.5 1.5 1.5 0 0 1 1.5-1.5 1.5 1.5 0 0 1 1.5 1.5 1.5 1.5 0 0 1 -1.5 1.5z" transform="translate(1187.41 1046.87)"/><circle cx="69.14" cy="12.37" r="1.5"/><path d="m-1172.16-1037a2.5 2.5 0 0 0 -2.5 2.5 2.5 2.5 0 0 0 2.5 2.5 2.5 2.5 0 0 0 2.5-2.5 2.5 2.5 0 0 0 -2.5-2.5zm0 4a1.5 1.5 0 0 1 -1.5-1.5 1.5 1.5 0 0 1 1.5-1.5 1.5 1.5 0 0 1 1.5 1.5 1.5 1.5 0 0 1 -1.5 1.5z" transform="translate(1187.41 1046.87)"/><circle cx="1.5" cy="12.37" r="1.5"/><path d="m-1141.63-1042.45h-.83a11.47 11.47 0 0 0 -6 1.72 10.47 10.47 0 0 0 -3-5.56l-.61-.55-.6.55a10.68 10.68 0 0 0 -3 5.57 11.57 11.57 0 0 0 -6-1.73h-.84v.82a10.18 10.18 0 0 0 3 7.24 11.19 11.19 0 0 0 7.38 2.89l.08.07.08-.07a11.2 11.2 0 0 0 7.38-2.89 10.21 10.21 0 0 0 3-7.25zm-10.46-3.07a9.36 9.36 0 0 1 2.75 6.37 9.29 9.29 0 0 1 -2.75 6.37 9.38 9.38 0 0 1 -2.75-6.37 9.33 9.33 0 0 1 2.76-6.37zm-9.5 4a10.67 10.67 0 0 1 5.77 1.86v.47a10.13 10.13 0 0 0 2.57 6.58 9.85 9.85 0 0 1 -5.61-2.54 9.12 9.12 0 0 1 -2.72-6.33zm16.29 6.38a9.86 9.86 0 0 1 -5.61 2.54 10.21 10.21 0 0 0 2.57-6.58v-.48a10.63 10.63 0 0 1 5.77-1.86 9.16 9.16 0 0 1 -2.72 6.41z" transform="translate(1187.41 1046.87)"/></g></svg>