<svg id="hover-map" xmlns="http://www.w3.org/2000/svg" viewBox="0 0 28.87 31.81"><defs><style>.cls-1{fill:#7b7b7b}</style></defs><title>graphic-2</title><path class="cls-1" d="M28.48 6h.43v-.42a5.23 5.23 0 0 0-1.7-3.87A5.37 5.37 0 0 0 23.57 0h-.67v.43a5.23 5.23 0 0 0 1.7 3.87A5.23 5.23 0 0 0 28.48 6zm-1.94-3.62A4.65 4.65 0 0 1 27.94 5a4.66 4.66 0 0 1-2.62-1.4 4.65 4.65 0 0 1-1.4-2.6 4.66 4.66 0 0 1 2.62 1.38zM0 7h.47a5.24 5.24 0 0 0 3.88-1.7 5.23 5.23 0 0 0 1.7-3.88V1h-.67a5.37 5.37 0 0 0-3.64 1.72A5.23 5.23 0 0 0 0 6.59zm2.37-3.6A4.67 4.67 0 0 1 5 2a4.66 4.66 0 0 1-1.36 2.64A4.67 4.67 0 0 1 1 6a4.66 4.66 0 0 1 1.4-2.61zm12.87 28.41l.33-.29c2.87-2.5 4.65-7.11 4.66-12s-1.78-9.55-4.66-12l-.33-.29-.33.29c-2.87 2.5-4.66 7.12-4.66 12s1.75 9.48 4.66 12zM15.74 9a16 16 0 0 1 3.48 10.48A16.06 16.06 0 0 1 15.74 30zm-1 21a12.26 12.26 0 0 1-2-3.18l2-2zm0-6.6l-2.41 2.41a17.52 17.52 0 0 1-.8-3.06l3.21-3.21zm0-5.27l-3.38 3.38a19.4 19.4 0 0 1-.1-2 12.76 12.76 0 0 1 .09-1.86l3.4-3.39zm0-5.27L11.57 16a14.5 14.5 0 0 1 3.17-7z" transform="translate(-.04)"/></svg>