<svg id="Слой_1" data-name="Слой 1" xmlns="http://www.w3.org/2000/svg" viewBox="0 0 272.89 51.09"><defs><style>.cls-1{fill:#fff}</style></defs><title>Leaves-for-button</title><path class="cls-1" d="M237.34 103.07a8.94 8.94 0 0 1-6.06-2.84 8.73 8.73 0 0 1-2.83-6.47l.06-.87.87-.06a9.66 9.66 0 0 1 9.29 9.29l-.06.87-.87.06zm-6.84-8.19a7.6 7.6 0 0 0 2.19 3.94 7.58 7.58 0 0 0 3.93 2.19 8.21 8.21 0 0 0-6.12-6.12zm30-6.07c-8.11 0-15.7-2.94-19.81-7.66l-.57-.66.57-.66c4.11-4.73 11.71-7.66 19.81-7.66s15.7 2.94 19.81 7.66l.57.66-.57.66c-4.13 4.73-11.73 7.67-19.84 7.67zm-16.64-7.31c4 3.32 10.08 5.32 16.61 5.32s12.65-2 16.61-5.32zm25.69-2h7.53a20.13 20.13 0 0 0-4.65-2.87zm-8.61 0h5.78l3.68-3.68a28.56 28.56 0 0 0-4.6-1.19zm-8.61 0h5.78l5.19-5.19a32.12 32.12 0 0 0-5.79 0zm-8.48 0h5.65l4.69-4.69a23.54 23.54 0 0 0-10.33 4.69zm-12.38-13.8h-.4l-.87-.06-.06-.87a8.74 8.74 0 0 1 2.86-6.48 8.72 8.72 0 0 1 6.47-2.83l.87.06.06.87a8.73 8.73 0 0 1-2.83 6.47 8.94 8.94 0 0 1-6.1 2.84zm6.85-8.19a7.59 7.59 0 0 0-3.93 2.19 7.6 7.6 0 0 0-2.19 3.94 8.24 8.24 0 0 0 6.12-6.13zM51.48 99.61h-.4l-.87-.06-.06-.87a9.68 9.68 0 0 1 9.29-9.29l.87.06.06.87a8.73 8.73 0 0 1-2.82 6.47 8.94 8.94 0 0 1-6.07 2.82zm6.84-8.19a8.24 8.24 0 0 0-6.12 6.13 8.23 8.23 0 0 0 6.12-6.13zm-30-6.06c-8.11 0-15.7-2.94-19.81-7.66L8 77l.57-.66c4.11-4.73 11.7-7.66 19.81-7.66s15.7 2.94 19.81 7.66l.57.66-.57.66c-4.14 4.76-11.73 7.69-19.84 7.69zM11.74 78c4 3.32 10.08 5.32 16.61 5.32S41 81.36 45 78zm27.57-2H45a23.53 23.53 0 0 0-10.34-4.69zm-8.61 0h5.78l-5.18-5.15a32.11 32.11 0 0 0-5.79 0zm-8.61 0h5.78L23 71.17a28.54 28.54 0 0 0-4.6 1.19zm-10.35 0h7.52l-2.87-2.87A20.11 20.11 0 0 0 11.74 76zm45.61-13.8a9 9 0 0 1-6.07-2.84 8.75 8.75 0 0 1-2.82-6.47l.06-.87.87-.06a8.73 8.73 0 0 1 6.47 2.82 8.74 8.74 0 0 1 2.83 6.47l-.06.87-.87.06zM50.51 54a8.21 8.21 0 0 0 6.12 6.13A8.23 8.23 0 0 0 50.51 54z" transform="translate(-7.97 -51.98)"/></svg>