<svg id="Слой_1" data-name="Слой 1" xmlns="http://www.w3.org/2000/svg" viewBox="0 0 204.66 51.63"><defs><style>.cls-1{fill:none;stroke:#cdcccc}.cls-1,.cls-2,.cls-4{stroke-miterlimit:10}.cls-1,.cls-4,.cls-5{stroke-width:.75px}.cls-2{fill:#9d9d9c;stroke:#fff}.cls-3{fill:#cdcccc}.cls-4,.cls-5{fill:#ccc;stroke:#ccc}</style></defs><title>dsd</title><circle class="cls-1" cx="102.53" cy="49.59" r="1.66"/><path class="cls-1" d="M210.28 185.67l8.41 14.12 8.41-14.12zm8.42-16.49h-.11a9.78 9.78 0 0 1-6.45-2.52 8.89 8.89 0 0 1-2.63-6.29V160h.34a10 10 0 0 1 5.95 2" transform="translate(-116.16 -155.65)"/><path class="cls-1" d="M221.51 162a10 10 0 0 1 6-2h.34v.33a8.9 8.9 0 0 1-2.63 6.3 9.79 9.79 0 0 1-6.45 2.52h-.45" transform="translate(-116.16 -155.65)"/><path class="cls-3" d="M220 191.09a1.34 1.34 0 1 1-1.34-1.29 1.31 1.31 0 0 1 1.34 1.29" transform="translate(-116.16 -155.65)"/><path class="cls-1" d="M218.69 169.08l-.25-.23a8.5 8.5 0 0 1 0-12.48l.25-.23.25.23a8.5 8.5 0 0 1 0 12.48z" transform="translate(-116.16 -155.65)"/><path class="cls-1" d="M102.46 35.36V13.53"/><path class="cls-3" d="M102.53 35.3V12.97"/><path class="cls-1" d="M121.72 181.68a6.76 6.76 0 0 1-5.06-1.94 7.57 7.57 0 0 1 10.12 0 6.77 6.77 0 0 1-5.06 1.94z" transform="translate(-116.16 -155.65)"/><path class="cls-1" d="M46.28 26.97l-1.17 6.73 6.34-1.09m-21.69-8.53l-9.29 9.29m34.17-9.3H10.47"/><path class="cls-1" d="M166.26 189.89c-3.14 3.14-7 4.74-10.16 4.52-.22-3.15 1.38-7 4.52-10.16s7-4.74 10.16-4.52c.22 3.15-1.38 7.02-4.52 10.16zm-23.2-3.74a8.79 8.79 0 0 1-6.43 2.86 9.81 9.81 0 0 1 9.29-9.29 8.8 8.8 0 0 1-2.86 6.43z" transform="translate(-116.16 -155.65)"/><path class="cls-1" d="M51.45 15.52l-6.34-1.09 1.17 6.73m-25.81-6.4l9.29 9.29"/><path class="cls-1" d="M170.78 179.69c-3.15.22-7-1.39-10.16-4.52s-4.74-7-4.52-10.16c3.15-.22 7 1.38 10.16 4.52s4.74 7.01 4.52 10.16zm-24.86.01a9.81 9.81 0 0 1-9.29-9.29 9.81 9.81 0 0 1 9.29 9.29z" transform="translate(-116.16 -155.65)"/><path class="cls-4" d="M184.09 180.85a3.45 3.45 0 0 0 2.58-1 3.84 3.84 0 0 0-5.16 0 3.44 3.44 0 0 0 2.58 1" transform="translate(-116.16 -155.65)"/><path class="cls-5" d="M184.09 180.85a3.45 3.45 0 0 0 2.58-1 3.84 3.84 0 0 0-5.16 0 3.44 3.44 0 0 0 2.58 1z" transform="translate(-116.16 -155.65)"/><path class="cls-1" d="M315.27 181.68a6.77 6.77 0 0 0 5.06-1.94 7.57 7.57 0 0 0-10.12 0 6.77 6.77 0 0 0 5.06 1.94z" transform="translate(-116.16 -155.65)"/><path class="cls-1" d="M158.38 26.97l1.17 6.73-6.34-1.09m21.7-8.53l9.29 9.29m-34.17-9.3h44.16"/><path class="cls-1" d="M270.73 189.89c3.14 3.14 7 4.74 10.16 4.52.22-3.15-1.39-7-4.52-10.16s-7-4.74-10.16-4.52c-.21 3.15 1.39 7.02 4.52 10.16zm23.2-3.74a8.79 8.79 0 0 0 6.43 2.86 9.82 9.82 0 0 0-9.29-9.29 8.8 8.8 0 0 0 2.86 6.43z" transform="translate(-116.16 -155.65)"/><path class="cls-1" d="M153.21 15.52l6.34-1.09-1.17 6.73m25.82-6.4l-9.29 9.29"/><path class="cls-1" d="M266.21 179.69c3.15.22 7-1.39 10.16-4.52s4.74-7 4.52-10.16c-3.15-.22-7 1.38-10.16 4.52s-4.73 7.01-4.52 10.16zm24.86.01a9.82 9.82 0 0 0 9.29-9.29 9.81 9.81 0 0 0-9.29 9.29z" transform="translate(-116.16 -155.65)"/><path class="cls-4" d="M252.91 180.85a3.45 3.45 0 0 1-2.58-1 3.84 3.84 0 0 1 5.16 0 3.45 3.45 0 0 1-2.58 1" transform="translate(-116.16 -155.65)"/><path class="cls-5" d="M252.91 180.85a3.45 3.45 0 0 1-2.58-1 3.84 3.84 0 0 1 5.16 0 3.45 3.45 0 0 1-2.58 1z" transform="translate(-116.16 -155.65)"/></svg>