<svg id="Слой_1" data-name="Слой 1" xmlns="http://www.w3.org/2000/svg" viewBox="0 0 50 31.1"><defs><style>.cls-1{fill:#555}</style></defs><title>logo-daviann</title><path class="cls-1" d="M193.5 203.74l9.93-30.74h3.36l-9.94 30.74zm15.44-4.63a2.26 2.26 0 0 0-3.4 0 2.82 2.82 0 0 0-.7 2 2.92 2.92 0 0 0 .7 2 2.3 2.3 0 0 0 1.78.78 2.25 2.25 0 0 0 1.62-.7v.55h1.21v-9.07h-1.21zm-.34 3.23a1.39 1.39 0 0 1-1.08.46 1.32 1.32 0 0 1-1-.48 1.82 1.82 0 0 1-.4-1.22 1.74 1.74 0 0 1 .41-1.18 1.34 1.34 0 0 1 1-.47 1.37 1.37 0 0 1 1.07.47 2 2 0 0 1 0 2.43zm6.88-3.23a2.22 2.22 0 0 0-1.64-.75 2.27 2.27 0 0 0-1.76.78 2.83 2.83 0 0 0-.7 2 2.92 2.92 0 0 0 .7 2 2.32 2.32 0 0 0 3.4.09v.55h1.21v-5.28h-1.21zm-.34 3.23a1.39 1.39 0 0 1-1.08.46 1.32 1.32 0 0 1-1-.48 1.82 1.82 0 0 1-.4-1.22 1.74 1.74 0 0 1 .41-1.18 1.34 1.34 0 0 1 1-.47 1.37 1.37 0 0 1 1.07.47 2 2 0 0 1 0 2.43z" transform="translate(-193.5 -172.99)"/><path class="cls-1" d="M26.74 28.45l-1.36-2.94h-1.35l2.7 5.59 2.71-5.59h-1.36l-1.34 2.94zm3.53-2.94h1.21v5.23h-1.21z"/><path class="cls-1" d="M224.37 195.55a.79.79 0 0 0-.78.78.79.79 0 0 0 .79.79.74.74 0 0 0 .55-.23.76.76 0 0 0 .23-.56.74.74 0 0 0-.23-.55.76.76 0 0 0-.56-.23zm5.92 3.56a2.22 2.22 0 0 0-1.64-.75 2.27 2.27 0 0 0-1.76.78 2.83 2.83 0 0 0-.7 2 2.92 2.92 0 0 0 .7 2 2.32 2.32 0 0 0 3.4.09v.55h1.21v-5.28h-1.21zm-.34 3.23a1.39 1.39 0 0 1-1.08.46 1.32 1.32 0 0 1-1-.48 1.82 1.82 0 0 1-.4-1.22 1.74 1.74 0 0 1 .41-1.18 1.34 1.34 0 0 1 1-.47 1.37 1.37 0 0 1 1.07.47 2 2 0 0 1 0 2.43zm5.69-3.98a2 2 0 0 0-1.43.63v-.48H233v5.23h1.21v-2.52a2.73 2.73 0 0 1 .25-1.37.93.93 0 0 1 .85-.4.87.87 0 0 1 .76.3 1.92 1.92 0 0 1 .21 1.07v2.92h1.21v-3.21a2.35 2.35 0 0 0-.44-1.59 1.8 1.8 0 0 0-1.41-.58zm7.42.57a1.8 1.8 0 0 0-1.42-.57 2 2 0 0 0-1.43.63v-.48H239v5.23h1.21v-2.52a2.73 2.73 0 0 1 .25-1.37.93.93 0 0 1 .85-.4.87.87 0 0 1 .76.3 1.92 1.92 0 0 1 .21 1.07v2.92h1.21v-3.21a2.35 2.35 0 0 0-.43-1.6z" transform="translate(-193.5 -172.99)"/></svg>