<svg id="Слой_1" data-name="Слой 1" xmlns="http://www.w3.org/2000/svg" viewBox="0 0 63.16 41.86"><defs><style>.cls-1{fill:#7b7b7b}</style></defs><title>logo-gray</title><path class="cls-1" d="M20.17 8.56v-.67h-.59a9.54 9.54 0 0 0-5.28 1.53 9.35 9.35 0 0 0-2.61-5L11.2 4l-.49.46a9.53 9.53 0 0 0-2.61 5 9.6 9.6 0 0 0-5.19-1.59h-.67v.67A9.28 9.28 0 0 0 4.79 15a9.35 9.35 0 0 0 6.32 2.57h.18A9.35 9.35 0 0 0 17.6 15a9.28 9.28 0 0 0 2.57-6.44zm-9-2.5A7.74 7.74 0 0 1 13 10.82a7.75 7.75 0 0 1-1.77 4.76 7.71 7.71 0 0 1-1.77-4.76 7.72 7.72 0 0 1 1.74-4.76zM3.7 9.36A7.81 7.81 0 0 1 8 11.17 9.06 9.06 0 0 0 9.68 16a7.44 7.44 0 0 1-3.86-2A7.74 7.74 0 0 1 3.7 9.36zM16.58 14a7.44 7.44 0 0 1-3.87 2 9.09 9.09 0 0 0 1.69-4.79 7.8 7.8 0 0 1 4.29-1.82A7.74 7.74 0 0 1 16.58 14zM6 22.85l2 5.35.16.41.15.41q.05.22.12.43t.12.41l.13-.38q.06-.19.11-.39a.11.11 0 0 0 0-.05v-.07l.21-.45q.07-.22.15-.44l2.14-5.64 2.22 5.76q.17.41.32.83t.26.86l.14-.51.14-.5q.05-.17.11-.33t.11-.33l2-5.36h1.71l-4.1 11-2.41-6-.14-.37-.14-.37q-.05-.19-.12-.37t-.12-.37l-.24.74q-.12.37-.27.76l-2.34 6-4.08-11zM24.74 28a5.32 5.32 0 0 1 .43 2.14v.14H19.7a2.92 2.92 0 0 0 .4 1.26 1.64 1.64 0 0 0 1.12.72h.48a1.93 1.93 0 0 0 1.2-.4 3.58 3.58 0 0 0 .89-1l1.3.73a4.49 4.49 0 0 1-1.4 1.5 3.55 3.55 0 0 1-1.95.51h-.34a3.34 3.34 0 0 1-2.4-1.06 3.61 3.61 0 0 1-.89-2.43v-.5a.15.15 0 0 0 0-.07v-.07a.72.72 0 0 0 0-.1.66.66 0 0 0 0-.1 3.35 3.35 0 0 1 1.23-2.17 3.55 3.55 0 0 1 2.27-.8 4.08 4.08 0 0 1 .52 0 4.75 4.75 0 0 1 .54.1l.18.06.18.06A2.62 2.62 0 0 1 24.74 28zM23 28a1.94 1.94 0 0 0-1.26-.37 1.79 1.79 0 0 0-1.23.39 2.27 2.27 0 0 0-.65 1.09h3.71A1.73 1.73 0 0 0 23 28zM6.44 45.61v-6.76h1.48V40l.08-.16.08-.11a3.51 3.51 0 0 1 .92-.82 2.55 2.55 0 0 1 1.24-.3h.17a2.16 2.16 0 0 1 1.22.33 2.41 2.41 0 0 1 .82 1 4.08 4.08 0 0 1 1.11-1A2.65 2.65 0 0 1 15 38.6h.71a1.59 1.59 0 0 1 1.29.9 4.3 4.3 0 0 1 .25 1.51v4.54h-1.58v-4.01a1.68 1.68 0 0 0 0-.24 3.65 3.65 0 0 0-.12-.6 1.09 1.09 0 0 0-.27-.48A.63.63 0 0 0 15 40h-1.09a1.24 1.24 0 0 0-1 .78 4.3 4.3 0 0 0-.23 1.31v3.54h-1.61v-3.86a3.71 3.71 0 0 0-.28-1.27 1.06 1.06 0 0 0-1.1-.58h-.1a1.29 1.29 0 0 0-1.23.65A3.42 3.42 0 0 0 8 41.91a2.75 2.75 0 0 0 0 .3v3.39zm18.89-5.4a5.23 5.23 0 0 1 .42 2.12v.14h-5.43a2.88 2.88 0 0 0 .4 1.25 1.63 1.63 0 0 0 1.11.71h.47a1.93 1.93 0 0 0 1.19-.4 3.55 3.55 0 0 0 .88-1l1.29.73a4.44 4.44 0 0 1-1.39 1.49 3.55 3.55 0 0 1-1.94.51h-.34a3.34 3.34 0 0 1-2.41-1.12 3.56 3.56 0 0 1-.88-2.41v-.48a.16.16 0 0 0 0-.07v-.07a.61.61 0 0 0 0-.2 3.31 3.31 0 0 1 1.3-2.05 3.55 3.55 0 0 1 2.26-.79 4.08 4.08 0 0 1 .52 0 4.78 4.78 0 0 1 .54.1l.18.06.18.06a2.6 2.6 0 0 1 1.65 1.42zm-1.78.07a1.94 1.94 0 0 0-1.25-.36 1.79 1.79 0 0 0-1.22.39 2.24 2.24 0 0 0-.65 1.08h3.69a1.7 1.7 0 0 0-.57-1.11zm10.54-5.73v11.06h-1.57v-.88a2.85 2.85 0 0 1-1 .84 2.82 2.82 0 0 1-1.28.28h-.08a2.67 2.67 0 0 1-2.14-1 3.84 3.84 0 0 1-.83-2.24v-.32a3.67 3.67 0 0 1 .81-2.62 3.09 3.09 0 0 1 1.86-1h.38a2.71 2.71 0 0 1 1.33.35 2.16 2.16 0 0 1 .94 1v-5.4zM30.67 40a1.65 1.65 0 0 0-1.26.51 2.17 2.17 0 0 0-.56 1.3.93.93 0 0 1 0 .12 1 1 0 0 0 0 .14v.15a.92.92 0 0 0 0 .12 2.22 2.22 0 0 0 .51 1.66 1.78 1.78 0 0 0 1.24.58h.19a1.94 1.94 0 0 0 1.21-.7 2.39 2.39 0 0 0 .56-1.7 2.91 2.91 0 0 0-.36-1.43A1.48 1.48 0 0 0 31 40zm6.84-3.31a.83.83 0 0 1-.69.29.8.8 0 0 1-.68-.29 1 1 0 0 1-.22-.64V36a1.1 1.1 0 0 1 .25-.59.79.79 0 0 1 .65-.27.81.81 0 0 1 .65.27 1.08 1.08 0 0 1 .26.59v.08a1 1 0 0 1-.22.61zM36 38.85h1.55v6.75H36zm4.4 1.34h-1.23v-1.34h1.23v-2.58h1.53v2.58h1.19v1.33h-1.19v5.42H40.4zm11.13-1.34v6.75H50v-.88a2.85 2.85 0 0 1-1 .84 2.81 2.81 0 0 1-1.28.28h-.07a2.69 2.69 0 0 1-2.16-1 3.84 3.84 0 0 1-.83-2.24v-.32a3.66 3.66 0 0 1 .84-2.59 3.09 3.09 0 0 1 1.86-1h.38a2.72 2.72 0 0 1 1.33.35A2.16 2.16 0 0 1 50 40v-1.1zm-1.88 1.9a1.5 1.5 0 0 0-1.21-.75h-.32a1.65 1.65 0 0 0-1.26.51 2.18 2.18 0 0 0-.56 1.3.93.93 0 0 1 0 .12v.28a.75.75 0 0 0 0 .11 2.15 2.15 0 0 0 .55 1.6 1.77 1.77 0 0 0 1.22.56h.23a2 2 0 0 0 1.22-.65 2.3 2.3 0 0 0 .48-1.65 2.87 2.87 0 0 0-.34-1.43zm4.72-.56h-1.22v-1.34h1.22v-2.58h1.53v2.58h1.19v1.33H55.9v5.42h-1.53zm10.58.02a5.23 5.23 0 0 1 .43 2.12v.14h-5.45a2.88 2.88 0 0 0 .4 1.25 1.63 1.63 0 0 0 1.11.71h.48a1.93 1.93 0 0 0 1.19-.4 3.55 3.55 0 0 0 .88-1l1.29.73a4.45 4.45 0 0 1-1.39 1.49 3.55 3.55 0 0 1-1.94.51h-.34a3.34 3.34 0 0 1-2.42-1.12 3.56 3.56 0 0 1-.88-2.41v-.48a.16.16 0 0 0 0-.07v-.07a.7.7 0 0 0 0-.1.59.59 0 0 0 0-.1 3.31 3.31 0 0 1 1.22-2.14 3.55 3.55 0 0 1 2.26-.79 4.08 4.08 0 0 1 .52 0 4.79 4.79 0 0 1 .54.1l.18.06.18.06a2.6 2.6 0 0 1 1.74 1.51zm-1.78.07a1.94 1.94 0 0 0-1.25-.36 1.79 1.79 0 0 0-1.22.39 2.24 2.24 0 0 0-.65 1.08h3.69a1.7 1.7 0 0 0-.57-1.11z" transform="translate(-2.21 -4)"/></svg>