<svg version="1" xmlns="http://www.w3.org/2000/svg" width="346.667" height="346.667" viewBox="0 0 260.000000 260.000000"><path d="M117 1.6c-1.4.2-5.6.9-9.5 1.5-16.4 2.6-37.6 11.5-52.2 21.8C46 31.5 31.5 46 24.9 55.3 15 69.3 7.2 87.4 3.4 105.2c-2.5 11.6-2.5 38 0 49.6C9 181 20.7 202.6 39 221c18.4 18.3 40 30 66.2 35.6 11.6 2.5 38 2.5 49.6 0C181 251 202.6 239.3 221 221c18.3-18.4 30-40 35.6-66.2 2.5-11.6 2.5-38 0-49.6C251 79 239.3 57.4 221 39c-18.3-18.3-40.2-30.1-66-35.6-7.1-1.5-32.7-2.7-38-1.8zm19.6 60.6c14.1 14.8 23.3 32.4 27 51.2l1.7 8.4 5.1-3.3c16.4-10.5 35.3-16.3 57.9-18l8.7-.7v4.9c0 21.7-9.5 46.6-24.3 64.3-20.2 24-58.4 38.5-92.6 35.1-31.5-3.2-59.8-18-75.9-39.9-13-17.6-20.2-37.8-20.2-56.9v-7.6l10.3.6c17.1 1 30.8 4.7 45.6 12.2 4.8 2.4 10 5.4 11.8 6.5 3.6 2.4 3.5 2.4 4.9-6 1.6-10.7 8.2-26.3 15.6-37.3 4-5.9 16.4-19.7 17.8-19.7.4 0 3.4 2.8 6.6 6.2z"/><path d="M125.5 72.2c-14.2 16.5-23.4 42.2-22.2 61.4 1 14.7 5.7 29.1 13.6 42 6.3 10.1 12.3 17 14 16 .7-.5 3.9-4.4 7.1-8.7 9.8-13.2 15.7-27.9 18-44.7 2.6-19.4-4.8-44.1-18.8-62.1-3.1-4.1-6.2-7.6-6.8-7.8-.7-.2-2.8 1.5-4.9 3.9zM32.7 113.2c1.7 15 7.8 31.3 16.2 43.6 12.9 19.1 34.4 32.4 60.8 37.7 11.5 2.3 12.1 2 7.3-4-6.1-7.5-12.7-19.3-15.9-28.2-3.3-8.8-6.1-21.3-6.1-26.7 0-3.1-.6-4-5.4-7.5-13.9-10.3-38.3-19.1-53-19.1h-4.4l.5 4.2zM216 109.7c-12.5 2.1-26.2 7-37.3 13.5-10.2 5.9-13.7 9.3-13.7 13.3 0 5.5-3.1 18.5-6.2 26.5-3.9 9.9-7.8 16.9-14.5 25.9l-5.5 7.4 5.8-.8c15.4-1.9 35.5-10.1 48.4-19.9 18.5-13.9 31.8-37.6 34.7-61.6l.6-5-4.9.1c-2.7.1-6 .4-7.4.6z"/></svg>