<svg width="20" height="40" viewBox="0 0 20 40" fill="none" xmlns="http://www.w3.org/2000/svg">
<path fill-rule="evenodd" clip-rule="evenodd" d="M9.53905 0L9.92318 0.28169C15.6594 4.46863 19.0781 11.895 19.0781 20C19.0781 28.105 15.6594 35.4802 9.92318 39.7183L9.53905 40L9.15493 39.7183C3.41869 35.4802 0 28.105 0 20C0 11.895 3.41869 4.51985 9.15493 0.28169L9.53905 0ZM2.4968 12.0102L8.89885 18.4123L8.88604 10.0384L5.21127 6.36364C4.05364 8.11351 3.14038 10.0133 2.4968 12.0102ZM8.89885 2.1767V8.19462L5.95391 5.24968C6.81883 4.10413 7.80634 3.05651 8.89885 2.12548V2.1767ZM8.89885 20.2305L2.12548 13.4571V13.3931C1.58193 15.5572 1.31518 17.7815 1.33163 20.0128V21.0243L8.89885 28.5915V20.2305ZM1.44686 22.9449L1.45301 22.9511C1.96348 28.6749 4.62346 33.9938 8.89885 37.8361V30.3969L1.45301 22.9511L1.44686 22.8809V22.9449ZM10.1793 2.12548V37.7849C15.2043 33.2395 18.0077 26.7358 17.8617 19.9616C18.0114 13.1829 15.2078 6.67379 10.1793 2.12548Z" fill="#8ABA44"/>
</svg>
