<svg width="33" height="40" viewBox="0 0 33 40" fill="none" xmlns="http://www.w3.org/2000/svg">
<path fill-rule="evenodd" clip-rule="evenodd" d="M25.7313 12.9583L26.3666 13.4083C26.3691 13.4103 26.3722 13.4128 26.3757 13.4156C26.7496 13.7137 32.9303 18.642 32.773 26.1549C32.6371 29.5091 31.1642 32.6693 28.683 34.9305C25.8901 37.6837 21.9193 39.6559 19.272 39.6559H17.9484L18.7161 38.6102C18.7188 38.6065 18.7224 38.6015 18.7269 38.5953C19.0101 38.2068 22.7887 33.0222 19.1926 29.5433C15.5394 26.0093 15.0232 23.1767 15.2217 21.456C13.4613 22.6605 10.589 25.096 9.9272 28.5639C9.33157 31.6876 10.642 35.0496 13.8187 38.5572L15.0629 40L13.2363 39.722C13.2354 39.7219 13.2322 39.7213 13.2268 39.7204C12.8236 39.6522 0 37.4812 0 26.3402C0 21.2023 3.49255 18.16 6.87424 15.2143L6.8961 15.1952L6.91582 15.178C11.025 11.5974 14.9142 8.20845 12.9848 1.16479L12.6671 0L13.8187 0.357379C13.951 0.397088 25.546 4.14295 24.0238 15.3011C24.5251 14.7764 24.9688 14.1995 25.3475 13.5804L25.7313 12.9583ZM20.675 38.2396C23.4167 37.5122 25.9156 36.0687 27.9153 34.0569C30.1164 32.0341 31.4254 29.2209 31.5553 26.2343C31.5553 20.503 27.5182 16.2541 26.0357 14.9305C25.3123 15.9587 24.4167 16.8543 23.3885 17.5778L21.9854 18.4778L22.3958 16.863C24.7518 7.47849 17.4586 3.36201 14.5467 2.03839C15.9216 8.99142 11.817 12.6024 7.88437 16.0622C7.84171 16.0997 7.79907 16.1372 7.75645 16.1747C4.43415 19.047 1.31039 21.7737 1.31039 26.3137C1.31039 34.1099 8.20649 37.0086 11.6214 37.9748C9.08008 34.6658 8.08736 31.4361 8.68299 28.3521C9.77896 22.6346 15.8673 19.5911 16.1595 19.4451L16.1615 19.4441L18.4514 18.3322L16.9954 20.4236C16.9159 20.5427 14.9305 23.6267 20.225 28.6433C23.2429 31.5288 22.1046 35.6717 20.675 38.2396Z" fill="#E08E79"/>
</svg>
