<svg id="Слой_1" data-name="Слой 1" xmlns="http://www.w3.org/2000/svg" viewBox="0 0 91 91"><defs><style>.cls-1{fill:#a4c6d9;}</style></defs><title>1</title><g id="item-Page"><g id="Mobile-Icons"><g id="Group-Copy-6"><g id="_1" data-name="1"><path id="calm" class="cls-1" d="M76.29,31.54a1.05,1.05,0,1,1,0,2.11,7,7,0,0,1-5.13-2.24,4.83,4.83,0,0,0-7.34,0,7,7,0,0,1-10.26,0,4.83,4.83,0,0,0-7.34,0,7,7,0,0,1-10.26,0,4.83,4.83,0,0,0-7.34,0,7,7,0,0,1-10.26,0,4.9,4.9,0,0,0-3.67-1.69,1.05,1.05,0,1,1,0-2.1,7,7,0,0,1,5.13,2.24,4.83,4.83,0,0,0,7.34,0,7,7,0,0,1,10.26,0,4.83,4.83,0,0,0,7.34,0,7,7,0,0,1,10.26,0,4.83,4.83,0,0,0,7.34,0,7,7,0,0,1,10.26,0A4.9,4.9,0,0,0,76.29,31.54Zm0,9.91a1.05,1.05,0,1,1,0,2.1,7,7,0,0,1-5.13-2.24,4.83,4.83,0,0,0-7.34,0,7,7,0,0,1-10.26,0,4.83,4.83,0,0,0-7.34,0,7,7,0,0,1-10.26,0L35.59,41a1,1,0,0,1-.09-1.49A1.1,1.1,0,0,1,37,39.41l.41.36a4.83,4.83,0,0,0,7.34,0,7,7,0,0,1,10.26,0,4.83,4.83,0,0,0,7.34,0,7,7,0,0,1,10.26,0A4.9,4.9,0,0,0,76.29,41.46ZM33.84,37.68a1.05,1.05,0,0,1,.82,1.26,1.08,1.08,0,0,1-1.29.8,5,5,0,0,0-1.07-.11,4.9,4.9,0,0,0-3.67,1.69,7,7,0,0,1-10.26,0,4.9,4.9,0,0,0-3.67-1.69,1.05,1.05,0,1,1,0-2.11,7,7,0,0,1,5.13,2.24,4.83,4.83,0,0,0,7.34,0,7,7,0,0,1,5.13-2.24A7.27,7.27,0,0,1,33.84,37.68Zm42.45,23.6a1.05,1.05,0,1,1,0,2.11,7,7,0,0,1-5.13-2.24,4.83,4.83,0,0,0-7.34,0,7,7,0,0,1-10.26,0,4.83,4.83,0,0,0-7.34,0,7,7,0,0,1-10.26,0,4.83,4.83,0,0,0-7.34,0,7,7,0,0,1-5.13,2.24,1.05,1.05,0,1,1,0-2.1,4.9,4.9,0,0,0,3.67-1.69,7,7,0,0,1,10.26,0,4.83,4.83,0,0,0,7.34,0,7,7,0,0,1,10.26,0,4.83,4.83,0,0,0,7.34,0,7,7,0,0,1,10.26,0A4.9,4.9,0,0,0,76.29,61.28ZM21,60.53A1,1,0,0,1,21.24,62a1.1,1.1,0,0,1-1.51.25,13.44,13.44,0,0,1-1.36-1.11,4.9,4.9,0,0,0-3.67-1.69,1.05,1.05,0,1,1,0-2.1,7,7,0,0,1,5.13,2.24A11.63,11.63,0,0,0,21,60.53Zm55.31-9.16a1.05,1.05,0,1,1,0,2.1,7,7,0,0,1-5.13-2.24,4.83,4.83,0,0,0-7.34,0,1.1,1.1,0,0,1-1.53-.06,1,1,0,0,1,.07-1.49,7,7,0,0,1,10.26,0A4.9,4.9,0,0,0,76.29,51.37ZM61.2,52a1.05,1.05,0,0,1-.78,1.28,7.15,7.15,0,0,1-1.73.2,7,7,0,0,1-5.13-2.24,4.83,4.83,0,0,0-7.34,0,7,7,0,0,1-10.26,0,4.83,4.83,0,0,0-7.34,0,7,7,0,0,1-10.26,0,4.9,4.9,0,0,0-3.67-1.69,1.05,1.05,0,1,1,0-2.1,7,7,0,0,1,5.13,2.24,4.83,4.83,0,0,0,7.34,0,7,7,0,0,1,10.26,0,4.83,4.83,0,0,0,7.34,0,7,7,0,0,1,10.26,0,4.92,4.92,0,0,0,4.86,1.55A1.08,1.08,0,0,1,61.2,52Z"/></g></g></g></g></svg>