<svg id="Слой_1" data-name="Слой 1" xmlns="http://www.w3.org/2000/svg" viewBox="0 0 91 91"><defs><style>.cls-1{fill:#a4d9d1;}</style></defs><title>14</title><g id="item-Page"><g id="Mobile-Icons"><g id="Group-Copy-19"><g id="_14" data-name="14"><path id="Shape" class="cls-1" d="M56.48,19.49a1.1,1.1,0,1,0-.86,2,26,26,0,1,1-10.12-2,1.1,1.1,0,0,0,0-2.21,28.2,28.2,0,1,0,11,2.21Z"/><path id="Shape-2" data-name="Shape" class="cls-1" d="M59.09,56.65a1,1,0,0,0-1.48.41,5.92,5.92,0,0,1-5.07,3.3,5.68,5.68,0,0,1-5-3.26,1,1,0,0,0-1.47-.46,1.27,1.27,0,0,0-.42,1.63,7.82,7.82,0,0,0,6.9,4.49,8.06,8.06,0,0,0,6.92-4.46A1.27,1.27,0,0,0,59.09,56.65Z"/><path id="Shape-3" data-name="Shape" class="cls-1" d="M65.75,42.39a6.12,6.12,0,0,1-5.34,3.11,6.32,6.32,0,0,1-5.35-3.08,1.07,1.07,0,0,1,.37-1.47,1.09,1.09,0,0,1,1.49.37,4.14,4.14,0,0,0,3.49,2,4,4,0,0,0,3.44-2,1.09,1.09,0,0,1,1.47-.42A1.07,1.07,0,0,1,65.75,42.39Z"/><path id="Shape-4" data-name="Shape" class="cls-1" d="M48.5,42.39a6.12,6.12,0,0,1-5.34,3.11,6.32,6.32,0,0,1-5.35-3.08,1.07,1.07,0,0,1,.37-1.47,1.09,1.09,0,0,1,1.49.37,4.14,4.14,0,0,0,3.49,2,4,4,0,0,0,3.44-2,1.09,1.09,0,0,1,1.47-.42A1.07,1.07,0,0,1,48.5,42.39Z"/><path id="Shape-5" data-name="Shape" class="cls-1" d="M35.16,37.55a1.31,1.31,0,0,0,1.6-.41,5.48,5.48,0,0,1,2.54-1.69A6.25,6.25,0,0,1,42.43,35a1.23,1.23,0,0,0,1.46-.69,1,1,0,0,0-.83-1.21A5.47,5.47,0,0,0,41.85,33a10.33,10.33,0,0,0-3.53.7,7.57,7.57,0,0,0-3.65,2.56A.91.91,0,0,0,35.16,37.55Z"/><path id="Shape-6" data-name="Shape" class="cls-1" d="M59.66,34.29a1.23,1.23,0,0,0,1.46.68,6.27,6.27,0,0,1,3.14.47,5.48,5.48,0,0,1,2.54,1.69,1.31,1.31,0,0,0,1.6.41.91.91,0,0,0,.5-1.33,7.56,7.56,0,0,0-3.65-2.56,10.34,10.34,0,0,0-3.53-.7,5.46,5.46,0,0,0-1.21.13A1,1,0,0,0,59.66,34.29Z"/><circle id="Oval" class="cls-1" cx="52.56" cy="19.63" r="1.57"/></g></g></g></g></svg>