<svg id="Слой_1" data-name="Слой 1" xmlns="http://www.w3.org/2000/svg" viewBox="0 0 91 91"><defs><style>.cls-1{fill:#ffd591;}</style></defs><title>9</title><g id="item-Page"><g id="Mobile-Icons"><g id="Group-Copy-14"><g id="_9" data-name="9"><path id="Shape" class="cls-1" d="M56.78,19.55a1.1,1.1,0,1,0-.85,2,25.9,25.9,0,1,1-10.07-2,1.1,1.1,0,0,0,0-2.2,28.06,28.06,0,1,0,10.92,2.2Z"/><path id="Shape-2" data-name="Shape" class="cls-1" d="M48.69,48.47a1.1,1.1,0,0,0-1.54-.19A9,9,0,0,1,42,49.62a8.58,8.58,0,0,1-5-1.32A1.1,1.1,0,1,0,35.58,50,10.47,10.47,0,0,0,42,51.81,11,11,0,0,0,48.49,50,1.1,1.1,0,0,0,48.69,48.47Z"/><path id="Shape-3" data-name="Shape" class="cls-1" d="M58.14,69.54a1.1,1.1,0,0,0-1.38-.71,9,9,0,0,1-5.26-.49,8.58,8.58,0,0,1-4.29-3,1.1,1.1,0,0,0-1.9,1.1,10.47,10.47,0,0,0,5.44,3.92,11,11,0,0,0,6.69.52A1.1,1.1,0,0,0,58.14,69.54Z"/><path id="Shape-4" data-name="Shape" class="cls-1" d="M67.72,48.47a1.1,1.1,0,0,0-1.54-.19,9,9,0,0,1-5.11,1.34,8.58,8.58,0,0,1-5-1.32A1.1,1.1,0,0,0,54.62,50a10.47,10.47,0,0,0,6.45,1.83A11,11,0,0,0,67.53,50,1.1,1.1,0,0,0,67.72,48.47Z"/><path id="Shape-5" data-name="Shape" class="cls-1" d="M35.49,46.07A1.1,1.1,0,0,0,37,45.61a5.19,5.19,0,0,1,2.35-1.89,4.9,4.9,0,0,1,2.91-.53,1.1,1.1,0,0,0,.59-2.12,4.24,4.24,0,0,0-1.13-.14,8.17,8.17,0,0,0-3.27.78A7.22,7.22,0,0,0,35,44.58,1.1,1.1,0,0,0,35.49,46.07Z"/><path id="Shape-6" data-name="Shape" class="cls-1" d="M59.24,42.43a1.1,1.1,0,0,0,1.35.76,4.91,4.91,0,0,1,2.91.53,5.19,5.19,0,0,1,2.35,1.89,1.1,1.1,0,1,0,1.94-1,7.22,7.22,0,0,0-3.39-2.86,8.18,8.18,0,0,0-3.28-.78,4.24,4.24,0,0,0-1.13.14A1.1,1.1,0,0,0,59.24,42.43Z"/><circle id="Oval" class="cls-1" cx="52.78" cy="19.41" r="1.56"/></g></g></g></g></svg>