<svg id="Слой_1" data-name="Слой 1" xmlns="http://www.w3.org/2000/svg" viewBox="0 0 91 91"><defs><style>.cls-1{fill:#ffd591;}</style></defs><title>3</title><g id="item-Page"><g id="Mobile-Icons"><g id="Group-Copy-8"><g id="_3" data-name="3"><path id="Shape" class="cls-1" d="M68.67,29.78A28,28,0,0,0,56.25,19.64a1.09,1.09,0,0,0-.84,2,25.83,25.83,0,1,1-9.91-2,1.09,1.09,0,0,0,0-2.19A28,28,0,1,0,68.67,29.78Z"/><path id="Shape-2" data-name="Shape" class="cls-1" d="M40.78,32.42A4.75,4.75,0,0,0,36,37.17a1.09,1.09,0,1,0,2.19,0,2.56,2.56,0,0,1,5.12,0,1.09,1.09,0,1,0,2.19,0A4.75,4.75,0,0,0,40.78,32.42Z"/><path id="Shape-3" data-name="Shape" class="cls-1" d="M59.27,32.42a4.75,4.75,0,0,0-4.75,4.75,1.09,1.09,0,0,0,2.19,0,2.56,2.56,0,1,1,5.12,0,1.09,1.09,0,0,0,2.19,0A4.75,4.75,0,0,0,59.27,32.42Z"/><path id="Shape-4" data-name="Shape" class="cls-1" d="M63.5,50H35.33a1.09,1.09,0,0,0-1.09,1.09,15.18,15.18,0,1,0,30.35,0A1.09,1.09,0,0,0,63.5,50Zm-1.14,2.19a13,13,0,0,1-25.89,0Z"/><circle id="Oval" class="cls-1" cx="52.02" cy="19.41" r="1.56"/></g></g></g></g></svg>