<svg id="Слой_1" data-name="Слой 1" xmlns="http://www.w3.org/2000/svg" viewBox="0 0 91 91"><defs><style>.cls-1{fill:#a4c6d9;}</style></defs><title>8</title><g id="item-Page"><g id="Mobile-Icons"><g id="Group-Copy-13"><g id="_8" data-name="8"><path id="Shape" class="cls-1" d="M43.67,70.16a15.18,15.18,0,0,1-6.75-2.79,8.89,8.89,0,0,0-5.24-1.72H21.4a2.75,2.75,0,0,1-2.75-2.74V50a.92.92,0,0,0-1.83,0V62.9a4.58,4.58,0,0,0,4.59,4.56H31.67a7,7,0,0,1,4.15,1.36A17,17,0,0,0,43.4,72a.91.91,0,1,0,.27-1.8Z"/><path class="cls-1" d="M43.53,72.22h-.17A17.28,17.28,0,0,1,35.67,69a6.78,6.78,0,0,0-4-1.32H21.4a4.83,4.83,0,0,1-4.84-4.81V50a1.17,1.17,0,0,1,2.33,0V62.9a2.5,2.5,0,0,0,2.5,2.49H31.67a9.14,9.14,0,0,1,5.39,1.77,14.93,14.93,0,0,0,6.64,2.75h0a1.16,1.16,0,0,1-.17,2.31ZM17.73,49.39a.66.66,0,0,0-.67.66V62.9a4.33,4.33,0,0,0,4.34,4.31H31.67A7.28,7.28,0,0,1,36,68.63a16.78,16.78,0,0,0,7.46,3.09.67.67,0,0,0,.76-.56.65.65,0,0,0-.12-.49.66.66,0,0,0-.44-.26h0a15.42,15.42,0,0,1-6.87-2.84,8.64,8.64,0,0,0-5.1-1.68H21.4a3,3,0,0,1-3-3V50A.67.67,0,0,0,17.73,49.39Z"/><path id="Shape-2" data-name="Shape" class="cls-1" d="M71,54.57A5.19,5.19,0,0,0,71,45a5.16,5.16,0,0,0,1.67-3.81A5.22,5.22,0,0,0,67.46,36H66a.91.91,0,1,0,0,1.82H67.4a3.38,3.38,0,1,1,.09,6.75h-13a3.38,3.38,0,1,1,0-6.75h7.25a.91.91,0,1,0,0-1.82H56.85c4-6.42,4.68-14.63,3.79-17.36-1.63-5.05-8.53-5.48-9.94,1.15L50.45,21c-.73,3.4-.55,7.32-4.79,9.74A10.73,10.73,0,0,1,43,31.82a18.09,18.09,0,0,0-6.2,3,8.88,8.88,0,0,0-2.69,3.29,4,4,0,0,1-3.57,2.24H21.07a3.94,3.94,0,0,0-3.71,2.23,6.22,6.22,0,0,0-.55,3.2.92.92,0,0,0,1.83,0A4.73,4.73,0,0,1,19,43.36a2.1,2.1,0,0,1,2-1.17c15.08-.1,9.72.23,11.31-.31a15,15,0,0,0-.45,2.1.92.92,0,0,0,1.82.25,12.1,12.1,0,0,1,1.63-4.68,8.89,8.89,0,0,1,2.5-3.27,16.22,16.22,0,0,1,5.55-2.71,12.56,12.56,0,0,0,3.14-1.29c4.35-2.48,4.95-6.51,5.3-8.92.22-1.47.44-2.34.61-3.19,1.12-5.26,6.38-4.16,6.62.29A27,27,0,0,1,54.67,36h-.2a5.2,5.2,0,0,0-3,9.49,5.18,5.18,0,0,0,0,8.58,5.18,5.18,0,0,0,0,8.58,5.17,5.17,0,0,0-1,7.66H47.81a.91.91,0,1,0,0,1.82H66.67A5.2,5.2,0,0,0,70,62.94,5.18,5.18,0,0,0,71,54.57Zm-20-4.77a3.39,3.39,0,0,1,3.4-3.38h14.4a3.45,3.45,0,0,1,3.48,3.41c0,.23-1.54,3.34-3.39,3.34H54.46A3.39,3.39,0,0,1,51.07,49.8Zm19,17a3.44,3.44,0,0,1-3.48,3.51H54.46a3.38,3.38,0,1,1,0-6.75H66.67A3.39,3.39,0,0,1,70.07,66.82Zm-2.58-5.07h-13a3.38,3.38,0,1,1,0-6.75h13a3.38,3.38,0,1,1,0,6.75Z"/><path class="cls-1" d="M63,72.4H47.81a1.16,1.16,0,1,1,0-2.32H50a5.42,5.42,0,0,1,1.11-7.41,5.43,5.43,0,0,1,0-8.58,5.42,5.42,0,0,1,0-8.58,5.45,5.45,0,0,1,3.38-9.74h.07a26.71,26.71,0,0,0,4.33-15.29c-.12-2.2-1.53-3.45-2.86-3.56s-2.72.72-3.27,3.31l-.14.64c-.15.67-.31,1.43-.48,2.54-.36,2.45-1,6.55-5.43,9.1a12.81,12.81,0,0,1-3.21,1.32A16,16,0,0,0,38,36.49,6.82,6.82,0,0,0,36,39.05c-.13.24-.24.45-.36.64A11.89,11.89,0,0,0,34,44.27a1.17,1.17,0,0,1-2.09.54,1.15,1.15,0,0,1-.23-.86A15.06,15.06,0,0,1,32,42.44h-.72c-1.17,0-3.9,0-10.18,0a1.85,1.85,0,0,0-1.82,1,3.65,3.65,0,0,0-.35,1.91c0,.14,0,.28,0,.42a1.17,1.17,0,0,1-2.33,0v-.28a6,6,0,0,1,.58-3,4.18,4.18,0,0,1,3.93-2.37h9.45A3.72,3.72,0,0,0,33.87,38a9.13,9.13,0,0,1,2.76-3.39,18.35,18.35,0,0,1,6.29-3.05,10.48,10.48,0,0,0,2.62-1.08c3.39-1.94,3.87-4.89,4.34-7.74.1-.6.2-1.23.33-1.83l.25-1.17c.78-3.65,3.14-5,5.09-5.15a5.43,5.43,0,0,1,5.34,4c.82,2.55.29,10.61-3.59,17.19h4.42a1.16,1.16,0,1,1,0,2.32H54.46a3.13,3.13,0,1,0,0,6.25h13a3.15,3.15,0,0,0,3.08-2.5,3,3,0,0,0-.63-2.55A3.27,3.27,0,0,0,67.4,38.1H66a1.16,1.16,0,1,1,0-2.32h1.47a5.33,5.33,0,0,1,3.83,1.53A5.42,5.42,0,0,1,71.48,45a5.44,5.44,0,0,1,0,9.68A5.43,5.43,0,0,1,70.42,63a5.45,5.45,0,0,1-3.75,9.42H63ZM47.81,70.58a.66.66,0,1,0,0,1.32H66.67a4.95,4.95,0,0,0,3.17-8.77l-.29-.24.33-.18a4.93,4.93,0,0,0,1-8l-.28-.26.35-.15a4.94,4.94,0,0,0,0-9.08l-.35-.15.28-.26a4.92,4.92,0,0,0,.07-7.18,4.83,4.83,0,0,0-3.48-1.39H66a.66.66,0,1,0,0,1.32H67.4A3.77,3.77,0,0,1,70.33,39a3.5,3.5,0,0,1,.73,3,3.65,3.65,0,0,1-3.57,2.9h-13a3.63,3.63,0,1,1,0-7.25h7.25a.66.66,0,1,0,0-1.32H56.4l.23-.38c4-6.51,4.58-14.63,3.77-17.16a4.93,4.93,0,0,0-4.84-3.63c-2.28.12-4,1.89-4.62,4.75L50.69,21c-.13.59-.23,1.21-.32,1.81-.48,3-1,6-4.58,8.1A11,11,0,0,1,43,32.06a17.83,17.83,0,0,0-6.11,3,8.62,8.62,0,0,0-2.61,3.2,4.22,4.22,0,0,1-3.79,2.38H21.07a3.7,3.7,0,0,0-3.48,2.09,5.5,5.5,0,0,0-.52,2.8v.29a.67.67,0,0,0,1.33,0c0-.13,0-.26,0-.4a4.12,4.12,0,0,1,.41-2.15,2.36,2.36,0,0,1,2.26-1.31c6.28,0,9,0,10.19,0h.56a.79.79,0,0,1,.48-.31l.45-.15-.13.46A14.78,14.78,0,0,0,32.18,44a.66.66,0,0,0,.13.49.67.67,0,0,0,1.19-.31,12.4,12.4,0,0,1,1.67-4.77c.12-.18.22-.38.34-.6a7.35,7.35,0,0,1,2.22-2.73,16.47,16.47,0,0,1,5.64-2.75,12.3,12.3,0,0,0,3.08-1.27c4.25-2.42,4.83-6.38,5.18-8.74.17-1.12.33-1.89.48-2.57l.13-.63c.62-2.9,2.42-3.8,3.8-3.7,1.55.12,3.18,1.54,3.32,4a27.23,27.23,0,0,1-4.49,15.71l-.07.11h-.34a4.95,4.95,0,0,0-2.81,9l.3.21-.3.21a4.93,4.93,0,0,0,0,8.16l.3.21-.3.21a4.93,4.93,0,0,0,0,8.16l.3.21-.3.21a4.92,4.92,0,0,0-1,7.29l.36.41Zm18.77,0H54.46a3.63,3.63,0,1,1,0-7.25H66.67a3.62,3.62,0,0,1,3.64,3.49,3.53,3.53,0,0,1-1,2.6A3.81,3.81,0,0,1,66.58,70.58ZM54.46,63.83a3.13,3.13,0,1,0,0,6.25H66.58a3.31,3.31,0,0,0,2.37-1,3,3,0,0,0,.86-2.24h0a3.12,3.12,0,0,0-3.14-3Zm13-1.82h-13a3.63,3.63,0,1,1,0-7.25h13a3.63,3.63,0,1,1,0,7.25Zm-13-6.75a3.13,3.13,0,1,0,0,6.25h13a3.13,3.13,0,1,0,0-6.25ZM69,53.43H54.46a3.63,3.63,0,1,1,0-7.25h14.4a3.81,3.81,0,0,1,2.69,1.12,3.54,3.54,0,0,1,1,2.54C72.6,50.24,71,53.43,69,53.43ZM54.46,46.67a3.13,3.13,0,1,0,0,6.25H69c1.61,0,3.07-2.79,3.15-3.12a3,3,0,0,0-.9-2.16,3.31,3.31,0,0,0-2.34-1Z"/></g></g></g></g></svg>