<svg id="Слой_1" data-name="Слой 1" xmlns="http://www.w3.org/2000/svg" viewBox="0 0 52 51.76"><defs><style>.cls-1{fill:#9d9d9c}</style></defs><title>mus-instrument-4</title><rect class="cls-1" x="63.37" y="17.11" width="4.76" height="7" rx="1.91" ry="1.91" transform="rotate(-44.82 36.293 32.743)"/><path class="cls-1" d="M61.55 21.78a1.37 1.37 0 0 0-1.94 0l-.65.64a1.37 1.37 0 0 0-.37 1.27l-2 2-.77 4.81 4.82-.74 2-2a1.37 1.37 0 0 0 1.27-.36l.65-.64a1.37 1.37 0 0 0 0-1.94z" transform="translate(-17.12 -17.24)"/><path class="cls-1" d="M55.25 27l-2.56 2.54a6.82 6.82 0 0 0-5.57 5.54L24.76 57.33c-1.36 1.35-1.32 2.7-2.5 3.9a2.48 2.48 0 0 1-2.36.84 2 2 0 0 0-2.19 3.21l.32.32 2.47 2.49.32.32A2 2 0 0 0 24 66.23a2.48 2.48 0 0 1 .86-2.36c1.21-1.17 2.56-1.13 3.91-2.48l22.39-22.23a6.82 6.82 0 0 0 5.57-5.54l2.56-2.54-4.82.74zM28.73 59a1.11 1.11 0 1 1 0-1.58 1.11 1.11 0 0 1 0 1.58zm3.08-3.07a1.11 1.11 0 1 1 0-1.58 1.11 1.11 0 0 1 0 1.57zm3.09-3.07a1.12 1.12 0 1 1 0-1.58 1.12 1.12 0 0 1 0 1.58zm3.1-3.07a1.11 1.11 0 1 1 0-1.58 1.11 1.11 0 0 1 0 1.58zm3.08-3.07a1.11 1.11 0 1 1 0-1.57 1.11 1.11 0 0 1-.01 1.57zm3.09-3.07a1.11 1.11 0 1 1 0-1.58 1.11 1.11 0 0 1-.02 1.59zm3.08-3.07a1.11 1.11 0 1 1 0-1.58 1.12 1.12 0 0 1-.01 1.59z" transform="translate(-17.12 -17.24)"/></svg>