<svg id="Слой_1" data-name="Слой 1" xmlns="http://www.w3.org/2000/svg" viewBox="0 0 60 55.02"><defs><style>.cls-1{fill:#9d9d9c}</style></defs><title>mus-instrument-1</title><path class="cls-1" d="M73.12 21.21l-.78-3.29a1.13 1.13 0 0 0-.71-.77 1 1 0 0 0-.5 0l-1.34-.35-.83.8a.73.73 0 0 0 0-.09.77.77 0 0 0-.43-.3 1.18 1.18 0 0 0-.17-1.1 1.21 1.21 0 1 0-1.91 1.48 1.19 1.19 0 0 0 1.05.41.7.7 0 0 0 .39.59l-1.69 1.62a.77.77 0 0 0-.43-.3 1.18 1.18 0 0 0-.17-1.1 1.21 1.21 0 0 0-1.91 1.48 1.19 1.19 0 0 0 1.1.44.76.76 0 0 0 .12.35.78.78 0 0 0 .21.21L63.31 23a.77.77 0 0 0-.4-.27 1.18 1.18 0 0 0-.17-1.1 1.21 1.21 0 1 0-1.91 1.48 1.19 1.19 0 0 0 1.09.44.66.66 0 0 0 .28.52l-2.07 2a.76.76 0 0 0-.35-.22 1.18 1.18 0 0 0-.18-1.1 1.21 1.21 0 1 0-1.91 1.48 1.19 1.19 0 0 0 1.09.44.76.76 0 0 0 .12.35.75.75 0 0 0 .12.11l-1.37 1.32a.76.76 0 0 0-.31-.18 1.18 1.18 0 0 0-.18-1.1 1.21 1.21 0 0 0-1.91 1.48 1.19 1.19 0 0 0 1.09.44.76.76 0 0 0 .12.35.73.73 0 0 0 .08.08l-19.65 19-.44.42-.25.2a7.91 7.91 0 0 1-3.81 1c-1.77-.16-12.11-7.81-17.88.11-3 4.18-.54 9.13 1.32 11.21l2.6 3.11S13.88 58.23 20.12 53A10.19 10.19 0 0 1 27 50.66c2.51-.05 5.18 1.06 7.25.62a8.64 8.64 0 0 1-4.17.22 20.47 20.47 0 0 0-5.6 0 9.57 9.57 0 0 0-5.91 4.1 7.31 7.31 0 0 0-.74 6.1 14.39 14.39 0 0 0 2.88 5c1.78 2.13 5.1 6.11 9.94 2.25 3.39-2.7 4.1-5.8 4.67-8.29a9 9 0 0 1 1.55-4c1.82-2.12 21.51-21.26 31-30.46a1.18 1.18 0 0 0 1.64-1.59l1.19-1.15A1.2 1.2 0 0 0 72.3 22l.62-.6zm-37 34.91a9.77 9.77 0 0 0-1.72 4.38c-.57 2.47-1.21 5.27-4.33 7.75-3.43 2.73-5.75 1.29-8.6-2.12a13.46 13.46 0 0 1-2.7-4.68 6.29 6.29 0 0 1 .63-5.31 8.66 8.66 0 0 1 5.25-3.66 19.67 19.67 0 0 1 5.35 0c1.91.18 3.55.33 5-.46 1.14-.62 7.49-6.7 17.81-16.63 7.52-7.24 15.29-14.73 18.13-17.1.27-.23.39-.22.39-.23a.27.27 0 0 1 .07.11l.65 2.75-.46.44a1.19 1.19 0 0 0-1.54 1.49l-1.32 1.28a1.16 1.16 0 0 0-1.44 1.4C57.83 34.69 38 53.94 36.15 56.13z" transform="translate(-13.12 -15.61)"/><circle class="cls-1" cx="53.83" cy="30.22" r=".55" transform="rotate(-43.73 27.82 38.751)"/><circle class="cls-1" cx="52.37" cy="31.61" r=".55" transform="rotate(-43.75 26.381 40.15)"/><circle class="cls-1" cx="50.91" cy="33.01" r=".55" transform="matrix(.72 -.69 .69 .72 -21.8 28.8)"/><circle class="cls-1" cx="49.45" cy="34.41" r=".55" transform="rotate(-43.76 23.47 42.94)"/><circle class="cls-1" cx="46.87" cy="36.89" r=".55" transform="rotate(-43.75 20.87 45.414)"/><circle class="cls-1" cx="45.51" cy="38.19" r=".55" transform="rotate(-43.76 19.524 46.72)"/><circle class="cls-1" cx="44.15" cy="39.49" r=".55" transform="rotate(-43.73 18.149 48.034)"/><circle class="cls-1" cx="42.79" cy="40.79" r=".55" transform="rotate(-43.76 16.805 49.314)"/><circle class="cls-1" cx="41.43" cy="42.09" r=".55" transform="rotate(-43.77 15.447 50.613)"/><circle class="cls-1" cx="40.08" cy="43.39" r=".55" transform="rotate(-43.82 14.11 51.891)"/><circle class="cls-1" cx="38.72" cy="44.69" r=".55" transform="rotate(-43.76 12.736 53.218)"/><path class="cls-1" d="M25.26 60a.59.59 0 0 0-.82-.15l-1.09.82a.59.59 0 0 0-.08.82l2.79 3.72a.59.59 0 0 0 .81.15l1.13-.8a.59.59 0 0 0 .08-.82zm1.65 1.58a.32.32 0 0 0 .44.08l.59-.44a.32.32 0 0 0 0-.45l-1.52-2a.32.32 0 0 0-.44-.08l-.59.44a.32.32 0 0 0 0 .45z" transform="translate(-13.12 -15.61)"/></svg>