<svg id="hover-map" xmlns="http://www.w3.org/2000/svg" viewBox="0 0 120 70.36"><defs><style>.cls-1{fill:#7b7b7b}</style></defs><title>notebook-icon</title><path class="cls-1" d="M82.13 149.61h86.52V91.35H82.13zm1-57.27h84.52v56.27H83.13z" transform="translate(-66 -87.46)"/><path class="cls-1" d="M183.11 152.05h-11.42a2.87 2.87 0 0 0 .7-1.88V90.35a2.89 2.89 0 0 0-2.89-2.88H81.29a2.89 2.89 0 0 0-2.89 2.88v59.82a2.87 2.87 0 0 0 .7 1.88H68.88a2.89 2.89 0 0 0 0 5.77h114.23a2.89 2.89 0 0 0 0-5.77zm0 4.77H68.88a1.89 1.89 0 0 1 0-3.77h12.41v-1a1.89 1.89 0 0 1-1.89-1.88V90.35a1.89 1.89 0 0 1 1.89-1.88h88.21a1.89 1.89 0 0 1 1.89 1.88v59.82a1.89 1.89 0 0 1-1.89 1.88v1h13.61a1.89 1.89 0 0 1 0 3.77z" transform="translate(-66 -87.46)"/><path class="cls-1" d="M54.13 65.26h11.74v1H54.13z"/></svg>