<svg id="Слой_1" data-name="Слой 1" xmlns="http://www.w3.org/2000/svg" viewBox="0 0 91 91"><defs><style>.cls-1{fill:#df8e79;}</style></defs><title>12</title><g id="item-Page"><g id="Mobile-Icons"><g id="Group-Copy-17"><g id="_12" data-name="12"><path id="Shape" class="cls-1" d="M45.5,17.5a28,28,0,1,0,28,28A28.08,28.08,0,0,0,45.5,17.5Zm-25.67,28A25.74,25.74,0,0,1,45.5,19.83a12.25,12.25,0,1,1,0,24.5,14.53,14.53,0,0,0-11,24.38A25.72,25.72,0,0,1,19.83,45.5ZM45.5,71.17a12.25,12.25,0,1,1,0-24.5,14.53,14.53,0,0,0,11-24.38,25.67,25.67,0,0,1-11,48.88Z"/><path id="Shape-2" data-name="Shape" class="cls-1" d="M45.5,55.42a4.43,4.43,0,1,0,4.43,4.43A4.43,4.43,0,0,0,45.5,55.42Zm0,6.53a2.1,2.1,0,1,1,2.1-2.1A2.09,2.09,0,0,1,45.5,62Z"/><path id="Shape-3" data-name="Shape" class="cls-1" d="M45.5,36.52a4.43,4.43,0,1,0-4.43-4.43A4.43,4.43,0,0,0,45.5,36.52Zm0-6.53a2.1,2.1,0,1,1-2.1,2.1A2.09,2.09,0,0,1,45.5,30Z"/></g></g></g></g></svg>