<svg viewBox="0 0 91 91" xmlns="http://www.w3.org/2000/svg"><g fill="#df8e79"><path d="m45.5 17.5a28 28 0 1 0 28 28 28.08 28.08 0 0 0 -28-28zm-25.67 28a25.74 25.74 0 0 1 25.67-25.67 12.25 12.25 0 1 1 0 24.5 14.53 14.53 0 0 0 -11 24.38 25.72 25.72 0 0 1 -14.67-23.21zm25.67 25.67a12.25 12.25 0 1 1 0-24.5 14.53 14.53 0 0 0 11-24.38 25.67 25.67 0 0 1 -11 48.88z"/><path d="m45.5 55.42a4.43 4.43 0 1 0 4.43 4.43 4.43 4.43 0 0 0 -4.43-4.43zm0 6.53a2.1 2.1 0 1 1 2.1-2.1 2.09 2.09 0 0 1 -2.1 2.15z"/><path d="m45.5 36.52a4.43 4.43 0 1 0 -4.43-4.43 4.43 4.43 0 0 0 4.43 4.43zm0-6.53a2.1 2.1 0 1 1 -2.1 2.1 2.09 2.09 0 0 1 2.1-2.09z"/></g></svg>