<svg viewBox="0 0 91 91" xmlns="http://www.w3.org/2000/svg"><path d="m76.29 31.54a1.05 1.05 0 1 1 0 2.11 7 7 0 0 1 -5.13-2.24 4.83 4.83 0 0 0 -7.34 0 7 7 0 0 1 -10.26 0 4.83 4.83 0 0 0 -7.34 0 7 7 0 0 1 -10.26 0 4.83 4.83 0 0 0 -7.34 0 7 7 0 0 1 -10.26 0 4.9 4.9 0 0 0 -3.67-1.69 1.05 1.05 0 1 1 0-2.1 7 7 0 0 1 5.13 2.24 4.83 4.83 0 0 0 7.34 0 7 7 0 0 1 10.26 0 4.83 4.83 0 0 0 7.34 0 7 7 0 0 1 10.26 0 4.83 4.83 0 0 0 7.34 0 7 7 0 0 1 10.26 0 4.9 4.9 0 0 0 3.67 1.68zm0 9.91a1.05 1.05 0 1 1 0 2.1 7 7 0 0 1 -5.13-2.24 4.83 4.83 0 0 0 -7.34 0 7 7 0 0 1 -10.26 0 4.83 4.83 0 0 0 -7.34 0 7 7 0 0 1 -10.26 0l-.37-.31a1 1 0 0 1 -.09-1.49 1.1 1.1 0 0 1 1.5-.1l.41.36a4.83 4.83 0 0 0 7.34 0 7 7 0 0 1 10.26 0 4.83 4.83 0 0 0 7.34 0 7 7 0 0 1 10.26 0 4.9 4.9 0 0 0 3.68 1.69zm-42.45-3.77a1.05 1.05 0 0 1 .82 1.26 1.08 1.08 0 0 1 -1.29.8 5 5 0 0 0 -1.07-.11 4.9 4.9 0 0 0 -3.67 1.69 7 7 0 0 1 -10.26 0 4.9 4.9 0 0 0 -3.67-1.69 1.05 1.05 0 1 1 0-2.11 7 7 0 0 1 5.13 2.24 4.83 4.83 0 0 0 7.34 0 7 7 0 0 1 5.13-2.24 7.27 7.27 0 0 1 1.54.16zm42.45 23.6a1.05 1.05 0 1 1 0 2.11 7 7 0 0 1 -5.13-2.24 4.83 4.83 0 0 0 -7.34 0 7 7 0 0 1 -10.26 0 4.83 4.83 0 0 0 -7.34 0 7 7 0 0 1 -10.26 0 4.83 4.83 0 0 0 -7.34 0 7 7 0 0 1 -5.13 2.24 1.05 1.05 0 1 1 0-2.1 4.9 4.9 0 0 0 3.67-1.69 7 7 0 0 1 10.26 0 4.83 4.83 0 0 0 7.34 0 7 7 0 0 1 10.26 0 4.83 4.83 0 0 0 7.34 0 7 7 0 0 1 10.26 0 4.9 4.9 0 0 0 3.67 1.68zm-55.29-.75a1 1 0 0 1 .24 1.47 1.1 1.1 0 0 1 -1.51.25 13.44 13.44 0 0 1 -1.36-1.11 4.9 4.9 0 0 0 -3.67-1.69 1.05 1.05 0 1 1 0-2.1 7 7 0 0 1 5.13 2.24 11.63 11.63 0 0 0 1.17.94zm55.31-9.16a1.05 1.05 0 1 1 0 2.1 7 7 0 0 1 -5.13-2.24 4.83 4.83 0 0 0 -7.34 0 1.1 1.1 0 0 1 -1.53-.06 1 1 0 0 1 .07-1.49 7 7 0 0 1 10.26 0 4.9 4.9 0 0 0 3.65 1.69zm-15.11.63a1.05 1.05 0 0 1 -.78 1.28 7.15 7.15 0 0 1 -1.73.2 7 7 0 0 1 -5.13-2.24 4.83 4.83 0 0 0 -7.34 0 7 7 0 0 1 -10.26 0 4.83 4.83 0 0 0 -7.34 0 7 7 0 0 1 -10.26 0 4.9 4.9 0 0 0 -3.67-1.69 1.05 1.05 0 1 1 0-2.1 7 7 0 0 1 5.13 2.24 4.83 4.83 0 0 0 7.34 0 7 7 0 0 1 10.26 0 4.83 4.83 0 0 0 7.34 0 7 7 0 0 1 10.26 0 4.92 4.92 0 0 0 4.86 1.55 1.08 1.08 0 0 1 1.32.76z" fill="#a4c6d9"/></svg>