<svg id="Слой_1" data-name="Слой 1" xmlns="http://www.w3.org/2000/svg" viewBox="0 0 91 91"><defs><style>.cls-1{fill:#df8e79;}</style></defs><title>13</title><g id="item-Page"><g id="Mobile-Icons"><g id="Group-Copy-18"><g id="_13" data-name="13"><path id="Shape" class="cls-1" d="M22.56,45.75c.35,0,.7,0,1,0A13.78,13.78,0,0,1,32.53,49a30.3,30.3,0,0,1,12.9.37A.82.82,0,0,1,45,50.94a28.79,28.79,0,0,0-12.56-.27.81.81,0,0,1-.71-.19,12.16,12.16,0,0,0-9.07-3.09.77.77,0,0,0-.7.78v3a.82.82,0,1,1-1.63,0v-3A2.42,2.42,0,0,1,22.56,45.75Z"/><path class="cls-1" d="M21.16,52.23a1,1,0,0,1-1-1v-3a2.62,2.62,0,0,1,2.4-2.61h0c.35,0,.71,0,1.06,0a14,14,0,0,1,9,3.26,30.27,30.27,0,0,1,12.89.39,1,1,0,0,1,.73,1.25,1,1,0,0,1-.47.62,1,1,0,0,1-.77.11,28.71,28.71,0,0,0-12.47-.27,1,1,0,0,1-.88-.24,12,12,0,0,0-8.92-3,.57.57,0,0,0-.52.58v3A1,1,0,0,1,21.16,52.23Zm1.41-6.28a2.22,2.22,0,0,0-2,2.22v3a.62.62,0,1,0,1.23,0v-3a1,1,0,0,1,.89-1,12.43,12.43,0,0,1,9.22,3.14.62.62,0,0,0,.53.15,29.1,29.1,0,0,1,12.65.27.62.62,0,0,0,.75-.44.62.62,0,0,0-.44-.76,29.86,29.86,0,0,0-12.81-.36l-.09,0-.07-.06a13.62,13.62,0,0,0-8.79-3.23c-.34,0-.69,0-1,0Z"/><path id="Shape-2" data-name="Shape" class="cls-1" d="M21.16,54.22A.82.82,0,0,1,22,55V68.82a1.69,1.69,0,0,0,1.17,1.6,87.39,87.39,0,0,0,24.62,1.07,47.94,47.94,0,0,0,8.88-1.72.81.81,0,0,1,.57,0,13.11,13.11,0,0,0,7.94-.9,4.9,4.9,0,0,0,2.35-2.32,16.13,16.13,0,0,0,1.38-4.93.82.82,0,1,1,1.62.21A17.79,17.79,0,0,1,69,67.22a6.54,6.54,0,0,1-3.13,3.1A14.83,14.83,0,0,1,57,71.37C52,73,44.89,73.56,39.56,73.56A97,97,0,0,1,22.72,72a3.33,3.33,0,0,1-2.37-3.19V55A.82.82,0,0,1,21.16,54.22Z"/><path class="cls-1" d="M39.56,73.76a97.62,97.62,0,0,1-16.9-1.56,3.53,3.53,0,0,1-2.51-3.38V55a1,1,0,1,1,2,0V68.82a1.49,1.49,0,0,0,1,1.41,87.14,87.14,0,0,0,24.53,1.06,47.83,47.83,0,0,0,8.82-1.7,1,1,0,0,1,.7,0,13,13,0,0,0,7.8-.89,4.69,4.69,0,0,0,2.25-2.22,16,16,0,0,0,1.37-4.87,1,1,0,0,1,.39-.68,1,1,0,0,1,.75-.2,1,1,0,0,1,.88,1.14,18,18,0,0,1-1.55,5.5,6.75,6.75,0,0,1-3.23,3.19A15.08,15.08,0,0,1,57,71.58C50.71,73.6,42.06,73.76,39.56,73.76ZM21.16,54.42a.62.62,0,0,0-.62.62V68.82a3.13,3.13,0,0,0,2.23,3,97.08,97.08,0,0,0,16.79,1.54c2.5,0,11.13-.16,17.41-2.18l0,0h.05a14.63,14.63,0,0,0,8.67-1,6.35,6.35,0,0,0,3-3,17.64,17.64,0,0,0,1.51-5.38.62.62,0,0,0-.53-.7.64.64,0,0,0-.45.12.62.62,0,0,0-.24.42,16.29,16.29,0,0,1-1.4,5A5.09,5.09,0,0,1,65.23,69a13.19,13.19,0,0,1-8.07.91.64.64,0,0,0-.43,0,48.61,48.61,0,0,1-8.94,1.74,87.55,87.55,0,0,1-24.67-1.07,1.89,1.89,0,0,1-1.33-1.8V55A.62.62,0,0,0,21.16,54.42Z"/><path id="Shape-3" data-name="Shape" class="cls-1" d="M40.18,25.85c.67-1.09,1.72-1.19,2.91-1.15-.75-1.31-1.39-2.21-1.39-3.73a2.88,2.88,0,0,1,.83-2.13C44.4,17,49,17.5,55.19,17.5c5.78,0,7,7,6.7,12.77a3.05,3.05,0,0,0,.49,1.81c1.59,2.48.45,4.15,2.13,7.08,3.84,6.7,5.91,13,6.15,18.65a.82.82,0,1,1-1.63.07c-.22-5.4-2.22-11.43-5.93-17.9-1.85-3.22-.82-5-2.09-7a4.69,4.69,0,0,1-.75-2.78c.23-4.63-.47-11-5.07-11-7.18,0-11.85-.55-11.85,1.82,0,1.3.74,2,1.73,3.95,3,.51,3.93,1.14,5.34.58A.93.93,0,0,0,51,24.35s0-.68-1.09-.79l-2.2-.25a.82.82,0,0,1,.18-1.63l2.19.25c3.53.36,3.66,5.44-.84,5.44-1.62,0-4.68-1.25-7.11-1-.72.11-.83.85-.61,1.48s3.72,1.81,4.4,2c2.51.84,2.89,2.4,6.42,4.5a4.25,4.25,0,0,1,2.1,3.47c0,.1-.26,10.2.65,16.41l1,1.1A.83.83,0,0,1,56,56.52a.81.81,0,0,1-1.14,0,20.92,20.92,0,0,0-6.32-4.32.82.82,0,0,1-.42-1.08.81.81,0,0,1,1.08-.42A23.34,23.34,0,0,1,53.29,53a132.32,132.32,0,0,1-.48-15.17,2.63,2.63,0,0,0-1.3-2.05c-3.7-2.21-4-3.66-6.1-4.35-2.9-1-5-1.75-5.43-3.07A3,3,0,0,1,40.18,25.85Z"/><path class="cls-1" d="M69.84,58.86a1,1,0,0,1-1-1c-.22-5.37-2.21-11.36-5.91-17.8a10.09,10.09,0,0,1-1.32-4.34,5.72,5.72,0,0,0-.76-2.66,4.9,4.9,0,0,1-.78-2.9c.13-2.65,0-7.44-2.1-9.67a3.69,3.69,0,0,0-2.77-1.17c-1.23,0-2.38,0-3.45,0-4-.05-6.94-.1-7.88.83a1.1,1.1,0,0,0-.33.83,4.4,4.4,0,0,0,.88,2.35c.24.4.5.86.79,1.42.91.16,1.64.33,2.23.47,1.33.31,2,.47,2.91.11a.74.74,0,0,0,.48-.88.48.48,0,0,1,0-.08c0-.14-.14-.52-.9-.59l-2.2-.25a1,1,0,0,1-.52-1.81,1,1,0,0,1,.74-.21l2.19.25a2.9,2.9,0,0,1,2.77,3c-.07,1.4-1.22,2.82-3.64,2.82a13,13,0,0,1-2.58-.44,14.86,14.86,0,0,0-4.51-.57.56.56,0,0,0-.42.26,1.2,1.2,0,0,0,0,1c0,.13.48.66,4.18,1.88l.09,0a8.07,8.07,0,0,1,3.09,2,19.71,19.71,0,0,0,3.37,2.53,4.46,4.46,0,0,1,2.19,3.65c0,.1-.26,10.14.64,16.32l.91,1.06a1,1,0,0,1-.07,1.42,1,1,0,0,1-1.41,0,20.77,20.77,0,0,0-6.26-4.28,1,1,0,0,1,0-1.89,1,1,0,0,1,.78,0A23.61,23.61,0,0,1,53,52.61a135.61,135.61,0,0,1-.43-14.76A2.43,2.43,0,0,0,51.41,36a20.62,20.62,0,0,1-3.66-2.74,6.33,6.33,0,0,0-2.4-1.59c-3-1-5.08-1.79-5.56-3.2a3.2,3.2,0,0,1,.22-2.7h0a2.83,2.83,0,0,1,2.72-1.25h0l-.07-.12A6.2,6.2,0,0,1,41.51,21a3.07,3.07,0,0,1,.89-2.27c1.57-1.56,4.9-1.5,9.49-1.43,1,0,2.14,0,3.3,0A5.59,5.59,0,0,1,59.4,19c2.68,2.81,2.83,8.25,2.69,11.23A2.85,2.85,0,0,0,62.54,32,7.08,7.08,0,0,1,63.6,35.4a8.43,8.43,0,0,0,1.08,3.66c3.86,6.73,5.94,13,6.17,18.74a1,1,0,0,1-.28.75A1,1,0,0,1,69.84,58.86Zm-20.68-40,2.6,0c1.07,0,2.22,0,3.44,0a4.07,4.07,0,0,1,3.06,1.29c2.23,2.34,2.34,7.25,2.21,10a4.48,4.48,0,0,0,.72,2.67A6.1,6.1,0,0,1,62,35.69a9.77,9.77,0,0,0,1.27,4.19c3.73,6.5,5.73,12.55,6,18a.62.62,0,0,0,.62.6.61.61,0,0,0,.44-.19.62.62,0,0,0,.17-.46c-.23-5.64-2.29-11.88-6.12-18.56a8.75,8.75,0,0,1-1.13-3.81,6.74,6.74,0,0,0-1-3.26,3.27,3.27,0,0,1-.52-1.93c.14-2.93,0-8.24-2.58-10.94a5.2,5.2,0,0,0-3.92-1.62c-1.16,0-2.27,0-3.31,0-4.5-.07-7.75-.12-9.2,1.32a2.69,2.69,0,0,0-.77,2A5.89,5.89,0,0,0,43,24.17l.43.74h-.35c-1.08,0-2.11,0-2.74,1.06h0a2.8,2.8,0,0,0-.18,2.36c.42,1.23,2.46,2,5.31,2.95A6.72,6.72,0,0,1,48,32.94a20.3,20.3,0,0,0,3.6,2.7A2.84,2.84,0,0,1,53,37.84,132.63,132.63,0,0,0,53.49,53l0,.45-.36-.26a23.14,23.14,0,0,0-4.06-2.33.61.61,0,0,0-.47,0,.62.62,0,0,0-.34.33.62.62,0,0,0,.31.82A21.2,21.2,0,0,1,55,56.36a.61.61,0,0,0,.86,0,.62.62,0,0,0,0-.87l-1-1.14V54.3C54,48.1,54.24,38,54.25,37.85a4,4,0,0,0-2-3.29A20.26,20.26,0,0,1,48.82,32a7.77,7.77,0,0,0-2.95-1.9l-.09,0c-3.75-1.24-4.32-1.81-4.43-2.14a1.57,1.57,0,0,1,.06-1.29,1,1,0,0,1,.71-.45,15.08,15.08,0,0,1,4.65.57,13.1,13.1,0,0,0,2.49.43c2.3,0,3.18-1.31,3.24-2.44a2.51,2.51,0,0,0-2.41-2.6l-2.19-.25a.62.62,0,0,0-.14,1.24l2.2.25a1.27,1.27,0,0,1,1.24.87l0,.05a1.13,1.13,0,0,1-.71,1.39,4.79,4.79,0,0,1-3.15-.09c-.6-.14-1.36-.32-2.31-.48l-.1,0,0-.09c-.3-.6-.58-1.07-.83-1.49A4.75,4.75,0,0,1,43.14,21a1.5,1.5,0,0,1,.45-1.11C44.42,19,46.32,18.89,49.15,18.89Z"/></g></g></g></g></svg>