<svg viewBox="0 0 91 91" xmlns="http://www.w3.org/2000/svg"><g fill="#a4d9d1"><path d="m56.48 19.49a1.1 1.1 0 1 0 -.86 2 26 26 0 1 1 -10.12-2 1.1 1.1 0 0 0 0-2.21 28.2 28.2 0 1 0 11 2.21z"/><path d="m59.09 56.65a1 1 0 0 0 -1.48.41 5.92 5.92 0 0 1 -5.07 3.3 5.68 5.68 0 0 1 -5-3.26 1 1 0 0 0 -1.47-.46 1.27 1.27 0 0 0 -.42 1.63 7.82 7.82 0 0 0 6.9 4.49 8.06 8.06 0 0 0 6.92-4.46 1.27 1.27 0 0 0 -.38-1.65z"/><path d="m65.75 42.39a6.12 6.12 0 0 1 -5.34 3.11 6.32 6.32 0 0 1 -5.35-3.08 1.07 1.07 0 0 1 .37-1.47 1.09 1.09 0 0 1 1.49.37 4.14 4.14 0 0 0 3.49 2 4 4 0 0 0 3.44-2 1.09 1.09 0 0 1 1.47-.42 1.07 1.07 0 0 1 .43 1.49z"/><path d="m48.5 42.39a6.12 6.12 0 0 1 -5.34 3.11 6.32 6.32 0 0 1 -5.35-3.08 1.07 1.07 0 0 1 .37-1.47 1.09 1.09 0 0 1 1.49.37 4.14 4.14 0 0 0 3.49 2 4 4 0 0 0 3.44-2 1.09 1.09 0 0 1 1.47-.42 1.07 1.07 0 0 1 .43 1.49z"/><path d="m35.16 37.55a1.31 1.31 0 0 0 1.6-.41 5.48 5.48 0 0 1 2.54-1.69 6.25 6.25 0 0 1 3.13-.45 1.23 1.23 0 0 0 1.46-.69 1 1 0 0 0 -.83-1.21 5.47 5.47 0 0 0 -1.21-.1 10.33 10.33 0 0 0 -3.53.7 7.57 7.57 0 0 0 -3.65 2.56.91.91 0 0 0 .49 1.29z"/><path d="m59.66 34.29a1.23 1.23 0 0 0 1.46.68 6.27 6.27 0 0 1 3.14.47 5.48 5.48 0 0 1 2.54 1.69 1.31 1.31 0 0 0 1.6.41.91.91 0 0 0 .5-1.33 7.56 7.56 0 0 0 -3.65-2.56 10.34 10.34 0 0 0 -3.53-.7 5.46 5.46 0 0 0 -1.21.13 1 1 0 0 0 -.85 1.21z"/><circle cx="52.56" cy="19.63" r="1.57"/></g></svg>