<svg viewBox="0 0 91 91" xmlns="http://www.w3.org/2000/svg"><g fill="#ffd591"><path d="m56.78 19.55a1.1 1.1 0 1 0 -.85 2 25.9 25.9 0 1 1 -10.07-2 1.1 1.1 0 0 0 0-2.2 28.06 28.06 0 1 0 10.92 2.2z"/><path d="m48.69 48.47a1.1 1.1 0 0 0 -1.54-.19 9 9 0 0 1 -5.15 1.34 8.58 8.58 0 0 1 -5-1.32 1.1 1.1 0 1 0 -1.42 1.7 10.47 10.47 0 0 0 6.42 1.81 11 11 0 0 0 6.49-1.81 1.1 1.1 0 0 0 .2-1.53z"/><path d="m58.14 69.54a1.1 1.1 0 0 0 -1.38-.71 9 9 0 0 1 -5.26-.49 8.58 8.58 0 0 1 -4.29-3 1.1 1.1 0 0 0 -1.9 1.1 10.47 10.47 0 0 0 5.44 3.92 11 11 0 0 0 6.69.52 1.1 1.1 0 0 0 .7-1.34z"/><path d="m67.72 48.47a1.1 1.1 0 0 0 -1.54-.19 9 9 0 0 1 -5.11 1.34 8.58 8.58 0 0 1 -5-1.32 1.1 1.1 0 0 0 -1.45 1.7 10.47 10.47 0 0 0 6.45 1.83 11 11 0 0 0 6.46-1.83 1.1 1.1 0 0 0 .19-1.53z"/><path d="m35.49 46.07a1.1 1.1 0 0 0 1.51-.46 5.19 5.19 0 0 1 2.35-1.89 4.9 4.9 0 0 1 2.91-.53 1.1 1.1 0 0 0 .59-2.12 4.24 4.24 0 0 0 -1.13-.14 8.17 8.17 0 0 0 -3.27.78 7.22 7.22 0 0 0 -3.45 2.87 1.1 1.1 0 0 0 .49 1.49z"/><path d="m59.24 42.43a1.1 1.1 0 0 0 1.35.76 4.91 4.91 0 0 1 2.91.53 5.19 5.19 0 0 1 2.35 1.89 1.1 1.1 0 1 0 1.94-1 7.22 7.22 0 0 0 -3.39-2.86 8.18 8.18 0 0 0 -3.28-.78 4.24 4.24 0 0 0 -1.13.14 1.1 1.1 0 0 0 -.75 1.32z"/><circle cx="52.78" cy="19.41" r="1.56"/></g></svg>