<svg viewBox="0 0 91 91" xmlns="http://www.w3.org/2000/svg"><g fill="#ffd591"><path d="m68.67 29.78a28 28 0 0 0 -12.42-10.14 1.09 1.09 0 0 0 -.84 2 25.83 25.83 0 1 1 -9.91-2 1.09 1.09 0 0 0 0-2.19 28 28 0 1 0 23.17 12.33z"/><path d="m40.78 32.42a4.75 4.75 0 0 0 -4.78 4.75 1.09 1.09 0 1 0 2.19 0 2.56 2.56 0 0 1 5.12 0 1.09 1.09 0 1 0 2.19 0 4.75 4.75 0 0 0 -4.72-4.75z"/><path d="m59.27 32.42a4.75 4.75 0 0 0 -4.75 4.75 1.09 1.09 0 0 0 2.19 0 2.56 2.56 0 1 1 5.12 0 1.09 1.09 0 0 0 2.19 0 4.75 4.75 0 0 0 -4.75-4.75z"/><path d="m63.5 50h-28.17a1.09 1.09 0 0 0 -1.09 1.09 15.18 15.18 0 1 0 30.35 0 1.09 1.09 0 0 0 -1.09-1.09zm-1.14 2.19a13 13 0 0 1 -25.89 0z"/><circle cx="52.02" cy="19.41" r="1.56"/></g></svg>