<svg viewBox="0 0 91 91" xmlns="http://www.w3.org/2000/svg"><g fill="#df8e79"><path d="m73.44 30.24c-5.21-1.12-10.45-2-17.27-.26a19.39 19.39 0 0 1 -5.05.77 13.25 13.25 0 0 1 -2.59-.43h-.15a40.55 40.55 0 0 0 -19.44-.41 1.09 1.09 0 0 0 -.83 1.23l.45 3a1.09 1.09 0 0 0 1.04.86h.13c.15 3.72.9 6.27 2.33 8s3.87 2.77 7.12 2.77a11 11 0 0 0 8.31-3.93 13.56 13.56 0 0 0 3.11-5.84 1 1 0 0 1 .17-.49 1 1 0 0 1 .42-.05c.34 0 .35 0 .55.54l.1.27c1.32 3.34 2.47 5.71 4.16 7.23s4 2.1 6.73 2.34q.74.07 1.42.07c2.73 0 4.7-.79 6-2.39l.1-.12q.09 1.07.09 2.14a25.73 25.73 0 1 1 -25.73-25.85 25.44 25.44 0 0 1 15.58 5.31 1.09 1.09 0 0 0 1.32-1.74 27.6 27.6 0 0 0 -16.9-5.72 28 28 0 1 0 27.26 21.91c.11-.51.2-1 .28-1.5a18.87 18.87 0 0 1 .49-2.27 2.17 2.17 0 0 1 .12-.32h.11a1.09 1.09 0 0 0 1.06-1l.37-3a1.09 1.09 0 0 0 -.86-1.12zm-1.58 3.12a2.44 2.44 0 0 0 -1.31 1.64 20.35 20.35 0 0 0 -.55 2.57c-.09.54-.19 1.07-.3 1.58v.11c-.62 2.74-1.81 4.8-6.76 4.37-5.13-.45-6.48-1.67-9.05-8.2l-.07-.19a2.56 2.56 0 0 0 -2.56-2h-.1a2.5 2.5 0 0 0 -2.68 2.34c-.37 2.06-3.36 8-9.26 8-5.05 0-7-2.37-7.28-8.74a2 2 0 0 0 -1.35-1.84l-.18-1.19a38.84 38.84 0 0 1 17.47.62h.15a15.14 15.14 0 0 0 3 .49 21.24 21.24 0 0 0 5.65-.83c5.94-1.5 10.67-.88 15.3.07z"/><path d="m59 52.71a1 1 0 0 0 -1.2.88 5.9 5.9 0 0 1 -3.49 4.58 5.43 5.43 0 0 1 -5.54-.89 1 1 0 0 0 -1.47.15 1.09 1.09 0 0 0 .14 1.5 7.51 7.51 0 0 0 4.83 1.77 7.43 7.43 0 0 0 2.79-.54 8 8 0 0 0 4.78-6.21 1.07 1.07 0 0 0 -.84-1.24z"/><circle cx="63.9" cy="26.3" r="1.6"/></g></svg>