<svg viewBox="0 0 91 91" xmlns="http://www.w3.org/2000/svg"><g fill="#a4c6d9"><path d="m55.64 67.43v-2.24a24 24 0 0 0 -.79-44 1 1 0 1 1 .79-1.88 26.09 26.09 0 0 1 0 48.07zm-17.39 1a26.09 26.09 0 0 1 7.25-51.12 1 1 0 0 1 0 2 24 24 0 0 0 -7.25 47z"/><circle cx="51.93" cy="19.23" r="1.45"/><circle cx="43.24" cy="40.97" r="2.47"/><circle cx="59.18" cy="40.97" r="2.47"/><g stroke="#a4c6d9" stroke-width="1.16"><path d="m54.54 58.14v-7.39a.45.45 0 0 0 -.89 0v7.25a20 20 0 0 1 -2.95-.72v-11.53a1.44 1.44 0 0 1 .47-1.07 1.48 1.48 0 0 1 2.48 1.11v1.21a.45.45 0 0 0 .89 0v-1.21a2.37 2.37 0 0 0 -4-1.76 2.35 2.35 0 0 0 -.75 1.72v7.45a2.38 2.38 0 0 0 -3.46.56 2.38 2.38 0 0 0 -3.88.24 2.37 2.37 0 0 0 -4.17 1.52v7.41a.45.45 0 0 0 .89 0v-.87a2.38 2.38 0 0 0 3.39-.46 2.38 2.38 0 0 0 3.84 0 2.37 2.37 0 0 0 3.33.51 15.14 15.14 0 0 0 2.41.77.44.44 0 0 0 .11-.87 16 16 0 0 1 -3.34-1.26c-.44-.24-1.82-1.13-1.14-2.54.37-.77.55-.8 2.1-.32l.23.08a19.9 19.9 0 0 0 3.91.94 2.61 2.61 0 0 1 2.14 2.76 30.62 30.62 0 0 1 -.57 4 5 5 0 0 1 -.67 1.78 6.52 6.52 0 0 1 -1.23 1.55 3.83 3.83 0 0 1 -1.64.78.44.44 0 1 0 .21.86l.41-.11v1.11a1.17 1.17 0 0 1 -1.17 1.17h-.57a.44.44 0 1 0 0 .89h.57a2.06 2.06 0 0 0 2.07-2.05v-1.41a9 9 0 0 0 .75-.61 6.87 6.87 0 0 0 2.13-3.63 34.76 34.76 0 0 0 .6-4.14v-.1a3.49 3.49 0 0 0 -2.5-3.62zm-13.88 3.55a1.47 1.47 0 0 1 -1.48-1.46v-4.7a1.48 1.48 0 0 1 2.94-.2v5.06a1.47 1.47 0 0 1 -1.46 1.3zm5.34-1.46a1.48 1.48 0 0 1 -2.94.16c0-.11 0-4.8 0-5.17a1.48 1.48 0 0 1 3 0zm2.74 1.42a1.47 1.47 0 0 1 -1.85-1.42v-.42a3.5 3.5 0 0 0 1.81 1.84zm-.07-4.94a1.77 1.77 0 0 0 -1.78 1.41v-3.12a1.48 1.48 0 0 1 3 0v2a5.45 5.45 0 0 0 -1.26-.3z"/><path d="m47.12 72.8h-4.65a1.18 1.18 0 0 1 -1.19-1.18 4.35 4.35 0 0 0 -.76-2.88c-.82-1.09-1.28-.67-1.33-2a.45.45 0 0 0 -.89 0c.06 1.54.58 1.3 1.51 2.53a3.54 3.54 0 0 1 .59 2.35 2.07 2.07 0 0 0 2.08 2.06h4.66a.44.44 0 1 0 0-.89z"/></g></g></svg>