<svg id="Слой_1" data-name="Слой 1" xmlns="http://www.w3.org/2000/svg" viewBox="0 0 91 91"><defs><style>.cls-1,.cls-2{fill:#a4c6d9;}.cls-2{stroke:#a4c6d9;stroke-width:1.16px;}</style></defs><title>10</title><g id="item-Page"><g id="Mobile-Icons"><g id="Group-Copy-14"><g id="_10" data-name="10"><path id="Combined-Shape" class="cls-1" d="M55.64,67.43V65.19a24,24,0,0,0-.79-44,1,1,0,1,1,.79-1.88,26.09,26.09,0,0,1,0,48.07Zm-17.39,1A26.09,26.09,0,0,1,45.5,17.31a1,1,0,0,1,0,2,24,24,0,0,0-7.25,47Z"/><circle id="Oval" class="cls-1" cx="51.93" cy="19.23" r="1.45"/><circle id="Oval-2" data-name="Oval" class="cls-1" cx="43.24" cy="40.97" r="2.47"/><circle id="Oval-3" data-name="Oval" class="cls-1" cx="59.18" cy="40.97" r="2.47"/><g id="pointing-up"><path id="Shape" class="cls-2" d="M54.54,58.14V50.75a.45.45,0,0,0-.89,0V58a20,20,0,0,1-2.95-.72V45.75a1.44,1.44,0,0,1,.47-1.07,1.48,1.48,0,0,1,2.48,1.11V47a.45.45,0,0,0,.89,0V45.79a2.37,2.37,0,0,0-4-1.76,2.35,2.35,0,0,0-.75,1.72V53.2a2.38,2.38,0,0,0-3.46.56,2.38,2.38,0,0,0-3.88.24,2.37,2.37,0,0,0-4.17,1.52v7.41a.45.45,0,0,0,.89,0v-.87a2.38,2.38,0,0,0,3.39-.46,2.38,2.38,0,0,0,3.84,0,2.37,2.37,0,0,0,3.33.51,15.14,15.14,0,0,0,2.41.77.44.44,0,0,0,.11-.87,16,16,0,0,1-3.34-1.26c-.44-.24-1.82-1.13-1.14-2.54.37-.77.55-.8,2.1-.32l.23.08a19.9,19.9,0,0,0,3.91.94,2.61,2.61,0,0,1,2.14,2.76,30.62,30.62,0,0,1-.57,4,5,5,0,0,1-.67,1.78A6.52,6.52,0,0,1,53.68,69a3.83,3.83,0,0,1-1.64.78.44.44,0,1,0,.21.86l.41-.11v1.11a1.17,1.17,0,0,1-1.17,1.17h-.57a.44.44,0,1,0,0,.89h.57a2.06,2.06,0,0,0,2.07-2.05V70.24a9,9,0,0,0,.75-.61A6.87,6.87,0,0,0,56.44,66a34.76,34.76,0,0,0,.6-4.14v-.1A3.49,3.49,0,0,0,54.54,58.14ZM40.66,61.69a1.47,1.47,0,0,1-1.48-1.46v-4.7a1.48,1.48,0,0,1,2.94-.2c0,5.18,0,4.89,0,5.06A1.47,1.47,0,0,1,40.66,61.69ZM46,60.23a1.48,1.48,0,0,1-2.94.16c0-.11,0-4.8,0-5.17a1.48,1.48,0,0,1,3,0Zm2.74,1.42a1.47,1.47,0,0,1-1.85-1.42v-.42A3.5,3.5,0,0,0,48.7,61.65Zm-.07-4.94a1.77,1.77,0,0,0-1.78,1.41V55a1.48,1.48,0,0,1,3,0V57A5.45,5.45,0,0,0,48.63,56.7Z"/><path id="Shape-2" data-name="Shape" class="cls-2" d="M47.12,72.8H42.47a1.18,1.18,0,0,1-1.19-1.18,4.35,4.35,0,0,0-.76-2.88c-.82-1.09-1.28-.67-1.33-2a.45.45,0,0,0-.89,0c.06,1.54.58,1.3,1.51,2.53a3.54,3.54,0,0,1,.59,2.35,2.07,2.07,0,0,0,2.08,2.06h4.66a.44.44,0,1,0,0-.89Z"/></g></g></g></g></g></svg>