<svg id="Layer_1" data-name="Layer 1" xmlns="http://www.w3.org/2000/svg" xmlns:xlink="http://www.w3.org/1999/xlink" viewBox="0 0 524.59 548.51"><defs><style>.cls-1{fill:#a73544}.cls-1,.cls-11,.cls-2,.cls-3,.cls-4,.cls-5,.cls-6,.cls-7,.cls-8{opacity:0}.cls-2{fill:#ffed00}.cls-3{fill:#59a80f}.cls-4{fill:#ec1d44}.cls-5{fill:#3a84d2}.cls-6{fill:#b8b8b8}.cls-7{fill:url(#Безымянный_градиент)}.cls-8{fill:url(#Безымянный_градиент_2)}.cls-9{fill:#dcdcdc}.cls-10{fill:#9d9d9d}.cls-12{fill:#ecbe13}</style><radialGradient id="Безымянный_градиент" cx="476.36" cy="80.87" r="6.79" gradientTransform="matrix(1 0 0 -1 -.08 550)" gradientUnits="userSpaceOnUse"><stop offset="0" stop-color="#fed950"/><stop offset=".22" stop-color="#fff8af"/><stop offset=".27" stop-color="#ffffc5"/><stop offset=".53" stop-color="#fde0e4"/><stop offset=".96" stop-color="#f97dc0"/></radialGradient><radialGradient id="Безымянный_градиент_2" cx="48.37" cy="80.84" r="6.79" xlink:href="#Безымянный_градиент"/></defs><title>yog-llustration-chakras-new-transparent</title><g id="_1-chakra" data-name="1-chakra"><path class="cls-1" d="M59.1 454.33a5.58 5.58 0 0 0 .15 1.28 5.76 5.76 0 0 0 3.18 3.91 5.63 5.63 0 0 0 1.87.5h.53a5.65 5.65 0 0 0 1.6-.23 5.72 5.72 0 0 0 4.12-5.49 5.37 5.37 0 0 0 0-.74 5.72 5.72 0 0 0-11.39.74zm406.74 0a5.58 5.58 0 0 1-.15 1.28 5.76 5.76 0 0 1-3.18 3.91 5.63 5.63 0 0 1-1.87.5h-.53a5.65 5.65 0 0 1-1.6-.23 5.72 5.72 0 0 1-4.12-5.49 5.37 5.37 0 0 1 0-.74 5.72 5.72 0 0 1 11.39.74z" transform="translate(.01)" id="_1-chakra-2" data-name="1-chakra-2"/></g><g id="_2-chakra" data-name="2-chakra"><path class="cls-2" d="M8.74 471.44c4.08 1.83 9.66 0 16.83-3.67 1.9-1 1.61.87 1.84.74a60.92 60.92 0 0 1 6.16-3 15.37 15.37 0 0 1 18.66-11.15h.17c.51-2.7.79-6.18-.34-8.68 0 0-9.15 1.56-10.91 2-13.23 2.92-17.83 11.92-23.83 15.92-2.7 1.81-11.07 6.72-8.58 7.84zm507.46 0c-4.08 1.83-9.66 0-16.83-3.67-1.9-1-1.61.87-1.84.74a60.91 60.91 0 0 0-6.16-3 15.37 15.37 0 0 0-18.66-11.15h-.17c-.51-2.7-.79-6.18.34-8.68 0 0 9.15 1.56 10.91 2 13.25 2.91 17.83 11.91 23.83 15.91 2.7 1.82 11.07 6.73 8.58 7.85z" transform="translate(.01)" id="_2-chakra-2" data-name="2-chakra-2"/></g><g id="_3-chakra" data-name="3-chakra"><path class="cls-3" d="M5.45 508.64c3.45-3.4 10.22-7.74 12.54-9.29l.28-.2c2.56-1.76 17.33-14.25 18.83-15.75a17.38 17.38 0 0 1 2.42-1.63 15.38 15.38 0 0 1-3.11-3 14.71 14.71 0 0 1-2-3.3c-1.89 2.12-4 4.45-4.7 5.16C28.36 482 7.21 499.19 4.76 501c-7.36 5.27-.94 9.1.69 7.64zm514.04 0c-3.45-3.4-10.22-7.74-12.54-9.29l-.28-.2c-2.56-1.76-17.33-14.25-18.83-15.75a17.38 17.38 0 0 0-2.42-1.63 15.38 15.38 0 0 0 3.11-3 14.71 14.71 0 0 0 2-3.3c1.89 2.12 4 4.45 4.7 5.16 1.37 1.37 22.52 18.54 25 20.31 7.31 5.33.89 9.16-.74 7.7z" transform="translate(.01)" id="_3-chakra-2" data-name="3-chakra-2"/></g><path class="cls-3" d="M63.54 467.17a15.36 15.36 0 1 0-21.62 15.95 15 15 0 0 0 5 1.34 13.5 13.5 0 0 0 1.42.07 15.18 15.18 0 0 0 4.29-.61 15.37 15.37 0 0 0 11.08-14.75 14.82 14.82 0 0 0-.17-2zm-13.14 9.2a7.54 7.54 0 0 1-2.09.3 5.32 5.32 0 0 1-.69 0 7.22 7.22 0 0 1-2.45-.65 8.35 8.35 0 0 1-1.23-.71 7.54 7.54 0 0 1-2.94-4.42 7.21 7.21 0 0 1-.19-1.68 7.9 7.9 0 0 1 .22-1.83 7.51 7.51 0 0 1 7.28-5.67 7.66 7.66 0 0 1 1.92.25 7.49 7.49 0 0 1 5.52 6.28 7.77 7.77 0 0 1 .06 1 7.51 7.51 0 0 1-5.41 7.13zm441.13-9.24a15.36 15.36 0 1 0-21.66 16 15 15 0 0 0 5 1.34 13.5 13.5 0 0 0 1.42.07 15.18 15.18 0 0 0 4.29-.61 15.37 15.37 0 0 0 11.08-14.75 14.82 14.82 0 0 0-.13-2.05zm-13.14 9.2a7.54 7.54 0 0 1-2.09.3 5.32 5.32 0 0 1-.69 0 7.22 7.22 0 0 1-2.45-.65 8.35 8.35 0 0 1-1.23-.71 7.54 7.54 0 0 1-2.94-4.42 7.21 7.21 0 0 1-.19-1.68 7.9 7.9 0 0 1 .22-1.83 7.51 7.51 0 0 1 7.28-5.67 7.66 7.66 0 0 1 1.92.25 7.49 7.49 0 0 1 5.52 6.28 7.77 7.77 0 0 1 .06 1 7.51 7.51 0 0 1-5.41 7.13z" transform="translate(.01)" id="_3-void" data-name="3-void"/><g id="_4-chakra" data-name="4-chakra"><path class="cls-4" d="M61.92 487.1c11.24-12.1 13.91-18.37 13.91-18.37-2.93-2.78-7.7-2.93-12.14-1.44a14.43 14.43 0 0 1 .13 2A15.37 15.37 0 0 1 52.76 484a15.18 15.18 0 0 1-4.29.61 13.42 13.42 0 0 1-1.42-.07 85.25 85.25 0 0 1-20.13 17.23c-1.84 1.12-3.07 1.8-4.7 2.75-1.06.62 1.75 4.33 9.17 1.58 8.53-3.1 21.93-9.75 30.53-19zm401.08 0c-11.22-12.1-13.9-18.37-13.9-18.37 2.93-2.78 7.7-2.93 12.14-1.44a14.43 14.43 0 0 0-.13 2A15.37 15.37 0 0 0 472.18 484a15.18 15.18 0 0 0 4.29.61 13.42 13.42 0 0 0 1.42-.07A85.25 85.25 0 0 0 498 501.75c1.84 1.12 3.07 1.8 4.7 2.75 1.06.62-1.75 4.33-9.17 1.58-8.47-3.08-21.91-9.73-30.53-18.98z" transform="translate(.01)" id="_4-chakra-2" data-name="4-chakra-2"/></g><g id="_5-chakra" data-name="5-chakra"><path class="cls-5" d="M4.76 501c2.65-1.44 23.6-18.94 25-20.31.71-.71 2.81-3 4.7-5.16a14.63 14.63 0 0 1-.93-2.78 15 15 0 0 1-.39-3.44 15.39 15.39 0 0 1 .46-3.74 60.92 60.92 0 0 0-6.16 3c-1 3.57-1.48 4.88-3.67 6.76C14.79 483 4.05 494 2.24 496c-2 2.19-.5 6.6 2.52 5zm515.42 0c-2.65-1.44-23.6-18.94-25-20.31-.71-.71-2.81-3-4.7-5.16a14.63 14.63 0 0 0 .93-2.78 15 15 0 0 0 .39-3.44 15.39 15.39 0 0 0-.46-3.74 60.91 60.91 0 0 1 6.16 3c1 3.57 1.48 4.88 3.67 6.76 9 7.68 19.69 18.78 21.5 20.75 2.03 2.11.53 6.52-2.49 4.92z" transform="translate(.01)" id="_5-chakra-2" data-name="5-chakra-2"/></g><g id="_6-chakra" data-name="6-chakra"><path class="cls-6" d="M15.21 509c3.09-1.34 6.93-3.81 11.69-6.71A88 88 0 0 0 47 484.58a15.3 15.3 0 0 1-7.51-2.8 17.38 17.38 0 0 0-2.42 1.63c-1.5 1.5-16.27 14-18.83 15.75l-.28.2A67.48 67.48 0 0 0 8.57 507s-1.5 5.52 6.64 2zm494.52 0c-3.09-1.34-6.93-3.81-11.69-6.71a88 88 0 0 1-20.12-17.73 15.3 15.3 0 0 0 7.51-2.8 17.38 17.38 0 0 1 2.42 1.63c1.5 1.5 16.27 14 18.83 15.75l.28.2a67.48 67.48 0 0 1 9.43 7.68s1.53 5.5-6.66 1.98z" transform="translate(.01)" id="_6-chakra-2" data-name="6-chakra-2"/></g><g id="_7-chakra" data-name="7-chakra"><path class="cls-7" d="M469.5 469.13a6.63 6.63 0 0 0 .17 1.52 7 7 0 0 0 3.77 4.69 6.68 6.68 0 0 0 2.22.59 5.93 5.93 0 0 0 .63 0 6.71 6.71 0 0 0 1.9-.27 6.79 6.79 0 0 0 4.89-6.52 6.38 6.38 0 0 0-.06-.88 6.79 6.79 0 0 0-13.53.88z" transform="translate(.01)"/><path class="cls-8" d="M41.51 469.16a6.63 6.63 0 0 0 .17 1.52 7 7 0 0 0 3.77 4.69 6.68 6.68 0 0 0 2.22.59 5.93 5.93 0 0 0 .63 0 6.71 6.71 0 0 0 1.9-.27 6.79 6.79 0 0 0 4.89-6.52 6.38 6.38 0 0 0-.06-.88 6.79 6.79 0 0 0-13.53.88z" transform="translate(.01)"/></g><path class="cls-9" d="M261.28 275.63h2v134.94h-2z"/><path class="cls-9" d="M522.39 501.86a2.88 2.88 0 0 0 1.86-1.52c1.83-3.68-4.09-9-11.59-15.7a123.39 123.39 0 0 1-9.87-9.48c-.58-.65-1.15-1.25-1.69-1.81-1.7-1.77-2.92-3-2.82-4.57a4.64 4.64 0 0 1 .08-.53c.48-.09 2 .77 3.21 1.39a27.24 27.24 0 0 0 6.69 2.82c3.27.75 8 .34 9.29-1.32a1.63 1.63 0 0 0 .13-1.81c-.47-.84-1.7-1.58-3.75-2.81a44.15 44.15 0 0 1-9.13-6.73c-12.08-12.3-19.43-13.1-25.34-13.74-5.67-.62-9.76-1.06-16.2-11.41-13.78-22.17-33.1-56.55-36.33-62.4-2.31-4.16-6.1-7.63-10.12-11.3-4.29-3.92-8.73-8-11.46-13.08a48.31 48.31 0 0 1-5.43-14.62c-.5-2.19-1.07-4.67-2-8-.8-2.75-2.13-6.81-3.68-11.51-4.44-13.5-10.51-32-10.58-39.64-.11-10.16-.31-29.07-14.54-51-5.72-8.8-10.17-10.51-18.26-13.6a156.29 156.29 0 0 1-28.14-13.73c-7.52-4.55-24.78-17.76-27.72-20.23-1.67-1.41-1.87-11.13-1.48-17.73a20 20 0 0 1 3.12-3.63 11.28 11.28 0 0 0 2.54-3.1c1.3-3 2.23-11 2.51-13.69a3.71 3.71 0 0 0 1.63-.89c4.73-4.21 7.42-22.69 7.34-24.9-.09-3-4.68-4.48-6.74-5 .42-4 1.82-20.52-1.31-37.27-3.3-17.78-22.18-24.12-38.74-24.12h-3.24c-16.57 0-35.45 6.34-38.76 24.12-3.13 16.75-1.73 33.28-1.31 37.27-2.06.51-6.64 2-6.74 5-.07 2.22 2.62 20.69 7.34 24.91a3.72 3.72 0 0 0 1.63.9c.28 2.67 1.21 10.74 2.51 13.69a11.28 11.28 0 0 0 2.57 3.11 20.06 20.06 0 0 1 3.12 3.63c.39 6.6.18 16.32-1.48 17.73-2.89 2.45-20.14 15.67-27.67 20.23a156.21 156.21 0 0 1-28.14 13.73c-8.09 3.09-12.55 4.79-18.26 13.6-14.22 21.88-14.44 40.82-14.52 51.06-.07 7.58-6.15 26.06-10.58 39.56-1.54 4.7-2.88 8.76-3.68 11.52-1 3.33-1.53 5.81-2 8a48.3 48.3 0 0 1-5.42 14.62c-2.72 5.12-7.16 9.12-11.45 13.12-4 3.67-7.81 7.13-10.12 11.3-3.23 5.86-22.56 40.26-36.33 62.4-6.42 10.3-10.55 10.75-16.22 11.37-5.91.64-13.26 1.44-25.34 13.74a44.15 44.15 0 0 1-9.13 6.73c-2 1.23-3.29 2-3.75 2.81a1.62 1.62 0 0 0 .1 1.81c1.25 1.66 6 2.07 9.29 1.32a27.24 27.24 0 0 0 6.71-2.82c1.18-.63 2.79-1.52 3.17-1.43a1.22 1.22 0 0 1 .12.57c.1 1.51-1.12 2.79-2.82 4.57-.54.56-1.11 1.16-1.69 1.81a123.4 123.4 0 0 1-9.87 9.48c-7.5 6.71-13.42 12-11.59 15.7a2.88 2.88 0 0 0 1.86 1.52 8.74 8.74 0 0 0-1.9 2.68 3.8 3.8 0 0 0 1.63 4.23 4.39 4.39 0 0 0 2.58.83 5.73 5.73 0 0 0 2.88-.86 4 4 0 0 0 1.73 1.74 3.73 3.73 0 0 0 1.67.33c2.68 0 6.45-1.73 7.25-2.17.48-.26 1.93-1.19 3.78-2.39a2.74 2.74 0 0 0 1.46 1.45 5.22 5.22 0 0 0 2 .34c2.87 0 7.23-1.43 12-3.64-1.08 3.25-2.48 9.22-.92 15.32 3.58 14.12 25.58 23.88 39.12 24.39 8.28.32 17.09 1.22 25.61 2.09 11.09 1.13 22.44 2.29 33.39 2.29a118.93 118.93 0 0 0 14.39-.8c19.63-2.41 39.94-7.26 57.86-11.54 22.41-5.35 41.77-10 55.5-9.24 13.74-.74 33.09 3.89 55.5 9.24 17.92 4.28 38.23 9.13 57.87 11.54a118.91 118.91 0 0 0 14.39.8c10.94 0 22.3-1.16 33.39-2.29 8.52-.87 17.33-1.77 25.61-2.09 13.55-.52 35.53-10.27 39.12-24.39 1.55-6.1.15-12.08-.92-15.32 4.79 2.21 9.14 3.64 12 3.64a5.25 5.25 0 0 0 2-.34 2.74 2.74 0 0 0 1.49-1.46c1.85 1.2 3.3 2.12 3.77 2.39.8.44 4.57 2.17 7.25 2.17a3.71 3.71 0 0 0 1.67-.33 4 4 0 0 0 1.72-1.74 5.73 5.73 0 0 0 2.88.86 4.39 4.39 0 0 0 2.58-.83 3.8 3.8 0 0 0 1.63-4.23 8.75 8.75 0 0 0-1.77-2.69zm-.88 5.28c-1.12.8-2.63.54-4.14-.71-.3-.25-7.49-6.24-10.34-8.23-2.27-1.59-15.13-11.19-15.26-11.28a1 1 0 0 0-1.2 1.6c.53.4 13 9.71 15.31 11.32s8 6.29 9.69 7.71a2.22 2.22 0 0 1-1 1.16c-1.08.54-5.09-.72-7-1.81-.77-.43-4.76-3-8.28-5.33-3.25-2.12-6.06-4-6.67-4.3-2.44-1.38-8-6.84-8-6.89a1 1 0 1 0-1.4 1.43c.24.23 5.8 5.7 8.47 7.21.55.31 3.61 2.3 6.56 4.23l2.85 1.86a.74.74 0 0 1-.48.78c-4.71 2-29.81-11-37.53-20.69-.74-.92-1.69-2-2.77-3.33-3.81-4.51-9-10.68-11.75-16.08-7-14-18.09-22.75-23.4-27a36 36 0 0 1-2.83-2.37c-2-2-12.33-11.64-22.29-20.94-4.8-4.48-9.57-8.92-13.41-12.52-5.33-4.91-12.23-15.36-15.33-37.14v-.14c-.49-3.39-3.46-7.46-6.9-12.17a116.18 116.18 0 0 1-6.61-9.75c-5.07-8.7-14.67-43.78-14.76-44.13l-1.23-4.51-.72 4.62c-.39 2.5-9.57 61.3-9.57 70.92a69.2 69.2 0 0 1-.92 8.29c-1.88 13-5 34.76 10.37 42.73 1.67.87 5.84 1.76 11.61 3 9.42 2 23.67 5.08 35.63 10.08a107.08 107.08 0 0 1 23.44 13c2.16 1.53 4.2 3 6.47 4.32 3.67 2.18 14.71 7.61 22.78 11.58l5.8 2.87v.1c2.83 5.61 8.14 11.88 12 16.46 1.06 1.26 2 2.38 2.74 3.29 4.17 5.22 14.13 12.13 23.23 16.73.71 1.7 3.42 8.91 1.59 16.09-3.32 13-24.62 22.41-37.26 22.89-8.34.32-17.19 1.22-25.74 2.09-16 1.63-32.44 3.31-47.33 1.49-19.52-2.39-39.78-7.23-57.64-11.5-22.54-5.38-42-10-56-9.3-14-.72-33.48 3.92-56 9.3-17.87 4.27-38.12 9.11-57.64 11.5-14.9 1.82-31.39.13-47.33-1.49-8.55-.87-17.39-1.77-25.74-2.09-12.66-.48-33.94-9.85-37.26-22.89-1.82-7.16.88-14.39 1.59-16.09 9.1-4.59 19.06-11.5 23.23-16.72.73-.91 1.67-2 2.74-3.29 3.87-4.58 9.17-10.86 12-16.46l.05-.1 5.79-2.86c8.07-4 19.12-9.41 22.79-11.59 2.27-1.35 4.31-2.79 6.46-4.32a107 107 0 0 1 23.44-13c12-5 26.21-8 35.63-10.08 5.77-1.24 9.94-2.13 11.61-3 15.41-8 12.27-29.69 10.37-42.69a69.28 69.28 0 0 1-.92-8.29c0-9.63-9.18-68.42-9.57-70.92l-.72-4.62-1.23 4.51c-.1.35-9.69 35.43-14.76 44.13a116 116 0 0 1-6.61 9.75c-3.44 4.71-6.41 8.77-6.9 12.17v.14c-3.1 21.78-10 32.23-15.28 37.16-3.83 3.58-8.58 8-13.36 12.48-10 9.32-20.32 19-22.34 21-.54.54-1.55 1.35-2.84 2.37-5.31 4.23-16.35 13-23.4 27-2.73 5.4-7.94 11.57-11.75 16.07-1.08 1.28-2 2.41-2.77 3.33C53.84 495 28.74 507.94 24 506a.74.74 0 0 1-.48-.78l2.85-1.86c3-1.93 6-3.92 6.56-4.23 2.67-1.51 8.24-7 8.47-7.21a1 1 0 1 0-1.4-1.43c-.06.06-5.61 5.52-8 6.89-.61.34-3.42 2.18-6.67 4.3-3.52 2.3-7.52 4.9-8.29 5.33-2 1.08-6 2.35-7 1.81a2.24 2.24 0 0 1-1-1.16c1.71-1.41 7.33-6 9.69-7.7s14.69-11 15.22-11.38a1 1 0 0 0-1.19-1.61c-.13.1-13 9.7-15.26 11.28-2.85 2-10 8-10.34 8.23-1.51 1.25-3 1.51-4.14.71a1.91 1.91 0 0 1-.92-1.9c.65-1.71 4.39-4.71 6.6-6.19 1.3-.88 17.9-14.57 19.79-16.1a1 1 0 0 0-1.27-1.54c-7.39 6.1-18.7 15.39-19.59 16-.31.21-1.77 1.21-3.33 2.51s-1.73.49-2.19-.43c-1.19-2.39 5.61-8.54 11.08-13.38a124.84 124.84 0 0 0 10-9.65 59.4 59.4 0 0 1 1.63-1.75c1.9-2 3.54-3.69 3.37-6.09a2.45 2.45 0 0 0-1.11-2.15c-1.25-.69-2.88.18-5.12 1.39a25.7 25.7 0 0 1-6.19 2.63c-3 .69-6.16.12-7-.42a24 24 0 0 1 2.85-1.86 45.88 45.88 0 0 0 9.53-7C32.73 449.4 39.39 448.67 45.26 448s10.74-1.14 17.66-12.31c13.79-22.18 33.15-56.63 36.38-62.49 2.15-3.88 5.83-7.23 9.72-10.79 4.42-4 9-8.21 11.88-13.61a49.93 49.93 0 0 0 5.6-15.11c.5-2.17 1.06-4.62 2-7.89.79-2.72 2.12-6.77 3.66-11.45 4.48-13.62 10.61-32.27 10.68-40.24.11-10.65.3-28.49 14.22-49.91 5.36-8.26 9.35-9.78 17.3-12.82a158 158 0 0 0 28.46-13.89c7.61-4.6 25-17.94 27.93-20.41s2.35-16.8 2.17-19.62v-.24l-.12-.21a20.71 20.71 0 0 0-3.56-4.24 10.48 10.48 0 0 1-2.12-2.49c-1.41-3.19-2.43-13.82-2.44-13.93l-.1-1.05-1 .16a1.32 1.32 0 0 1-1.06-.45c-3.87-3.45-6.76-20.89-6.68-23.35 0-1.47 3.62-2.83 6-3.29l.93-.18-.12-.93c0-.19-2.33-18.72 1.19-37.56 4-21.4 31.35-22.48 36.8-22.48h3.16c5.45 0 32.81 1.08 36.8 22.48 3.52 18.82 1.22 37.37 1.19 37.56l-.12.94.93.17c2.4.45 6 1.81 6 3.29.08 2.46-2.8 19.9-6.68 23.35-.58.52-.94.47-1.06.45l-1-.16-.1 1.05c0 .11-1 10.74-2.44 13.93a10.48 10.48 0 0 1-2.12 2.48 20.73 20.73 0 0 0-3.56 4.24l-.12.21v.24c-.17 2.82-.89 17 2.17 19.62s20.17 15.72 27.93 20.41a158 158 0 0 0 28.46 13.89c8 3 11.94 4.56 17.3 12.82 13.92 21.42 14.11 39.25 14.22 50 .08 7.89 6.21 26.55 10.68 40.17 1.54 4.68 2.87 8.72 3.66 11.44.94 3.27 1.51 5.73 2 7.89a49.92 49.92 0 0 0 5.6 15.11c2.89 5.41 7.46 9.58 11.88 13.61 3.89 3.56 7.57 6.91 9.72 10.79 3.24 5.86 22.58 40.29 36.38 62.49 7 11.17 11.92 11.72 17.68 12.34s12.55 1.37 24.13 13.15a45.88 45.88 0 0 0 9.53 7 24 24 0 0 1 2.86 1.82 11.89 11.89 0 0 1-7 .42 25.69 25.69 0 0 1-6.19-2.63c-2.25-1.21-3.87-2.08-5.12-1.39a2.45 2.45 0 0 0-1.11 2.15c-.16 2.4 1.48 4.11 3.37 6.09a59.4 59.4 0 0 1 1.63 1.75 125 125 0 0 0 10 9.65c5.47 4.9 12.29 11 11.13 13.31-.46.92-2.17.44-2.18.43a38.45 38.45 0 0 0-3.34-2.51c-.89-.6-12.2-9.89-19.59-16a1 1 0 0 0-1.37 1.46l.1.08c1.89 1.56 18.49 15.26 19.75 16.1 2.21 1.48 6 4.47 6.6 6.19a1.91 1.91 0 0 1-.9 2zM445 463.53l-3.27-1.6c-8-4-19-9.37-22.64-11.51-2.2-1.31-4.21-2.73-6.34-4.24a108.75 108.75 0 0 0-23.81-13.25c-12.13-5.07-26.49-8.15-36-10.19-5.41-1.16-9.68-2.08-11.11-2.82-14.14-7.31-11.24-27.38-9.31-40.66a70 70 0 0 0 .94-8.58c0-7.93 6.63-51.66 8.84-66 2.79 9.87 9.58 33 13.72 40.15a117.37 117.37 0 0 0 6.73 9.92c3.28 4.49 6.12 8.37 6.53 11.27v.14c3.19 22.36 10.4 33.19 15.89 38.34 3.84 3.6 8.61 8 13.41 12.52 10 9.28 20.25 18.88 22.24 20.89.62.62 1.62 1.42 3 2.52 5.12 4 14.39 11.38 21.17 23.1zm-365.43 0c6.78-11.71 16-19.06 21.15-23.17 1.38-1.1 2.38-1.9 3-2.52 2-2 12.31-11.62 22.29-20.93 4.78-4.46 9.53-8.89 13.36-12.48 5.49-5.15 12.71-16 15.89-38.34v-.14c.41-2.9 3.25-6.78 6.53-11.27a117.38 117.38 0 0 0 6.73-9.92c4.14-7.11 10.93-30.28 13.72-40.15 2.21 14.37 8.84 58.11 8.84 66a70 70 0 0 0 .94 8.58c1.92 13.28 4.83 33.35-9.31 40.66-1.43.74-5.71 1.66-11.11 2.82-9.5 2-23.85 5.12-36 10.19a108.8 108.8 0 0 0-23.83 13.26c-2.13 1.5-4.14 2.92-6.33 4.24-3.6 2.14-14.61 7.56-22.65 11.52z" transform="translate(.01)"/><path class="cls-10" d="M262.26 417.27a71.07 71.07 0 1 1 71.06-71.08 71.15 71.15 0 0 1-71.06 71.08zm0-141.14a70.07 70.07 0 1 0 70.06 70.08 70.15 70.15 0 0 0-70.06-70.06z" transform="translate(.01)"/><path class="cls-10" d="M263.26 436.85v-13.92h-2v13.89H234.5l27.76 48.11L290 436.85zm-25.33 2h48.62L262.26 481z" transform="translate(.01)"/><path class="cls-10" d="M274.16 456A11.22 11.22 0 0 1 263 467.25h-.05a13 13 0 0 1-13-13 15 15 0 0 1 9.43-13.9 3.7 3.7 0 0 0 2.09-1.5h1.23a4 4 0 0 1-2.36 2.25 14 14 0 0 0-9.39 13.09 12 12 0 0 0 12 12A10.22 10.22 0 0 0 273.09 456a8.72 8.72 0 0 0-8.71-8.71 7.43 7.43 0 0 0-7.42 7.42 6.33 6.33 0 0 0 6.31 6.31 5.36 5.36 0 0 0 5.36-5.36 4.54 4.54 0 0 0-4.54-4.54 3.86 3.86 0 0 0-3.83 3.83 3.23 3.23 0 0 0 3.23 3.23 2.69 2.69 0 0 0 1.91-.8 2.74 2.74 0 0 0 .79-1.9 2.26 2.26 0 0 0-2.19-2.28 1.87 1.87 0 0 0-1.87 1.87 1.54 1.54 0 0 0 1.54 1.54v1a2.54 2.54 0 0 1-2.54-2.54 2.87 2.87 0 0 1 2.87-2.87 3.27 3.27 0 0 1 3.26 3.22 3.72 3.72 0 0 1-1.09 2.61 3.68 3.68 0 0 1-2.61 1.09 4.23 4.23 0 0 1-4.23-4.23 4.84 4.84 0 0 1 4.84-4.77h.06a5.54 5.54 0 0 1 5.54 5.54 6.36 6.36 0 0 1-6.36 6.36 7.33 7.33 0 0 1-7.31-7.31 8.43 8.43 0 0 1 8.42-8.42 9.73 9.73 0 0 1 9.64 9.71z" transform="translate(.01)"/><path class="cls-10" d="M261.28 91.27h2v77.68h-2zm0 90.26h2v58.93h-2zm0 71.34h2v22.77h-2z"/><path class="cls-10" d="M260.6 45h.66v33.79h2V45.13h.66a30.57 30.57 0 0 0 19.3-8.89c9-9.35 8.69-21.84 8.67-22.37v-.93h-1a31.18 31.18 0 0 0-18.7 6.22A31.41 31.41 0 0 0 263 .6l-.67-.6-.67.6a31.39 31.39 0 0 0-9.38 18.57 31.08 31.08 0 0 0-18.71-6.33h-.93v.93c0 .53-.37 13 8.66 22.37A30.62 30.62 0 0 0 260.6 45zm11.78-23.44a29.59 29.59 0 0 1 17.54-6.71c-.12 3.06-1.06 12.66-8.1 19.93a28.52 28.52 0 0 1-17.9 8.22v-.52c2.35-2.49 8.5-10 8.5-20.48a2.3 2.3 0 0 1 0-.39zm-18.23-.38v-.46c.48-9.26 6.12-15.94 8.08-18 2 2.09 7.78 8.94 8.1 18.45V22c0 9.88-5.93 17-8 19.21l-.08.08-.22-.23-.24-.26a31.46 31.46 0 0 1-3.36-4.47c-.33-.52-.65-1.07-1-1.66q-.33-.61-.64-1.26v-.11c-.07-.14-.13-.3-.2-.45a26.18 26.18 0 0 1-1.27-3.31 21.57 21.57 0 0 1-.6-2.24 4.54 4.54 0 0 0-.13-.72 24.75 24.75 0 0 1-.44-4.59 4.68 4.68 0 0 1 .05-.82zm-2 .39V22a27.85 27.85 0 0 0 2.24 10.83 33.26 33.26 0 0 0 6.25 9.65V43a28.56 28.56 0 0 1-17.87-8.26c-7-7.28-8-16.88-8.09-19.93a29.49 29.49 0 0 1 17.46 6.75zm10.11 485.03a7.2 7.2 0 1 1 7.2-7.2 7.2 7.2 0 0 1-7.2 7.2zm0-12.4a5.2 5.2 0 1 0 5.2 5.2 5.2 5.2 0 0 0-5.2-5.2zm0-70.27a7.2 7.2 0 1 1 7.2-7.2 7.2 7.2 0 0 1-7.2 7.2zm0-12.4a5.2 5.2 0 1 0 5.2 5.2 5.2 5.2 0 0 0-5.2-5.2zm0-61.69a7.2 7.2 0 1 1 7.2-7.2 7.2 7.2 0 0 1-7.2 7.2zm0-12.4a5.2 5.2 0 1 0 5.2 5.2 5.2 5.2 0 0 0-5.2-5.2zm0-83.57a7.2 7.2 0 1 1 7.2-7.2 7.2 7.2 0 0 1-7.2 7.2zm0-12.4a5.2 5.2 0 1 0 5.2 5.2 5.2 5.2 0 0 0-5.2-5.2zm0-59.11a7.2 7.2 0 1 1 7.2-7.2 7.2 7.2 0 0 1-7.2 7.2zm0-12.4a5.2 5.2 0 1 0 5.2 5.2 5.2 5.2 0 0 0-5.2-5.2z" transform="translate(.01)"/><path class="cls-10" d="M262.26 92.27a7.2 7.2 0 1 1 7.2-7.2 7.2 7.2 0 0 1-7.2 7.2zm0-12.4a5.2 5.2 0 1 0 5.2 5.2 5.2 5.2 0 0 0-5.2-5.2z" transform="translate(.01)"/><path class="cls-9" d="M52.46 453.33a16.55 16.55 0 0 0-4.18-.54 16.35 16.35 0 0 0-16.36 16.34 15.91 15.91 0 0 0 .42 3.66 15.47 15.47 0 0 0 1 3 15.67 15.67 0 0 0 2.12 3.52 16.32 16.32 0 0 0 6 4.72 16 16 0 0 0 5.33 1.43 14.28 14.28 0 0 0 1.53.08 16.23 16.23 0 0 0 4.57-.65 16.43 16.43 0 0 0 11.79-15.69 15.47 15.47 0 0 0-.14-2.11 16.47 16.47 0 0 0-12.08-13.76zm-.2 29.6a14.23 14.23 0 0 1-4 .57 12.35 12.35 0 0 1-1.33-.07 14.08 14.08 0 0 1-4.68-1.25A14.34 14.34 0 0 1 37 478a13.71 13.71 0 0 1-1.85-3.1 13.54 13.54 0 0 1-.87-2.6 13.94 13.94 0 0 1-.36-3.21 14.36 14.36 0 0 1 28.6-1.84 13.53 13.53 0 0 1 .12 1.84 14.42 14.42 0 0 1-10.38 13.84z" transform="translate(.01)"/><path class="cls-9" d="M48.31 477.67a7.47 7.47 0 0 1-.8 0 8.49 8.49 0 0 1-5.87-3.19 8.22 8.22 0 0 1-1.1-1.83 8.13 8.13 0 0 1-.51-1.54 8.25 8.25 0 0 1-.22-1.9 8.5 8.5 0 0 1 16.93-1.09 8 8 0 0 1 .07 1.09 8.54 8.54 0 0 1-6.13 8.16 8.43 8.43 0 0 1-2.37.3zm0-15a6.5 6.5 0 0 0-6.5 6.5 6.29 6.29 0 0 0 .16 1.45 6.51 6.51 0 0 0 3.61 4.45 6.36 6.36 0 0 0 2.12.57 6.06 6.06 0 0 0 2.42-.23 6.53 6.53 0 0 0 4.69-6.24 6 6 0 0 0 0-.83 6.49 6.49 0 0 0-6.45-5.67zm432.14-9.37a16.55 16.55 0 0 0-4.18-.54 16.35 16.35 0 0 0-16.35 16.34 15.91 15.91 0 0 0 .42 3.66 15.47 15.47 0 0 0 1 3 15.67 15.67 0 0 0 2.12 3.52 16.32 16.32 0 0 0 6 4.72 16 16 0 0 0 5.33 1.43 14.28 14.28 0 0 0 1.53.08 16.23 16.23 0 0 0 4.57-.65 16.43 16.43 0 0 0 11.78-15.69 15.47 15.47 0 0 0-.14-2.11 16.47 16.47 0 0 0-12.08-13.76zm-.2 29.6a14.23 14.23 0 0 1-4 .57 12.35 12.35 0 0 1-1.33-.07 14.08 14.08 0 0 1-4.68-1.25A14.34 14.34 0 0 1 465 478a13.71 13.71 0 0 1-1.85-3.1 13.54 13.54 0 0 1-.87-2.6 13.94 13.94 0 0 1-.36-3.21 14.36 14.36 0 0 1 28.6-1.84 13.53 13.53 0 0 1 .12 1.84 14.42 14.42 0 0 1-10.39 13.81z" transform="translate(.01)"/><path class="cls-9" d="M476.3 477.63a7.47 7.47 0 0 1-.8 0 8.49 8.49 0 0 1-5.87-3.19 8.22 8.22 0 0 1-1.1-1.83 8.13 8.13 0 0 1-.51-1.54 8.25 8.25 0 0 1-.22-1.9 8.5 8.5 0 0 1 16.92-1.17 8 8 0 0 1 .07 1.09 8.54 8.54 0 0 1-6.13 8.16 8.43 8.43 0 0 1-2.36.38zm0-15a6.5 6.5 0 0 0-6.5 6.5 6.29 6.29 0 0 0 .16 1.45 6.51 6.51 0 0 0 3.61 4.45 6.36 6.36 0 0 0 2.12.57 6.06 6.06 0 0 0 2.42-.23 6.53 6.53 0 0 0 4.69-6.24 6 6 0 0 0 0-.83 6.49 6.49 0 0 0-6.45-5.67z" transform="translate(.01)"/><g id="kundalini" class="cls-11"><path class="cls-12" d="M274.16 456A11.22 11.22 0 0 1 263 467.25h-.05a13 13 0 0 1-13-13 15 15 0 0 1 9.43-13.9 3.7 3.7 0 0 0 2.09-1.5h1.23a4 4 0 0 1-2.36 2.25 14 14 0 0 0-9.39 13.09 12 12 0 0 0 12 12A10.22 10.22 0 0 0 273.09 456a8.72 8.72 0 0 0-8.71-8.71 7.43 7.43 0 0 0-7.42 7.42 6.33 6.33 0 0 0 6.31 6.31 5.36 5.36 0 0 0 5.36-5.36 4.54 4.54 0 0 0-4.54-4.54 3.86 3.86 0 0 0-3.83 3.83 3.23 3.23 0 0 0 3.23 3.23 2.69 2.69 0 0 0 1.91-.8 2.74 2.74 0 0 0 .79-1.9 2.26 2.26 0 0 0-2.19-2.28 1.87 1.87 0 0 0-1.87 1.87 1.54 1.54 0 0 0 1.54 1.54v1a2.54 2.54 0 0 1-2.54-2.54 2.87 2.87 0 0 1 2.87-2.87 3.27 3.27 0 0 1 3.26 3.22 3.72 3.72 0 0 1-1.09 2.61 3.68 3.68 0 0 1-2.61 1.09 4.23 4.23 0 0 1-4.23-4.23 4.84 4.84 0 0 1 4.84-4.77h.06a5.54 5.54 0 0 1 5.54 5.54 6.36 6.36 0 0 1-6.36 6.36 7.33 7.33 0 0 1-7.31-7.31 8.43 8.43 0 0 1 8.42-8.42 9.73 9.73 0 0 1 9.64 9.71z" transform="translate(.01)"/></g></svg>