<svg viewBox="0 0 60.47 43.41" xmlns="http://www.w3.org/2000/svg"><path d="M8.91 13.68h.15l.06.06.06-.06h.08a9 9 0 0 0 8.91-9.26v-.47h-.47a9 9 0 0 0-5.5 1.68A8.91 8.91 0 0 0 9.47.34L9.13.02l-.34.32a8.89 8.89 0 0 0-2.74 5.34A9 9 0 0 0 .49 3.95H.02v.47a9 9 0 0 0 2.64 6.63 8.92 8.92 0 0 0 6.25 2.63zm5.92-3.34a7.93 7.93 0 0 1-4.6 2.27 8.93 8.93 0 0 0 2.05-5.73v-.06a7.92 7.92 0 0 1 4.89-1.88 8 8 0 0 1-2.33 5.39zM6.96 6.66A7.91 7.91 0 0 1 9.12 1.4a7.93 7.93 0 0 1 2.16 5.21v.27a8 8 0 0 1-2.16 5.48 7.94 7.94 0 0 1-2.16-5.48zm-1 .22a8.93 8.93 0 0 0 2.07 5.75 7.93 7.93 0 0 1-4.68-2.28 8 8 0 0 1-2.34-5.4 7.92 7.92 0 0 1 4.95 1.92zm1.13 22.39l1.99-4.69 1.97 4.69h1.09l4.16-9.94h-1.37l-3.36 8.48-1.71-4.1 1.72-4.33h-1.19l-1.33 3.46-1.31-3.46H6.56l1.72 4.33-1.7 4.1-3.37-8.48H1.85L6 29.27zm15.67-2.01a1.55 1.55 0 0 1-.33.5 2.1 2.1 0 0 1-.5.38 2.87 2.87 0 0 1-.6.24 2.4 2.4 0 0 1-.66.09 2.27 2.27 0 0 1-.9-.18 2.51 2.51 0 0 1-.76-.5 2.54 2.54 0 0 1-.55-.77 2.81 2.81 0 0 1-.25-1h6.06a1.59 1.59 0 0 0 0-.2v-.28a3.93 3.93 0 0 0-.26-1.41 3.62 3.62 0 0 0-.74-1.19 3.58 3.58 0 0 0-2.66-1.13 3.72 3.72 0 0 0-1.51.3 3.66 3.66 0 0 0-1.18.82 3.7 3.7 0 0 0-.77 1.2 3.91 3.91 0 0 0-.27 1.46 4 4 0 0 0 .27 1.46 3.73 3.73 0 0 0 .76 1.21 3.58 3.58 0 0 0 1.18.82 3.73 3.73 0 0 0 1.51.3 3.91 3.91 0 0 0 1-.14 3.75 3.75 0 0 0 .92-.38 3.28 3.28 0 0 0 .73-.58 2.68 2.68 0 0 0 .5-.74zm-4.33-3.08a2.47 2.47 0 0 1 .53-.75 2.38 2.38 0 0 1 .76-.49 2.48 2.48 0 0 1 2.61.48 2.58 2.58 0 0 1 .55.75 2.64 2.64 0 0 1 .26 1h-5a2.75 2.75 0 0 1 .29-.99zm-5.17 12.53a1.76 1.76 0 0 0-.68-.64 2.19 2.19 0 0 0-1.06-.23 3.05 3.05 0 0 0-2.79 1.78 2.15 2.15 0 0 0-.67-1.28 2.07 2.07 0 0 0-1.46-.5 3 3 0 0 0-1.61.44 3.32 3.32 0 0 0-1.16 1.25v-1.57H2.71v7.31h1.23v-4.41a2.85 2.85 0 0 1 .85-1.39 2 2 0 0 1 1.34-.52 1.24 1.24 0 0 1 1.09.53 3.09 3.09 0 0 1 .35 1.7v4.09H8.8v-4.4a3 3 0 0 1 .85-1.39 2 2 0 0 1 1.35-.54 1.24 1.24 0 0 1 1.1.55 3.06 3.06 0 0 1 .37 1.69v4.09h1.23V38.9a6.18 6.18 0 0 0-.11-1.22 3 3 0 0 0-.33-.97zm8.31.25a3.58 3.58 0 0 0-2.66-1.13 3.72 3.72 0 0 0-1.51.3 3.66 3.66 0 0 0-1.18.82 3.7 3.7 0 0 0-.77 1.2 3.91 3.91 0 0 0-.27 1.46 4 4 0 0 0 .27 1.46 3.73 3.73 0 0 0 .76 1.21 3.58 3.58 0 0 0 1.18.82 3.73 3.73 0 0 0 1.51.3 3.91 3.91 0 0 0 1-.14 3.75 3.75 0 0 0 .92-.38 3.28 3.28 0 0 0 .73-.58 2.68 2.68 0 0 0 .5-.74l-1.06-.29a1.55 1.55 0 0 1-.33.5 2.1 2.1 0 0 1-.5.38 2.87 2.87 0 0 1-.6.24 2.4 2.4 0 0 1-.66.09 2.27 2.27 0 0 1-.9-.18 2.51 2.51 0 0 1-.76-.5 2.54 2.54 0 0 1-.55-.77 2.81 2.81 0 0 1-.25-1h6.13a1.59 1.59 0 0 0 0-.2v-.28a3.93 3.93 0 0 0-.26-1.41 3.62 3.62 0 0 0-.74-1.18zm-5.12 2.16a2.75 2.75 0 0 1 .25-1 2.47 2.47 0 0 1 .53-.75 2.38 2.38 0 0 1 .76-.49 2.48 2.48 0 0 1 2.61.48 2.58 2.58 0 0 1 .55.75 2.64 2.64 0 0 1 .26 1zm14.22 2.63v-8.71h-1.23v4.37a3.63 3.63 0 0 0-1.1-1.12 2.77 2.77 0 0 0-1.58-.46 3 3 0 0 0-1.34.3 3.26 3.26 0 0 0-1 .82 3.79 3.79 0 0 0-.69 1.21 4.37 4.37 0 0 0-.25 1.46 4 4 0 0 0 .26 1.44 3.8 3.8 0 0 0 .72 1.2 3.47 3.47 0 0 0 1.11.83 3.21 3.21 0 0 0 1.4.31 3.15 3.15 0 0 0 2.67-1.51v.62a.74.74 0 0 0 .27.57.92.92 0 0 0 .64.25h.55v-1.15c-.3 0-.43-.14-.43-.43zm-1.23-1.05a1.58 1.58 0 0 1-.3.64 2.53 2.53 0 0 1-.55.52 2.72 2.72 0 0 1-.67.35 2.08 2.08 0 0 1-.69.13 2.27 2.27 0 0 1-1-.22 2.59 2.59 0 0 1-.79-.58 2.74 2.74 0 0 1-.53-.86 2.83 2.83 0 0 1-.2-1 3.14 3.14 0 0 1 .17-1 2.78 2.78 0 0 1 .48-.88 2.41 2.41 0 0 1 .76-.62 2.09 2.09 0 0 1 1-.23 2 2 0 0 1 .71.13 2.77 2.77 0 0 1 .67.36 3 3 0 0 1 .57.55 2.32 2.32 0 0 1 .38.67zm3.3-7.65h1.23v1.54h-1.23zm0 2.91h1.23v7.31h-1.23zm6.29 6.15a1.79 1.79 0 0 1-.67.12.9.9 0 0 1-.56-.18.76.76 0 0 1-.27-.59v-4.54h1.64v-1h-1.6v-2.44h-1.23v2.44h-1v1h1v4.91a1.36 1.36 0 0 0 .49 1.15 1.87 1.87 0 0 0 1.16.37 3.21 3.21 0 0 0 .57 0 3.65 3.65 0 0 0 .5-.13l.41-.15.29-.13-.29-1a2.9 2.9 0 0 1-.44.17zm7.63-.36v-3a2.86 2.86 0 0 0-.8-2.17 3.12 3.12 0 0 0-2.25-.77 5.06 5.06 0 0 0-2.84 1l.41.8a4.09 4.09 0 0 1 2.32-.85 1.76 1.76 0 0 1 1.93 1.92v.59a5 5 0 0 0-1-.27 6.14 6.14 0 0 0-1.08-.1 4.35 4.35 0 0 0-1.24.17 3.28 3.28 0 0 0-1 .46 2.07 2.07 0 0 0-.64.71 1.89 1.89 0 0 0-.22.92 2.14 2.14 0 0 0 .19.9 2.28 2.28 0 0 0 .52.72 2.41 2.41 0 0 0 .78.48 2.63 2.63 0 0 0 1 .17 3.81 3.81 0 0 0 1.6-.34 3.16 3.16 0 0 0 1.24-1v.52a.9.9 0 0 0 .26.52.79.79 0 0 0 .58.22h.59v-1.17q-.35 0-.35-.43zm-1.23-.71a.78.78 0 0 1-.27.55 2 2 0 0 1-.86.65 3 3 0 0 1-1.22.25 1.74 1.74 0 0 1-.63-.11 1.61 1.61 0 0 1-.51-.31 1.37 1.37 0 0 1-.34-.46 1.39 1.39 0 0 1-.12-.57 1.19 1.19 0 0 1 .58-1 2.64 2.64 0 0 1 1.51-.39 5.07 5.07 0 0 1 1.86.35zm6.28 1.07a1.79 1.79 0 0 1-.67.12.9.9 0 0 1-.56-.18.76.76 0 0 1-.27-.59v-4.54h1.64v-1h-1.64v-2.44h-1.23v2.44h-1v1h1v4.91a1.36 1.36 0 0 0 .49 1.15 1.87 1.87 0 0 0 1.16.37 3.21 3.21 0 0 0 .57 0 3.65 3.65 0 0 0 .5-.13l.41-.15.29-.13-.29-1a2.9 2.9 0 0 1-.4.17zm8.5-3.93a3.62 3.62 0 0 0-.74-1.19 3.58 3.58 0 0 0-2.66-1.13 3.72 3.72 0 0 0-1.51.3 3.66 3.66 0 0 0-1.18.82 3.7 3.7 0 0 0-.77 1.2 3.91 3.91 0 0 0-.27 1.46 4 4 0 0 0 .27 1.46 3.73 3.73 0 0 0 .76 1.21 3.58 3.58 0 0 0 1.18.82 3.73 3.73 0 0 0 1.51.3 3.91 3.91 0 0 0 1-.14 3.75 3.75 0 0 0 .92-.38 3.28 3.28 0 0 0 .73-.58 2.68 2.68 0 0 0 .5-.74l-1.06-.29a1.55 1.55 0 0 1-.33.5 2.1 2.1 0 0 1-.5.38 2.87 2.87 0 0 1-.6.24 2.4 2.4 0 0 1-.66.09 2.27 2.27 0 0 1-.9-.18 2.51 2.51 0 0 1-.76-.5 2.54 2.54 0 0 1-.55-.77 2.81 2.81 0 0 1-.25-1h6.06a1.59 1.59 0 0 0 0-.2v-.28a3.93 3.93 0 0 0-.19-1.4zm-5.86 1a2.75 2.75 0 0 1 .25-1 2.47 2.47 0 0 1 .53-.75 2.38 2.38 0 0 1 .76-.49 2.48 2.48 0 0 1 2.61.48 2.58 2.58 0 0 1 .55.75 2.64 2.64 0 0 1 .26 1z" fill="#fff"/></svg>