<svg viewBox="0 0 52.42 47.62" xmlns="http://www.w3.org/2000/svg"><path d="M8.9 47.62a8.94 8.94 0 0 1-6.06-2.84A8.73 8.73 0 0 1 0 38.32l.06-.87.87-.06a8.72 8.72 0 0 1 6.47 2.82 8.72 8.72 0 0 1 2.82 6.47l-.06.87-.87.06zm-6.84-8.18a7.6 7.6 0 0 0 2.19 3.94 7.57 7.57 0 0 0 3.93 2.19A7.6 7.6 0 0 0 6 41.63a7.58 7.58 0 0 0-3.94-2.19zm30-6.07c-8.11 0-15.7-2.94-19.81-7.66l-.6-.71.57-.66c4.11-4.73 11.71-7.66 19.81-7.66s15.7 2.94 19.81 7.66l.57.66-.57.66c-4.1 4.77-11.7 7.71-19.84 7.71zM15.42 26c4 3.32 10.08 5.32 16.61 5.32s12.65-2 16.61-5.32zm25.69-2h7.53A20.13 20.13 0 0 0 44 21.18zm-8.61 0h5.78L42 20.37a28.51 28.51 0 0 0-4.6-1.19zm-8.6 0h5.78l5.19-5.19a32.13 32.13 0 0 0-5.79 0zm-8.48 0h5.65l4.69-4.69A23.54 23.54 0 0 0 15.42 24zM3 10.25h-.4l-.87-.06-.06-.87a8.74 8.74 0 0 1 2.86-6.48A8.71 8.71 0 0 1 11 0l.87.06.06.87A8.73 8.73 0 0 1 9.1 7.41 8.94 8.94 0 0 1 3 10.25zm6.88-8.19a7.58 7.58 0 0 0-3.94 2.19 7.6 7.6 0 0 0-2.19 3.94A7.57 7.57 0 0 0 7.69 6a7.6 7.6 0 0 0 2.19-3.94z" fill="#7b7b7b"/></svg>