<svg id="header__animation" xmlns="http://www.w3.org/2000/svg" viewBox="0 0 514 99.3"><style>.st0,.st1{fill:none;stroke:#9d9d9c;stroke-miterlimit:10}.st1{fill:#fff}</style><title>header-illustration-2</title><path class="st0" d="M249.5 86l7.5 12.5 7.5-12.5h-15zm7.5-15.9h-.1c-2.3 0-4.4-.9-6.1-2.4-1.6-1.6-2.5-3.7-2.5-6v-.3h.3c2 0 4 .7 5.6 1.9"/><path class="st0" d="M259.7 63.3c1.6-1.2 3.6-1.9 5.7-1.9h.3v.3c0 2.3-.9 4.4-2.5 6-1.7 1.5-3.8 2.4-6.1 2.4h-.4"/><path class="st1" d="M258.2 90.8c0 .7-.5 1.2-1.1 1.2-.7 0-1.2-.5-1.2-1.1s.5-1.2 1.1-1.2c.6 0 1.2.5 1.2 1.1"/><path class="st0" d="M257 70l-.2-.2c-3.3-3-3.5-8-.5-11.3l.5-.5.2-.2.2.2c3.3 3 3.5 8 .5 11.3l-.5.5-.2.2zm-47.4-19.9c-.7-.8-1.7-1.2-2.8-1.2.1 2.2 1.8 3.9 4 4 .1-1.1-.4-2.1-1.2-2.8zm-21.2 27.3c1 0 2.1-.3 2.8-1.1-1.6-1.4-4-1.4-5.6 0 .7.7 1.7 1.1 2.8 1.1zM257.9 35c0-1-.3-2.1-1.1-2.8-1.4 1.6-1.4 4 0 5.6.8-.7 1.2-1.7 1.1-2.8zM357 72.9l-3.4 3.4m7.5-3.3l-3.3 3.3m6.5-2.4l-2.4 2.4m6.1 0h-18.5m9.2-3.6c4 0 7.4 1.4 9.3 3.6-1.9 2.1-5.3 3.6-9.3 3.6s-7.4-1.4-9.3-3.6c2-2.1 5.4-3.6 9.3-3.6zm-35.3-41.2v4.9m3-7.7v4.7m7.2-7.2l-13.1 13.1m4-9.1c2.8-2.8 6.3-4.2 9.1-4 .2 2.8-1.2 6.2-4 9s-6.3 4.2-9.1 4c-.2-2.8 1.2-6.2 4-9zM304.4 50c.7-.8 1.7-1.2 2.8-1.2-.1 2.2-1.8 3.9-4 4-.1-1.1.4-2.1 1.2-2.8zm21.3 27.3c-1 0-2.1-.3-2.8-1.1 1.6-1.4 4-1.4 5.6 0-.7.8-1.7 1.2-2.8 1.1zM157 72.9l3.4 3.4m-7.5-3.3l3.4 3.3m-6.6-2.4l2.4 2.4m-6.1 0h18.5m-9.2-3.6c-4 0-7.4 1.4-9.3 3.6 1.9 2.1 5.3 3.6 9.3 3.6s7.4-1.4 9.3-3.6c-1.9-2.1-5.4-3.6-9.3-3.6zm35.3-41.2v4.9m-3-7.7v4.7m-7.2-7.2l13.1 13.1m-4-9.1c-2.8-2.8-6.3-4.2-9.1-4-.2 2.8 1.2 6.2 4 9s6.3 4.2 9.1 4c.2-2.8-1.2-6.2-4-9zm70.9-18.7l-3.4 3.4m3.3-7.5l-3.3 3.3m2.3-6.5L257 6.5m0-6V19m3.5-9.2c0-4-1.4-7.4-3.5-9.3-2.1 1.8-3.6 5.3-3.6 9.3s1.4 7.4 3.6 9.3c2.1-2 3.5-5.4 3.5-9.3zm-90 41.4c-.6-.3-1.4.1-1.6.7-.3.6.1 1.4.7 1.6 1 .1 2.1.1 3.1-.1-.6-.8-1.4-1.5-2.2-2.2m172.2 0c.6-.3 1.4.1 1.6.7s-.1 1.4-.7 1.6c-1 .1-2.1.1-3.1-.1.7-.8 1.4-1.5 2.2-2.2M224.4 20.1c-.3-.6-1.1-.8-1.7-.5-.6.3-.8 1.1-.5 1.7.7.8 1.5 1.4 2.4 2 0-1.1-.1-2.1-.2-3.2m66.1-1.6c.3-.6 1.1-.8 1.7-.5.6.3.8 1.1.5 1.7-.7.8-1.5 1.4-2.4 2 0-1.1 0-2.1.2-3.2M161.9 46.8c-.9-.4-1.9 0-2.3.9-.4.8 0 1.8.8 2.2l.2.1c.9.4 4.4-.1 4.4-.1s-2.2-2.8-3.1-3.1zm189.5 0c.8-.5 1.9-.1 2.3.7s.1 1.9-.7 2.3c0 0-.1 0-.1.1l-.2.1c-.9.4-4.4-.1-4.4-.1s2.1-2.8 3.1-3.1zM219.2 9.3c-.4-.9-1.4-1.3-2.3-.9-.9.4-1.3 1.4-.9 2.3 0 .1.1.1.1.2.4.9 3.4 2.8 3.4 2.8s.1-3.5-.3-4.4zm76.5-1.6c.4-.9 1.4-1.3 2.3-.9s1.3 1.4.9 2.3c0 .1-.1.2-.1.3-.4.9-3.4 2.8-3.4 2.8s-.1-3.6.3-4.5zM100.3 75.8c1 0 2.1-.3 2.8-1.1-1.6-1.4-4-1.4-5.6 0 .8.8 1.8 1.1 2.8 1.1"/><path class="st0" d="M100.3 75.8c1 0 2.1-.3 2.8-1.1-1.6-1.4-4-1.4-5.6 0 .8.8 1.8 1.1 2.8 1.1zM2.1 73.1c1 0 4.1 1.8 4.1 1.8S3 76.6 2.1 76.6c-1-.1-1.7-.9-1.6-1.9.1-.8.8-1.5 1.6-1.6zm11 .5c1.1.3 2.1.7 3.1 1.3-1 .6-2 1-3.1 1.3-.7 0-1.3-.6-1.3-1.3 0-.7.6-1.3 1.3-1.3zm468.4-1c2.1-.1 4 .7 5.5 2.1-3.1 2.8-7.9 2.8-11 0 1.5-1.4 3.4-2.2 5.5-2.1zm-44.3-1l1.3-7.3-6.9 1.1m23.6 9.3l10.1-10.1m-37.2 10.1h48"/><path class="st0" d="M433 63.6c3.4-3.4 7.6-5.2 11.1-4.9.2 3.4-1.5 7.6-4.9 11.1s-7.6 5.2-11.1 4.9c-.2-3.4 1.5-7.7 4.9-11.1zm25.3 4.1c1.8-2 4.3-3.1 7-3.1-.3 5.5-4.6 9.8-10.1 10.1 0-2.6 1.1-5.2 3.1-7zM431.6 84l6.9 1.2-1.3-7.3m28.1 6.9l-10.1-10.1"/><path class="st0" d="M428.1 74.8c3.4-.2 7.6 1.5 11.1 4.9s5.2 7.6 4.9 11.1c-3.4.2-7.6-1.5-11.1-4.9s-5.1-7.7-4.9-11.1zm27.1-.1c5.5.3 9.8 4.7 10.1 10.2-5.5-.3-9.9-4.7-10.1-10.2zM32.5 76.9c-2.1.1-4.1-.7-5.5-2.1 1.5-1.4 3.5-2.2 5.5-2.1 2.1-.1 4 .7 5.5 2.1-1.4 1.4-3.4 2.2-5.5 2.1zm44.4 1l-1.3 7.3 6.9-1.2m-23.6-9.3L48.8 84.8m37.1-10.1h-48"/><path class="st0" d="M81 85.8c-3.4 3.4-7.6 5.2-11.1 4.9-.2-3.4 1.5-7.6 4.9-11.1s7.6-5.2 11.1-4.9c.3 3.5-1.5 7.7-4.9 11.1zm-25.2-4.1c-1.8 2-4.3 3.1-7 3.1.3-5.5 4.7-9.8 10.1-10.1 0 2.7-1.2 5.2-3.1 7zm26.7-16.3l-6.9-1.1 1.3 7.3m-28.1-7l10.1 10.1"/><path class="st0" d="M85.9 74.7c-3.4.2-7.6-1.5-11.1-4.9s-5.2-7.6-4.9-11c3.4-.2 7.6 1.5 11.1 4.9 3.4 3.4 5.2 7.6 4.9 11zm-27 0c-5.5-.3-9.8-4.6-10.1-10.1 5.4.3 9.8 4.7 10.1 10.1zm354.7-1.2c-1 0-2.1.3-2.8 1.1 1.6 1.4 4 1.4 5.6 0-.7-.8-1.7-1.2-2.8-1.1"/><path class="st0" d="M413.6 73.5c-1 0-2.1.3-2.8 1.1 1.6 1.4 4 1.4 5.6 0-.7-.8-1.7-1.2-2.8-1.1zm98.3 2.7c-1 0-4.1-1.8-4.1-1.8s3.1-1.8 4.1-1.8c1-.1 1.8.7 1.9 1.6.1 1-.7 1.8-1.6 1.9-.2.1-.3.1-.3.1zm-11-.5c-1.1-.3-2.1-.7-3.1-1.3 1-.6 2-1 3.1-1.3.7 0 1.3.6 1.3 1.3 0 .7-.6 1.3-1.3 1.3zM257 90.7V70"/></svg>