<svg id="Слой_1" data-name="Слой 1" xmlns="http://www.w3.org/2000/svg" viewBox="0 0 513.98 99.25"><defs><style>.cls-1,.cls-4{fill:none;stroke-width:.75px}.cls-1,.cls-2,.cls-4{stroke:#fff}.cls-1,.cls-2{stroke-miterlimit:10}.cls-2{fill:#9d9d9c}.cls-3{fill:#fff}</style></defs><title>header-illustration</title><path class="cls-1 jOggEWmM_0" d="M284.39 107.39l7.46 12.52 7.46-12.52z" transform="translate(-34.84 -21.39)"/><path class="cls-1 jOggEWmM_1" d="M291.86 91.47h-.1a9.25 9.25 0 0 1-6.1-2.38 8.41 8.41 0 0 1-2.48-6v-.31h.33a9.48 9.48 0 0 1 5.63 1.88" transform="translate(-34.84 -21.39)"/><path class="cls-1 jOggEWmM_2" d="M294.51 84.73a9.45 9.45 0 0 1 5.67-1.92h.32v.31a8.42 8.42 0 0 1-2.49 6 9.26 9.26 0 0 1-6.1 2.38h-.43" transform="translate(-34.84 -21.39)"/><path class="cls-3 jOggEWmM_4" d="M293 112.2a1.19 1.19 0 1 1-1.19-1.14 1.16 1.16 0 0 1 1.19 1.14" transform="translate(-34.84 -21.39)"/><path class="cls-1 jOggEWmM_5" d="M291.85 91.38l-.23-.21a8 8 0 0 1 0-11.81l.23-.21.24.21a8 8 0 0 1 0 11.81z" transform="translate(-34.84 -21.39)"/><path class="cls-1 jOggEWmM_6" d="M244.49 71.46a3.76 3.76 0 0 0-2.75-1.23 4.2 4.2 0 0 0 4 4 3.78 3.78 0 0 0-1.25-2.77z" transform="translate(-34.84 -21.39)"/><path class="cls-1 jOggEWmM_7" d="M223.2 98.76a3.75 3.75 0 0 0 2.8-1.08 4.18 4.18 0 0 0-5.61 0 3.76 3.76 0 0 0 2.81 1.08z" transform="translate(-34.84 -21.39)"/><path class="cls-1 jOggEWmM_8" d="M292.77 56.4a3.78 3.78 0 0 0-1.08-2.81 4.21 4.21 0 0 0 0 5.63 3.78 3.78 0 0 0 1.08-2.82z" transform="translate(-34.84 -21.39)"/><path class="cls-1 jOggEWmM_9" d="M357.01 72.87l-3.43 3.42"/><path class="cls-1 jOggEWmM_10" d="M361.09 72.97l-3.33 3.32"/><path class="cls-1 jOggEWmM_11" d="M364.31 73.93l-2.37 2.36"/><path class="cls-1 jOggEWmM_12" d="M367.98 76.27h-18.51"/><path class="cls-1 jOggEWmM_13" d="M393.57 94.12c4 0 7.41 1.43 9.26 3.55-1.85 2.12-5.3 3.55-9.26 3.55s-7.41-1.43-9.26-3.55c1.85-2.13 5.3-3.55 9.26-3.55z" transform="translate(-34.84 -21.39)"/><path class="cls-1 jOggEWmM_14" d="M323.42 31.52v4.84"/><path class="cls-1 jOggEWmM_15" d="M326.37 28.71v4.7"/><path class="cls-1 jOggEWmM_16" d="M333.58 26.17l-13.09 13.08"/><path class="cls-1 jOggEWmM_17" d="M359.37 51.6c2.8-2.8 6.25-4.22 9.06-4 .19 2.81-1.24 6.25-4 9.05s-6.25 4.22-9.06 4c-.23-2.81 1.2-6.26 4-9.05z" transform="translate(-34.84 -21.39)"/><path class="cls-1 jOggEWmM_18" d="M339.23 71.35a3.78 3.78 0 0 1 2.77-1.23 4.22 4.22 0 0 1-4 4 3.78 3.78 0 0 1 1.23-2.77z" transform="translate(-34.84 -21.39)"/><path class="cls-1 jOggEWmM_19" d="M360.57 98.7a3.79 3.79 0 0 1-2.82-1.08 4.22 4.22 0 0 1 5.65 0 3.78 3.78 0 0 1-2.83 1.08z" transform="translate(-34.84 -21.39)"/><path class="cls-1 jOggEWmM_20" d="M157.01 72.87l3.42 3.42"/><path class="cls-1 jOggEWmM_21" d="M152.92 72.97l3.33 3.32"/><path class="cls-1 jOggEWmM_22" d="M149.7 73.93l2.37 2.36"/><path class="cls-1 jOggEWmM_23" d="M146.03 76.27h18.51"/><path class="cls-1 jOggEWmM_24" d="M190.13 94.12c-4 0-7.41 1.43-9.26 3.55 1.85 2.12 5.3 3.55 9.26 3.55s7.41-1.43 9.26-3.55c-1.85-2.13-5.31-3.55-9.26-3.55z" transform="translate(-34.84 -21.39)"/><path class="cls-1 jOggEWmM_25" d="M190.59 31.52v4.84"/><path class="cls-1 jOggEWmM_26" d="M187.64 28.71v4.7"/><path class="cls-1 jOggEWmM_27" d="M183.08 27.11v3.35"/><path class="cls-1 jOggEWmM_28" d="M180.43 26.17l13.09 13.08"/><path class="cls-1 jOggEWmM_29" d="M224.33 51.6c-2.8-2.8-6.25-4.22-9.06-4-.2 2.81 1.23 6.25 4 9.05s6.25 4.22 9.06 4c.22-2.81-1.21-6.26-4-9.05z" transform="translate(-34.84 -21.39)"/><path class="cls-1 jOggEWmM_30" d="M260.39 11.46l-3.42 3.43"/><path class="cls-1 jOggEWmM_31" d="M260.29 7.38l-3.32 3.33"/><path class="cls-1 jOggEWmM_32" d="M259.33 4.17l-2.36 2.36"/><path class="cls-1 jOggEWmM_33" d="M256.99.5v18.49"/><path class="cls-1 jOggEWmM_34" d="M295.39 31.14c0-4-1.43-7.4-3.55-9.25-2.12 1.85-3.55 5.3-3.55 9.25s1.43 7.4 3.55 9.25c2.16-1.85 3.55-5.3 3.55-9.25z" transform="translate(-34.84 -21.39)"/><path class="cls-1 jOggEWmM_35" d="M205.35 72.6a1.23 1.23 0 0 0-.92 2.29 12 12 0 0 0 3.13-.07 11.94 11.94 0 0 0-2.2-2.22" transform="translate(-34.84 -21.39)"/><path class="cls-1 jOggEWmM_36" d="M377.59 72.6a1.23 1.23 0 0 1 .92 2.29 12 12 0 0 1-3.12-.07 11.92 11.92 0 0 1 2.2-2.22" transform="translate(-34.84 -21.39)"/><path class="cls-1 jOggEWmM_37" d="M259.19 41.51a1.23 1.23 0 1 0-2.2 1.12 11.91 11.91 0 0 0 2.4 2 11.94 11.94 0 0 0-.21-3.12" transform="translate(-34.84 -21.39)"/><path class="cls-1 jOggEWmM_38" d="M325.37 39.91a1.23 1.23 0 1 1 2.2 1.12 12 12 0 0 1-2.4 2 12 12 0 0 1 .21-3.12" transform="translate(-34.84 -21.39)"/><path class="cls-1 jOggEWmM_39" d="M196.78 68.17a1.73 1.73 0 1 0-1.29 3.2c.88.36 4.38-.09 4.38-.09s-2.2-2.75-3.09-3.11z" transform="translate(-34.84 -21.39)"/><path class="cls-1 jOggEWmM_40" d="M386.16 68.17a1.73 1.73 0 1 1 1.29 3.2c-.88.36-4.38-.09-4.38-.09s2.2-2.75 3.09-3.11z" transform="translate(-34.84 -21.39)"/><path class="cls-1 jOggEWmM_41" d="M254 30.71a1.73 1.73 0 1 0-3 1.57c.44.85 3.37 2.8 3.37 2.8s.09-3.52-.37-4.37z" transform="translate(-34.84 -21.39)"/><path class="cls-1 jOggEWmM_42" d="M330.53 29.11a1.73 1.73 0 1 1 3.07 1.57c-.43.85-3.36 2.8-3.36 2.8s-.14-3.48.29-4.37z" transform="translate(-34.84 -21.39)"/><path class="cls-1 jOggEWmM_43" d="M135.18 97.18A3.75 3.75 0 0 0 138 96.1a4.18 4.18 0 0 0-5.61 0 3.75 3.75 0 0 0 2.8 1.08" transform="translate(-34.84 -21.39)"/><path class="cls-4 jOggEWmM_44" d="M135.18 97.18A3.75 3.75 0 0 0 138 96.1a4.18 4.18 0 0 0-5.61 0 3.75 3.75 0 0 0 2.79 1.08z" transform="translate(-34.84 -21.39)"/><path class="cls-1 jOggEWmM_45" d="M37 94.51c1 0 4.12 1.76 4.12 1.76S37.94 98 37 98a1.75 1.75 0 0 1 0-3.51z" transform="translate(-34.84 -21.39)"/><path class="cls-1 jOggEWmM_46" d="M47.93 95A12.88 12.88 0 0 1 51 96.27a12.88 12.88 0 0 1-3.08 1.31 1.31 1.31 0 0 1 0-2.62z" transform="translate(-34.84 -21.39)"/><path class="cls-1 jOggEWmM_47" d="M516.34 94a7.37 7.37 0 0 1 5.51 2.11 8.23 8.23 0 0 1-11 0 7.38 7.38 0 0 1 5.49-2.11z" transform="translate(-34.84 -21.39)"/><path class="cls-1 jOggEWmM_48" d="M437.19 71.56l1.27-7.32-6.9 1.18"/><path class="cls-1 jOggEWmM_50" d="M455.17 74.7l10.11-10.1"/><path class="cls-1 jOggEWmM_51" d="M428.1 74.72h48.05"/><path class="cls-1 jOggEWmM_52" d="M467.88 85c3.41-3.42 7.63-5.16 11.06-4.92.23 3.43-1.51 7.64-4.92 11.05s-7.63 5.16-11.06 4.92c-.23-3.39 1.51-7.6 4.92-11.05z" transform="translate(-34.84 -21.39)"/><path class="cls-1 jOggEWmM_53" d="M493.12 89.11a9.57 9.57 0 0 1 7-3.11A10.68 10.68 0 0 1 490 96.1a9.57 9.57 0 0 1 3.12-6.99z" transform="translate(-34.84 -21.39)"/><path class="cls-1 jOggEWmM_54" d="M431.56 84.01l6.9 1.18-1.27-7.31"/><path class="cls-1 jOggEWmM_55" d="M465.28 84.84l-10.11-10.11"/><path class="cls-1 jOggEWmM_56" d="M463 96.13c3.43-.24 7.64 1.51 11.06 4.92s5.16 7.63 4.92 11.05c-3.43.24-7.64-1.51-11.06-4.92s-5.19-7.62-4.92-11.05z" transform="translate(-34.84 -21.39)"/><path class="cls-1 jOggEWmM_57" d="M490 96.12a10.68 10.68 0 0 1 10.11 10.11A10.67 10.67 0 0 1 490 96.12z" transform="translate(-34.84 -21.39)"/><path class="cls-1 jOggEWmM_58" d="M67.39 98.25a7.37 7.37 0 0 1-5.51-2.11 8.23 8.23 0 0 1 11 0 7.38 7.38 0 0 1-5.49 2.11z" transform="translate(-34.84 -21.39)"/><path class="cls-1 jOggEWmM_59" d="M76.86 77.88l-1.28 7.31 6.9-1.18"/><path class="cls-1 jOggEWmM_61" d="M58.88 74.73L48.77 84.84"/><path class="cls-1 jOggEWmM_62" d="M85.95 74.72H37.89"/><path class="cls-1 jOggEWmM_63" d="M115.84 107.19c-3.42 3.41-7.63 5.16-11.05 4.92-.23-3.43 1.51-7.64 4.92-11.05s7.63-5.16 11.05-4.92c.24 3.42-1.5 7.63-4.92 11.05z" transform="translate(-34.84 -21.39)"/><path class="cls-1 jOggEWmM_64" d="M90.6 103.12a9.56 9.56 0 0 1-7 3.11 10.68 10.68 0 0 1 10.12-10.11 9.56 9.56 0 0 1-3.12 7z" transform="translate(-34.84 -21.39)"/><path class="cls-1 jOggEWmM_65" d="M82.48 65.42l-6.9-1.18 1.28 7.32"/><path class="cls-1 jOggEWmM_66" d="M48.77 64.6l10.11 10.1"/><path class="cls-1 jOggEWmM_67" d="M120.77 96.09c-3.43.23-7.64-1.51-11.05-4.92s-5.16-7.63-4.92-11.05c3.43-.24 7.64 1.5 11.05 4.92s5.15 7.62 4.92 11.05z" transform="translate(-34.84 -21.39)"/><path class="cls-1 jOggEWmM_68" d="M93.72 96.1A10.68 10.68 0 0 1 83.61 86a10.68 10.68 0 0 1 10.11 10.1z" transform="translate(-34.84 -21.39)"/><path class="cls-1 jOggEWmM_69" d="M448.49 94.87a3.75 3.75 0 0 0-2.81 1.08 4.18 4.18 0 0 0 5.61 0 3.75 3.75 0 0 0-2.8-1.08" transform="translate(-34.84 -21.39)"/><path class="cls-4 jOggEWmM_70" d="M448.49 94.87a3.75 3.75 0 0 0-2.81 1.08 4.18 4.18 0 0 0 5.61 0 3.75 3.75 0 0 0-2.8-1.08z" transform="translate(-34.84 -21.39)"/><path class="cls-1 jOggEWmM_71" d="M546.69 97.54c-1 0-4.12-1.75-4.12-1.75s3.15-1.79 4.12-1.79a1.75 1.75 0 1 1 0 3.51z" transform="translate(-34.84 -21.39)"/><path class="cls-1 jOggEWmM_72" d="M535.74 97.1a12.92 12.92 0 0 1-3.08-1.31 12.91 12.91 0 0 1 3.08-1.31 1.31 1.31 0 1 1 0 2.62z" transform="translate(-34.84 -21.39)"/><path class="cls-1 jOggEWmM_73" d="M256.95 90.73V69.99"/><style>.jOggEWmM_0{stroke-dasharray:45 47;stroke-dashoffset:46;animation:jOggEWmM_draw 2000ms ease-in 0ms forwards}.jOggEWmM_1,.jOggEWmM_2{stroke-dasharray:21 23;stroke-dashoffset:22;animation:jOggEWmM_draw 2000ms ease-in 13ms forwards}.jOggEWmM_2{animation:jOggEWmM_draw 2000ms ease-in 27ms forwards}.jOggEWmM_3{stroke-dasharray:0 2;stroke-dashoffset:1;animation:jOggEWmM_draw 2000ms ease-in 41ms forwards}.jOggEWmM_4{stroke-dasharray:8 10;stroke-dashoffset:9;animation:jOggEWmM_draw 2000ms ease-in 54ms forwards}.jOggEWmM_5{stroke-dasharray:28 30;stroke-dashoffset:29;animation:jOggEWmM_draw 2000ms ease-in 68ms forwards}.jOggEWmM_6{animation:jOggEWmM_draw 2000ms ease-in 82ms forwards}.jOggEWmM_6,.jOggEWmM_7,.jOggEWmM_8{stroke-dasharray:13 15;stroke-dashoffset:14}.jOggEWmM_7{animation:jOggEWmM_draw 2000ms ease-in 95ms forwards}.jOggEWmM_8{animation:jOggEWmM_draw 2000ms ease-in 109ms forwards}.jOggEWmM_10,.jOggEWmM_9{stroke-dasharray:5 7;stroke-dashoffset:6}.jOggEWmM_9{animation:jOggEWmM_draw 2000ms ease-in 123ms forwards}.jOggEWmM_10{animation:jOggEWmM_draw 2000ms ease-in 136ms forwards}.jOggEWmM_11{stroke-dasharray:4 6;stroke-dashoffset:5;animation:jOggEWmM_draw 2000ms ease-in 150ms forwards}.jOggEWmM_12{stroke-dasharray:19 21;stroke-dashoffset:20;animation:jOggEWmM_draw 2000ms ease-in 164ms forwards}.jOggEWmM_13{stroke-dasharray:41 43;stroke-dashoffset:42;animation:jOggEWmM_draw 2000ms ease-in 178ms forwards}.jOggEWmM_14,.jOggEWmM_15{stroke-dasharray:5 7;stroke-dashoffset:6;animation:jOggEWmM_draw 2000ms ease-in 191ms forwards}.jOggEWmM_15{animation:jOggEWmM_draw 2000ms ease-in 205ms forwards}.jOggEWmM_16{stroke-dasharray:19 21;stroke-dashoffset:20;animation:jOggEWmM_draw 2000ms ease-in 219ms forwards}.jOggEWmM_17{stroke-dasharray:41 43;stroke-dashoffset:42;animation:jOggEWmM_draw 2000ms ease-in 232ms forwards}.jOggEWmM_18,.jOggEWmM_19{stroke-dasharray:13 15;stroke-dashoffset:14;animation:jOggEWmM_draw 2000ms ease-in 246ms forwards}.jOggEWmM_19{animation:jOggEWmM_draw 2000ms ease-in 260ms forwards}.jOggEWmM_20,.jOggEWmM_21{stroke-dasharray:5 7;stroke-dashoffset:6;animation:jOggEWmM_draw 2000ms ease-in 273ms forwards}.jOggEWmM_21{animation:jOggEWmM_draw 2000ms ease-in 287ms forwards}.jOggEWmM_22{stroke-dasharray:4 6;stroke-dashoffset:5;animation:jOggEWmM_draw 2000ms ease-in 301ms forwards}.jOggEWmM_23{stroke-dasharray:19 21;stroke-dashoffset:20;animation:jOggEWmM_draw 2000ms ease-in 315ms forwards}.jOggEWmM_24{stroke-dasharray:41 43;stroke-dashoffset:42;animation:jOggEWmM_draw 2000ms ease-in 328ms forwards}.jOggEWmM_25,.jOggEWmM_26{stroke-dasharray:5 7;stroke-dashoffset:6;animation:jOggEWmM_draw 2000ms ease-in 342ms forwards}.jOggEWmM_26{animation:jOggEWmM_draw 2000ms ease-in 356ms forwards}.jOggEWmM_27{stroke-dasharray:4 6;stroke-dashoffset:5;animation:jOggEWmM_draw 2000ms ease-in 369ms forwards}.jOggEWmM_28{stroke-dasharray:19 21;stroke-dashoffset:20;animation:jOggEWmM_draw 2000ms ease-in 383ms forwards}.jOggEWmM_29{stroke-dasharray:41 43;stroke-dashoffset:42;animation:jOggEWmM_draw 2000ms ease-in 397ms forwards}.jOggEWmM_30,.jOggEWmM_31{stroke-dasharray:5 7;stroke-dashoffset:6;animation:jOggEWmM_draw 2000ms ease-in 410ms forwards}.jOggEWmM_31{animation:jOggEWmM_draw 2000ms ease-in 424ms forwards}.jOggEWmM_32{stroke-dasharray:4 6;stroke-dashoffset:5;animation:jOggEWmM_draw 2000ms ease-in 438ms forwards}.jOggEWmM_33{stroke-dasharray:19 21;stroke-dashoffset:20;animation:jOggEWmM_draw 2000ms ease-in 452ms forwards}.jOggEWmM_34{stroke-dasharray:41 43;stroke-dashoffset:42;animation:jOggEWmM_draw 2000ms ease-in 465ms forwards}.jOggEWmM_35{animation:jOggEWmM_draw 2000ms ease-in 479ms forwards}.jOggEWmM_35,.jOggEWmM_36,.jOggEWmM_37,.jOggEWmM_38{stroke-dasharray:11 13;stroke-dashoffset:12}.jOggEWmM_36{animation:jOggEWmM_draw 2000ms ease-in 493ms forwards}.jOggEWmM_37{animation:jOggEWmM_draw 2000ms ease-in 506ms forwards}.jOggEWmM_38{animation:jOggEWmM_draw 2000ms ease-in 520ms forwards}.jOggEWmM_39{animation:jOggEWmM_draw 2000ms ease-in 534ms forwards}.jOggEWmM_39,.jOggEWmM_40,.jOggEWmM_41,.jOggEWmM_42{stroke-dasharray:15 17;stroke-dashoffset:16}.jOggEWmM_40{animation:jOggEWmM_draw 2000ms ease-in 547ms forwards}.jOggEWmM_41{animation:jOggEWmM_draw 2000ms ease-in 561ms forwards}.jOggEWmM_42{animation:jOggEWmM_draw 2000ms ease-in 575ms forwards}.jOggEWmM_43,.jOggEWmM_44{stroke-dasharray:13 15;stroke-dashoffset:14;animation:jOggEWmM_draw 2000ms ease-in 589ms forwards}.jOggEWmM_44{animation:jOggEWmM_draw 2000ms ease-in 602ms forwards}.jOggEWmM_45{stroke-dasharray:15 17;stroke-dashoffset:16;animation:jOggEWmM_draw 2000ms ease-in 616ms forwards}.jOggEWmM_46{stroke-dasharray:11 13;stroke-dashoffset:12;animation:jOggEWmM_draw 2000ms ease-in 630ms forwards}.jOggEWmM_47{stroke-dasharray:25 27;stroke-dashoffset:26;animation:jOggEWmM_draw 2000ms ease-in 643ms forwards}.jOggEWmM_48{stroke-dasharray:15 17;stroke-dashoffset:16;animation:jOggEWmM_draw 2000ms ease-in 657ms forwards}.jOggEWmM_49{stroke-dasharray:0 2;stroke-dashoffset:1;animation:jOggEWmM_draw 2000ms ease-in 671ms forwards}.jOggEWmM_50{stroke-dasharray:15 17;stroke-dashoffset:16;animation:jOggEWmM_draw 2000ms ease-in 684ms forwards}.jOggEWmM_51{stroke-dasharray:49 51;stroke-dashoffset:50;animation:jOggEWmM_draw 2000ms ease-in 698ms forwards}.jOggEWmM_52{stroke-dasharray:50 52;stroke-dashoffset:51;animation:jOggEWmM_draw 2000ms ease-in 712ms forwards}.jOggEWmM_53{stroke-dasharray:32 34;stroke-dashoffset:33;animation:jOggEWmM_draw 2000ms ease-in 726ms forwards}.jOggEWmM_54,.jOggEWmM_55{stroke-dasharray:15 17;stroke-dashoffset:16;animation:jOggEWmM_draw 2000ms ease-in 739ms forwards}.jOggEWmM_55{animation:jOggEWmM_draw 2000ms ease-in 753ms forwards}.jOggEWmM_56{stroke-dasharray:50 52;stroke-dashoffset:51;animation:jOggEWmM_draw 2000ms ease-in 767ms forwards}.jOggEWmM_57{stroke-dasharray:32 34;stroke-dashoffset:33;animation:jOggEWmM_draw 2000ms ease-in 780ms forwards}.jOggEWmM_58{stroke-dasharray:25 27;stroke-dashoffset:26;animation:jOggEWmM_draw 2000ms ease-in 794ms forwards}.jOggEWmM_59{stroke-dasharray:15 17;stroke-dashoffset:16;animation:jOggEWmM_draw 2000ms ease-in 808ms forwards}.jOggEWmM_60{stroke-dasharray:0 2;stroke-dashoffset:1;animation:jOggEWmM_draw 2000ms ease-in 821ms forwards}.jOggEWmM_61{stroke-dasharray:15 17;stroke-dashoffset:16;animation:jOggEWmM_draw 2000ms ease-in 835ms forwards}.jOggEWmM_62{stroke-dasharray:49 51;stroke-dashoffset:50;animation:jOggEWmM_draw 2000ms ease-in 849ms forwards}.jOggEWmM_63{stroke-dasharray:50 52;stroke-dashoffset:51;animation:jOggEWmM_draw 2000ms ease-in 863ms forwards}.jOggEWmM_64{stroke-dasharray:32 34;stroke-dashoffset:33;animation:jOggEWmM_draw 2000ms ease-in 876ms forwards}.jOggEWmM_65,.jOggEWmM_66{stroke-dasharray:15 17;stroke-dashoffset:16;animation:jOggEWmM_draw 2000ms ease-in 890ms forwards}.jOggEWmM_66{animation:jOggEWmM_draw 2000ms ease-in 904ms forwards}.jOggEWmM_67{stroke-dasharray:50 52;stroke-dashoffset:51;animation:jOggEWmM_draw 2000ms ease-in 917ms forwards}.jOggEWmM_68{stroke-dasharray:32 34;stroke-dashoffset:33;animation:jOggEWmM_draw 2000ms ease-in 931ms forwards}.jOggEWmM_69,.jOggEWmM_70{stroke-dasharray:13 15;stroke-dashoffset:14;animation:jOggEWmM_draw 2000ms ease-in 945ms forwards}.jOggEWmM_70{animation:jOggEWmM_draw 2000ms ease-in 958ms forwards}.jOggEWmM_71{stroke-dasharray:15 17;stroke-dashoffset:16;animation:jOggEWmM_draw 2000ms ease-in 972ms forwards}.jOggEWmM_72{stroke-dasharray:11 13;stroke-dashoffset:12;animation:jOggEWmM_draw 2000ms ease-in 986ms forwards}.jOggEWmM_73{stroke-dasharray:21 23;stroke-dashoffset:22;animation:jOggEWmM_draw 2000ms ease-in 1000ms forwards}@keyframes jOggEWmM_draw{to{stroke-dashoffset:0}}@keyframes jOggEWmM_fade{0%,94.44444444444444%{stroke-opacity:1}to{stroke-opacity:0}}</style></svg>