<svg id="header__animation" data-name="Слой 1" xmlns="http://www.w3.org/2000/svg" viewBox="0 0 513.98 99.25"><defs><style>.cls-1,.cls-4{fill:none;stroke-width:.75px}.cls-1,.cls-2,.cls-4{stroke:#fff}.cls-1,.cls-2{stroke-miterlimit:10}.cls-2,.cls-3{fill:#fff}</style></defs><title>header-illustration-2</title><path class="cls-1" d="M249.54 86L257 98.51 264.46 86zM257 70.07h-.1a9.25 9.25 0 0 1-6.1-2.38 8.41 8.41 0 0 1-2.48-6v-.31h.33a9.48 9.48 0 0 1 5.63 1.88" transform="translate(0 .01)"/><path class="cls-1" d="M259.67 63.33a9.45 9.45 0 0 1 5.68-1.92h.32v.31a8.42 8.42 0 0 1-2.49 6 9.26 9.26 0 0 1-6.1 2.38h-.43" transform="translate(0 .01)"/><path class="cls-3" d="M258.19 90.8a1.19 1.19 0 1 1-1.19-1.14 1.16 1.16 0 0 1 1.19 1.13" transform="translate(0 .01)"/><path class="cls-1" d="M257 70l-.23-.21a8 8 0 0 1-.51-11.3q.24-.27.51-.51l.23-.21.24.21a8 8 0 0 1 .51 11.3q-.24.27-.51.51zm-47.36-19.94a3.76 3.76 0 0 0-2.75-1.18 4.2 4.2 0 0 0 4 4 3.78 3.78 0 0 0-1.25-2.82zm-21.29 27.3a3.75 3.75 0 0 0 2.8-1.08 4.18 4.18 0 0 0-5.61 0 3.76 3.76 0 0 0 2.81 1.08zM257.93 35a3.78 3.78 0 0 0-1.08-2.81 4.21 4.21 0 0 0 0 5.63 3.78 3.78 0 0 0 1.08-2.82z" transform="translate(0 .01)"/><path class="cls-1" d="M357.01 72.88l-3.43 3.42m7.51-3.32l-3.33 3.32m6.55-2.36l-2.37 2.36m6.04-.02h-18.51"/><path class="cls-1" d="M358.72 72.72c4 0 7.41 1.43 9.26 3.55-1.85 2.12-5.3 3.55-9.26 3.55s-7.41-1.43-9.26-3.55c1.89-2.12 5.31-3.55 9.26-3.55z" transform="translate(0 .01)"/><path class="cls-1" d="M323.42 31.53v4.84m2.95-7.65v4.7m7.21-7.24l-13.09 13.08"/><path class="cls-1" d="M324.52 30.2c2.8-2.8 6.25-4.22 9.06-4 .19 2.81-1.24 6.25-4 9s-6.25 4.22-9.06 4c-.23-2.76 1.2-6.2 4-9zm-20.17 19.75a3.78 3.78 0 0 1 2.76-1.23 4.22 4.22 0 0 1-4 4 3.78 3.78 0 0 1 1.24-2.77zm21.38 27.36a3.79 3.79 0 0 1-2.82-1.08 4.22 4.22 0 0 1 5.65 0 3.78 3.78 0 0 1-2.83 1.08z" transform="translate(0 .01)"/><path class="cls-1" d="M157.01 72.88l3.42 3.42m-7.51-3.32l3.33 3.32m-6.55-2.36l2.37 2.36m-6.04-.02h18.51"/><path class="cls-1" d="M155.28 72.72c-4 0-7.41 1.43-9.26 3.55 1.85 2.12 5.3 3.55 9.26 3.55s7.41-1.43 9.26-3.55c-1.85-2.12-5.3-3.55-9.26-3.55z" transform="translate(0 .01)"/><path class="cls-1" d="M190.59 31.53v4.84m-2.95-7.65v4.7m-7.21-7.24l13.09 13.08"/><path class="cls-1" d="M189.48 30.2c-2.8-2.8-6.25-4.22-9.06-4-.2 2.81 1.23 6.25 4 9s6.25 4.22 9.06 4c.23-2.76-1.2-6.2-4-9z" transform="translate(0 .01)"/><path class="cls-1" d="M260.39 11.47l-3.42 3.43m3.32-7.51l-3.32 3.33m2.36-6.54l-2.36 2.36m.02-6.03V19"/><path class="cls-1" d="M260.54 9.74c0-4-1.43-7.4-3.55-9.25-2.12 1.85-3.55 5.3-3.55 9.25s1.43 7.4 3.55 9.25c2.12-1.85 3.55-5.29 3.55-9.25zM170.51 51.2a1.23 1.23 0 0 0-.92 2.29 12 12 0 0 0 3.13-.07 11.94 11.94 0 0 0-2.2-2.22m172.22 0a1.23 1.23 0 1 1 .92 2.29 12 12 0 0 1-3.12-.07 11.92 11.92 0 0 1 2.2-2.22M224.35 20.12a1.23 1.23 0 1 0-2.2 1.12 11.91 11.91 0 0 0 2.4 2 11.94 11.94 0 0 0-.21-3.12m66.18-1.6a1.23 1.23 0 0 1 2.2 1.12 12 12 0 0 1-2.4 2 12 12 0 0 1 .21-3.12M161.94 46.78a1.73 1.73 0 0 0-1.53 3.1l.24.1c.88.36 4.38-.09 4.38-.09s-2.21-2.76-3.09-3.11zm189.41 0a1.73 1.73 0 1 1 1.53 3.1l-.24.1c-.88.36-4.38-.09-4.38-.09s2.17-2.76 3.09-3.11zM219.18 9.32a1.73 1.73 0 1 0-3.08 1.56c.44.85 3.37 2.8 3.37 2.8s.14-3.52-.29-4.36zm76.51-1.61a1.73 1.73 0 1 1 3.07 1.57c-.43.85-3.36 2.8-3.36 2.8s-.15-3.52.29-4.37zM100.35 75.79a3.75 3.75 0 0 0 2.8-1.08 4.18 4.18 0 0 0-5.61 0 3.75 3.75 0 0 0 2.8 1.08" transform="translate(0 .01)"/><path class="cls-4" d="M100.35 75.79a3.75 3.75 0 0 0 2.8-1.08 4.18 4.18 0 0 0-5.61 0 3.75 3.75 0 0 0 2.81 1.08z" transform="translate(0 .01)"/><path class="cls-1" d="M2.13 73.12c1 0 4.12 1.76 4.12 1.76s-3.15 1.75-4.12 1.75a1.76 1.76 0 0 1 0-3.51zm10.95.44a12.88 12.88 0 0 1 3.08 1.32 12.88 12.88 0 0 1-3.08 1.31 1.31 1.31 0 0 1 0-2.62zm468.41-.99a7.37 7.37 0 0 1 5.51 2.11 8.23 8.23 0 0 1-11 0 7.38 7.38 0 0 1 5.49-2.11z" transform="translate(0 .01)"/><path class="cls-1" d="M437.19 71.57l1.27-7.32-6.9 1.18m23.61 9.28l10.11-10.1M428.1 74.73h48.05"/><path class="cls-1" d="M433 63.64c3.41-3.41 7.63-5.16 11.06-4.92.23 3.43-1.51 7.64-4.92 11.05s-7.63 5.16-11.06 4.92c-.2-3.42 1.55-7.69 4.92-11.05zm25.28 4.07a9.57 9.57 0 0 1 7-3.11 10.68 10.68 0 0 1-10.11 10.11 9.57 9.57 0 0 1 3.11-7z" transform="translate(0 .01)"/><path class="cls-1" d="M431.56 84.02l6.9 1.18-1.27-7.31m28.09 6.96l-10.11-10.11"/><path class="cls-1" d="M428.12 74.74c3.43-.24 7.64 1.51 11.06 4.92s5.16 7.63 4.92 11.05c-3.43.24-7.64-1.51-11.06-4.92s-5.16-7.63-4.92-11.05zm27.05-.01a10.68 10.68 0 0 1 10.1 10.15 10.67 10.67 0 0 1-10.11-10.11zM32.54 76.88A7.37 7.37 0 0 1 27 74.77a7.37 7.37 0 0 1 5.51-2.12 7.37 7.37 0 0 1 5.51 2.12 7.38 7.38 0 0 1-5.48 2.11z" transform="translate(0 .01)"/><path class="cls-1" d="M76.86 77.89l-1.28 7.31 6.9-1.18m-23.6-9.28L48.77 84.85m37.18-10.12H37.89"/><path class="cls-1" d="M81 85.79c-3.42 3.41-7.63 5.21-11.05 4.92-.23-3.43 1.51-7.64 4.92-11.05s7.62-5.16 11.05-4.92c.24 3.42-1.51 7.64-4.92 11.05zm-25.24-4.07a9.56 9.56 0 0 1-7 3.11 10.68 10.68 0 0 1 10.11-10.1 9.56 9.56 0 0 1-3.11 6.99z" transform="translate(0 .01)"/><path class="cls-1" d="M82.48 65.43l-6.9-1.18 1.28 7.32m-28.09-6.96l10.11 10.1"/><path class="cls-1" d="M85.92 74.7c-3.43.23-7.64-1.51-11.05-4.92s-5.16-7.63-4.92-11c3.43-.24 7.64 1.5 11.05 4.92s5.16 7.57 4.92 11zm-27.05 0a10.68 10.68 0 0 1-10.11-10.1 10.68 10.68 0 0 1 10.11 10.1zm354.77-1.23a3.75 3.75 0 0 0-2.81 1.08 4.18 4.18 0 0 0 5.61 0 3.75 3.75 0 0 0-2.8-1.08" transform="translate(0 .01)"/><path class="cls-4" d="M413.64 73.47a3.75 3.75 0 0 0-2.81 1.08 4.18 4.18 0 0 0 5.61 0 3.75 3.75 0 0 0-2.8-1.08z" transform="translate(0 .01)"/><path class="cls-1" d="M511.85 76.14c-1 0-4.12-1.75-4.12-1.75s3.15-1.76 4.12-1.76a1.76 1.76 0 1 1 0 3.51zm-10.96-.44a12.92 12.92 0 0 1-3.08-1.31 12.91 12.91 0 0 1 3.08-1.31 1.31 1.31 0 1 1 0 2.62z" transform="translate(0 .01)"/><path class="cls-1" d="M256.95 90.74V70"/></svg>