<svg version="1" xmlns="http://www.w3.org/2000/svg" width="117" height="605" viewBox="0 0 1170 6050"><path d="M512 6027c-33-35-30-96 6-130 63-60 162-18 162 69 0 58-30 84-96 84-40 0-55-5-72-23zm106-29c28-28 7-78-33-78-27 0-45 18-45 45s18 45 45 45c12 0 26-5 33-12zm-202-469c-87-149-155-277-152-285 4-11 35-14 151-14h145v-67c0-66-1-69-35-96-31-24-35-33-35-73 0-34 6-51 25-69 13-14 29-25 35-25s10-33 10-85v-85h-28c-48 0-144-29-221-66-52-26-95-58-146-108C41 4433 0 4329 0 4135s41-298 165-421c51-50 94-82 146-108 77-37 173-66 221-66h28v-491l-35-30c-30-26-35-37-35-74s5-48 35-74l35-30v-642l-35-33c-29-27-35-41-35-73 0-43 30-93 56-93 12 0 14-66 14-440v-441l-35-30c-30-26-35-37-35-74s5-48 35-74l35-30V554l-74-22c-158-46-275-198-264-344l3-43 60 1c53 1 89 13 168 52 4 2 7-5 7-15 0-27 43-113 74-150 36-43 66-43 102-1 31 38 74 124 74 151 0 10 3 17 8 15 78-39 114-51 167-52l60-1 3 43c11 145-107 298-264 344l-74 22v357l35 30c30 26 35 37 35 74s-5 48-35 74l-35 30v441c0 374 2 440 14 440 26 0 56 50 56 93 0 32-6 46-35 73l-35 33v642l35 30c30 26 35 37 35 74s-5 48-35 74l-35 30v491h28c48 0 144 29 221 66 52 26 95 58 146 108 124 123 165 227 165 421s-41 298-165 421c-51 50-94 82-146 108-77 37-173 66-221 66h-28v85c0 52 4 85 10 85s22 11 35 25c19 18 25 35 25 69 0 40-4 49-35 73-34 27-35 30-35 96v67h145c116 0 147 3 151 14 7 17-304 556-321 556-7 0-83-122-169-271zm284-9c62-107 120-205 128-217l14-23H610v36c0 24 8 46 25 66 14 16 25 38 25 49 0 28-44 69-75 69s-75-41-75-69c0-11 11-33 25-49 17-20 25-42 25-66v-36H329l25 43c14 23 72 122 128 219 57 97 103 176 104 175s52-90 114-197zm-81-494c7-8 11-27 9-42-6-53-88-50-88 4 0 15 5 33 12 40 16 16 53 15 67-2zm90-361c197-47 356-200 406-390 19-76 19-204 0-280-50-190-209-343-406-390-285-67-581 109-654 390-19 76-19 204 0 280 73 280 369 457 654 390zm-91-1687c28-28 7-78-33-78-27 0-45 18-45 45s18 45 45 45c12 0 26-5 33-12zm-7-848c29-16 26-67-5-81-34-16-66 3-66 41 0 41 33 60 71 40zm7-1082c28-28 7-78-33-78-27 0-45 18-45 45s18 45 45 45c12 0 26-5 33-12zM500 436c-17-30-37-83-43-118-13-63-13-63-67-90-30-15-70-30-89-33l-34-7 7 42c10 61 54 146 95 182 35 31 125 78 149 78 7 0 1-20-18-54zm216 30c28-13 66-37 85-54 41-36 85-121 95-182l7-42-34 7c-19 3-59 18-89 33-54 27-54 27-67 90-6 35-26 88-43 118-34 61-29 65 46 30zm-79-75c40-80 39-181-2-264-40-81-47-85-78-39-73 111-74 236-2 344 32 48 41 43 82-41z" fill="#fff"/></svg>