<svg xmlns="http://www.w3.org/2000/svg" xmlns:xlink="http://www.w3.org/1999/xlink" version="1.1" x="0px" y="0px"
    viewBox="0 0 100 100" style="enable-background:new 0 0 100 100;" xml:space="preserve">
    <g>
        <g>
            <path d="M83,10H17c-3.9,0-7,3.1-7,7v19.2c0,1.1,0.9,2,2,2s2-0.9,2-2V17c0-1.7,1.3-3,3-3h66c1.7,0,3,1.3,3,3v66c0,1.7-1.3,3-3,3H17    c-1.7,0-3-1.3-3-3V55c0-1.7,1.3-3,3-3h46.7L48.6,67.1c-0.8,0.8-0.8,2,0,2.8c0.4,0.4,0.9,0.6,1.4,0.6s1-0.2,1.4-0.6l18.5-18.5    c0.8-0.8,0.8-2,0-2.8L51.4,30.1c-0.8-0.8-2-0.8-2.8,0c-0.8,0.8-0.8,2,0,2.8L63.7,48H17c-3.9,0-7,3.1-7,7v28c0,3.9,3.1,7,7,7h66    c3.9,0,7-3.1,7-7V17C90,13.1,86.9,10,83,10z" />
        </g>
    </g>
</svg>